{"glyphs":{"0":{"ha":628,"x_min":51,"x_max":611,"o":"m 611 585 q 595 477 611 539 q 552 350 579 415 q 487 222 525 285 q 403 109 449 158 q 305 29 357 60 q 199 0 253 -1 q 107 33 140 0 q 63 117 74 65 q 60 235 51 169 q 93 371 68 301 q 157 507 118 440 q 246 626 196 574 q 355 710 296 678 q 478 742 414 742 q 581 698 551 742 q 611 585 611 654 m 603 586 q 597 640 603 614 q 578 685 592 665 q 544 718 565 706 q 490 731 522 731 q 398 699 446 731 q 306 617 350 668 q 222 502 261 567 q 155 369 183 438 q 111 237 126 301 q 99 122 96 172 q 126 40 103 71 q 200 8 150 8 q 304 38 254 8 q 399 117 354 68 q 482 228 444 167 q 546 355 519 290 q 588 480 572 419 q 603 586 603 540 z "},"1":{"ha":346,"x_min":0,"x_max":408,"o":"m 133 540 q 215 572 179 551 q 278 615 250 592 q 327 663 306 638 q 365 708 349 688 q 385 731 376 721 q 401 749 393 742 l 408 744 q 385 694 408 743 q 326 569 361 644 q 247 402 290 493 q 165 228 204 311 q 96 83 126 146 q 54 -3 65 19 l 0 24 q 37 91 10 42 q 100 206 64 140 q 178 347 136 272 q 258 493 219 422 q 330 622 297 564 q 381 714 363 681 l 372 703 q 333 657 354 682 q 283 608 311 632 q 217 563 254 583 q 135 532 181 543 l 133 540 z "},"2":{"ha":529,"x_min":0,"x_max":601,"o":"m 601 642 q 571 540 601 594 q 492 429 540 486 q 382 316 443 372 q 259 209 321 260 q 141 117 197 158 q 46 47 85 75 q 108 47 74 51 q 180 36 143 43 q 253 23 217 29 q 322 17 290 17 q 395 35 367 17 q 424 106 424 53 l 433 106 q 400 21 432 42 q 319 0 368 0 q 245 6 285 0 q 169 15 206 11 q 101 15 132 18 q 51 -7 69 11 l 0 26 l 10 33 q 90 96 39 56 q 199 188 140 136 q 319 298 258 239 q 428 417 379 357 q 509 534 478 476 q 540 642 540 592 q 511 716 540 693 q 444 739 482 739 q 369 719 403 739 q 311 667 335 699 q 276 596 288 636 q 269 517 265 556 l 261 515 q 269 608 254 564 q 313 684 283 651 q 383 735 342 717 q 474 754 425 754 q 563 726 525 754 q 601 642 600 699 z "},"3":{"ha":506,"x_min":0,"x_max":533,"o":"m 533 614 q 519 552 533 583 q 476 495 506 521 q 401 452 446 469 q 294 431 356 435 q 392 366 361 413 q 422 261 424 319 q 399 159 422 207 q 339 76 376 111 q 252 19 301 40 q 150 0 203 -1 q 43 38 86 1 q 0 142 0 75 q 10 198 0 169 q 44 251 21 226 l 50 246 q 8 142 8 197 q 43 51 8 85 q 135 14 78 17 q 229 38 186 13 q 303 105 272 64 q 350 195 333 146 q 367 290 367 244 q 340 383 367 344 q 256 429 314 422 q 243 429 249 429 q 231 431 238 429 l 231 439 q 244 438 240 439 q 348 452 304 436 q 419 494 392 468 q 460 553 447 519 q 474 618 474 586 q 443 704 474 671 q 364 738 413 738 q 294 724 328 739 q 235 685 261 710 q 192 629 210 661 q 171 556 175 597 l 163 556 q 184 634 167 600 q 228 692 201 668 q 378 747 292 750 q 435 738 407 747 q 485 713 463 729 q 520 671 507 696 q 533 614 533 646 z "},"4":{"ha":432,"x_min":0,"x_max":517,"o":"m 517 746 q 501 713 517 746 q 458 626 485 679 q 399 506 432 574 q 331 367 365 438 l 406 367 l 406 358 l 326 358 q 268 240 297 297 q 215 133 239 182 q 174 49 192 85 q 149 -1 157 14 l 94 26 q 121 73 103 40 q 165 151 139 106 q 221 249 190 196 q 283 358 251 301 q 143 358 213 358 q 3 356 74 357 l 0 363 q 17 379 0 363 q 63 424 35 396 q 124 489 90 451 q 188 569 157 526 q 242 660 218 613 q 278 753 267 707 l 326 740 q 269 617 313 678 q 176 504 226 556 q 81 415 126 453 q 17 364 36 378 q 152 367 85 367 q 288 367 219 367 l 510 750 l 517 746 l 517 746 z "},"5":{"ha":581,"x_min":0,"x_max":569,"o":"m 161 468 q 207 476 185 474 q 250 478 229 479 q 342 462 303 478 q 408 419 382 446 q 447 356 433 392 q 460 282 460 321 q 435 172 460 224 q 372 81 411 119 q 280 19 332 42 q 169 -3 228 -3 q 106 6 136 -3 q 51 33 75 15 q 14 78 28 51 q 0 140 0 106 q 10 190 0 165 q 39 236 19 215 l 44 231 q 8 140 8 190 q 21 85 8 110 q 53 44 33 61 q 101 19 74 28 q 157 10 128 10 q 258 37 213 10 q 335 106 303 64 q 384 201 367 149 q 401 304 401 254 q 365 420 401 372 q 249 471 329 468 q 154 458 207 474 l 149 464 l 272 728 q 331 709 293 718 q 410 699 369 700 q 483 708 450 699 q 525 746 515 718 l 569 722 q 528 686 561 696 q 453 678 496 676 q 362 690 410 679 q 275 715 314 700 l 161 468 z "},"6":{"ha":518,"x_min":0,"x_max":560,"o":"m 54 135 q 76 48 54 86 q 153 8 99 10 q 242 41 201 8 q 312 122 282 74 q 358 224 342 171 q 376 319 375 278 q 355 394 378 364 q 288 425 332 425 q 191 395 235 425 q 122 321 147 365 l 114 325 q 189 404 142 374 q 292 435 236 435 q 391 392 357 435 q 428 286 425 349 q 410 181 429 233 q 356 89 390 129 q 273 24 321 49 q 169 -1 225 -1 q 45 45 90 -1 q 0 172 0 92 q 19 287 0 224 q 72 414 39 350 q 150 538 106 478 q 247 644 194 597 q 357 719 300 692 q 471 747 414 747 q 533 731 506 747 q 560 674 560 714 q 542 613 560 644 l 535 617 q 551 674 551 647 q 529 722 551 706 q 478 739 507 738 q 375 707 426 739 q 276 623 324 675 q 188 505 229 571 q 117 372 147 439 q 71 242 88 304 q 54 135 54 179 z "},"7":{"ha":472,"x_min":0,"x_max":488,"o":"m 488 746 q 408 660 450 710 q 328 556 372 617 q 236 415 283 494 l 318 415 l 318 407 l 232 407 q 137 220 183 322 q 58 -1 90 118 l 0 14 q 80 226 32 128 q 182 407 128 324 l 97 407 l 97 415 l 188 415 q 337 607 264 529 q 450 722 410 685 q 358 695 413 706 q 252 683 304 685 q 160 693 200 682 q 110 732 119 704 l 154 756 q 185 723 161 735 q 242 707 210 711 q 311 705 274 703 q 383 713 349 707 q 443 730 417 719 q 482 753 469 740 l 488 746 l 488 746 z "},"8":{"ha":475,"x_min":-1,"x_max":494,"o":"m 282 411 q 308 349 293 381 q 335 286 322 318 q 358 222 349 254 q 368 158 368 190 q 353 92 368 121 q 315 42 339 63 q 260 10 290 21 q 197 -1 229 -1 q 124 9 160 -1 q 60 40 88 19 q 15 92 32 61 q 0 163 -1 122 q 23 242 1 207 q 78 306 44 278 q 150 355 111 333 q 225 393 189 376 q 183 501 204 446 q 165 607 161 557 q 187 668 168 642 q 233 713 206 694 q 295 739 261 731 q 363 747 329 747 q 455 718 415 747 q 493 632 494 689 q 472 558 493 592 q 418 498 450 525 q 349 449 386 471 q 282 411 313 428 m 169 11 q 219 21 194 11 q 264 49 244 31 q 296 96 283 68 q 308 158 308 124 q 300 217 308 188 q 279 274 292 246 q 253 331 267 303 q 228 386 239 358 q 156 349 194 371 q 85 301 117 328 q 31 239 53 274 q 8 161 8 204 q 22 101 8 128 q 57 54 35 74 q 108 24 79 35 q 169 11 138 13 m 225 607 q 241 517 222 565 q 279 419 260 468 q 344 457 308 436 q 410 503 379 478 q 463 561 442 529 q 485 632 485 593 q 451 710 485 683 q 368 739 417 738 q 267 702 306 739 q 225 607 229 665 z "},"9":{"ha":550,"x_min":0,"x_max":560,"o":"m 506 611 q 500 658 506 636 q 483 698 494 681 q 452 726 471 715 q 407 738 433 738 q 318 705 358 738 q 248 624 278 672 q 201 522 218 575 q 183 426 185 468 q 204 351 181 382 q 272 321 228 321 q 369 351 325 321 q 438 425 413 381 l 444 421 q 370 342 417 372 q 267 311 324 311 q 168 355 203 311 q 132 460 133 399 q 150 564 131 513 q 203 656 169 615 q 285 722 238 697 q 389 747 333 747 q 514 701 468 747 q 560 574 560 656 q 540 458 560 521 q 488 332 521 396 q 410 208 454 268 q 313 101 365 147 q 203 27 260 56 q 89 -1 146 -1 q 27 15 54 -1 q 0 72 0 32 q 17 133 0 100 l 25 129 q 8 72 8 97 q 31 24 8 40 q 82 8 53 8 q 185 39 133 7 q 283 123 236 71 q 372 241 331 175 q 442 374 413 307 q 489 504 472 442 q 506 611 506 567 z "},"\u0000":{"ha":0,"x_min":0,"x_max":0,"o":""},"\r":{"ha":274,"x_min":0,"x_max":0,"o":""}," ":{"ha":274,"x_min":0,"x_max":0,"o":""},"p":{"ha":382,"x_min":-236,"x_max":397,"o":"m 397 226 q 365 164 385 203 q 319 88 344 125 q 265 25 294 51 q 203 -1 235 -1 q 147 19 171 0 q 122 78 122 39 q 145 151 122 115 q 196 222 168 186 q 241 285 221 254 q 260 349 261 317 q 249 381 258 372 q 225 389 239 389 q 173 363 200 388 q 122 303 146 338 q 78 233 97 269 q 47 175 58 197 l -8 47 q -88 -139 -49 -46 q -169 -324 -128 -232 l -236 -324 q -171 -176 -203 -249 q -114 -49 -143 -114 q -64 65 -85 17 q 5 224 -29 144 q 75 382 39 303 l 140 382 q 89 268 113 329 q 120 316 103 293 q 156 358 138 339 q 192 388 174 376 q 231 399 211 399 q 290 369 271 399 q 307 304 308 340 q 288 240 306 271 q 247 181 271 210 q 194 110 219 144 q 169 44 168 76 q 206 7 172 10 q 261 34 233 7 q 314 98 289 61 q 359 172 339 135 q 390 231 379 210 l 397 226 z "},"q":{"ha":393,"x_min":-31,"x_max":407,"o":"m 407 221 q 372 160 392 190 q 328 104 353 129 q 274 63 304 79 q 207 46 244 47 q 256 -67 235 -7 q 276 -186 276 -126 q 271 -231 276 -207 q 253 -276 265 -256 q 224 -311 242 -297 q 181 -325 206 -325 q 148 -317 164 -325 q 119 -292 132 -310 q 99 -247 107 -275 q 93 -179 92 -219 q 102 -108 94 -146 q 120 -32 110 -71 q 144 44 131 7 q 169 114 157 81 q 113 35 144 69 q 46 0 82 0 q -12 30 6 0 q -31 96 -31 60 q -10 190 -31 138 q 42 288 10 242 q 118 367 75 335 q 207 399 161 399 q 251 378 239 399 q 263 332 264 358 l 283 382 l 350 382 q 321 319 338 356 q 285 240 304 283 q 247 149 267 197 q 210 54 228 101 q 274 73 244 57 q 326 113 303 89 q 367 167 349 138 q 400 225 386 196 l 407 221 m 90 26 q 128 67 110 42 q 162 121 146 93 q 191 175 178 149 q 213 221 204 201 l 246 294 q 252 322 250 306 q 252 352 254 338 q 242 377 250 367 q 217 388 233 388 q 169 368 193 388 q 124 317 146 349 q 82 249 101 286 q 48 174 63 211 q 25 103 33 136 q 17 51 17 71 q 28 19 18 28 q 51 10 38 10 q 90 26 74 13 m 267 -186 q 248 -72 267 -129 q 203 36 229 -14 q 179 -26 192 8 q 156 -99 167 -61 q 137 -172 144 -136 q 129 -236 129 -207 q 142 -294 129 -272 q 179 -315 156 -315 q 219 -303 203 -315 q 247 -270 236 -290 q 262 -228 257 -250 q 267 -186 267 -206 z "},"s":{"ha":349,"x_min":-56,"x_max":364,"o":"m 204 43 q 294 124 260 71 q 357 231 329 176 l 364 226 q 324 153 343 186 q 281 94 306 121 q 225 47 257 67 q 147 11 193 26 q 114 2 131 4 q 82 0 97 0 q 0 21 32 -1 q -44 74 -32 43 q -44 141 -56 106 q 4 203 -33 176 l -3 207 q 38 288 17 247 q 78 371 58 329 q 67 403 71 386 q 64 438 63 421 q 76 476 65 464 q 99 489 88 489 q 121 465 121 489 q 109 421 121 446 q 90 376 97 396 q 133 319 107 347 q 183 260 158 290 q 225 200 207 231 q 244 136 243 169 q 233 81 244 104 q 204 43 222 58 m 56 226 q 76 217 68 226 q 85 196 85 208 q 76 174 85 183 q 56 165 68 165 q 34 174 43 165 q 25 196 25 183 q 26 207 25 203 q -32 149 -17 183 q -39 84 -47 115 q 1 31 -31 53 q 82 10 32 8 q 162 47 139 11 q 183 135 185 83 q 172 194 183 165 q 144 250 160 222 q 112 305 129 278 q 82 360 94 332 q 43 281 63 319 q 4 203 24 243 q 28 217 11 207 q 56 226 44 226 m 85 386 q 102 426 92 403 q 113 465 113 449 q 99 481 113 481 q 82 470 90 481 q 72 439 74 460 q 74 412 71 425 q 85 386 78 399 z "},"t":{"ha":186,"x_min":-37,"x_max":254,"o":"m 178 472 q 143 403 163 442 q 104 322 124 364 q 66 238 85 281 q 32 158 47 196 q 8 90 17 119 q -1 43 -1 60 q 4 19 -1 31 q 25 8 10 8 q 74 36 49 8 q 124 101 100 64 q 166 174 147 138 q 194 231 185 211 l 201 226 q 171 166 190 204 q 127 91 151 128 q 75 27 103 54 q 19 0 47 0 q -24 19 -11 -1 q -37 68 -37 40 q -31 122 -37 92 q -6 197 -24 151 q 40 310 11 243 q 114 472 69 376 l 38 472 l 38 481 l 118 481 l 146 540 l 213 540 l 182 481 l 254 481 l 254 472 l 178 472 l 178 472 z "},"u":{"ha":397,"x_min":-28,"x_max":413,"o":"m 413 226 q 382 166 401 204 q 338 91 363 128 q 286 27 314 54 q 229 0 258 0 q 185 19 199 -1 q 172 68 172 40 q 176 103 172 85 q 186 146 179 122 q 156 94 172 119 q 123 47 140 68 q 86 13 106 26 q 46 0 67 0 q -10 27 8 0 q -28 96 -28 54 q -17 165 -28 128 q 10 242 -6 203 q 44 317 26 281 q 76 382 63 353 l 143 382 q 108 310 129 356 q 65 217 86 265 q 30 123 44 168 q 17 51 15 78 q 27 19 17 28 q 51 10 38 10 q 97 33 74 11 q 140 85 119 54 q 178 149 161 115 q 207 207 194 182 q 240 290 222 246 q 282 382 258 333 l 349 382 q 319 327 342 369 q 273 233 297 285 q 229 128 249 181 q 210 43 210 76 q 215 19 210 31 q 235 8 219 8 q 284 36 258 8 q 333 101 310 64 q 376 174 357 138 q 406 231 396 211 l 413 226 z "},"v":{"ha":315,"x_min":-24,"x_max":331,"o":"m 28 51 q 39 19 29 28 q 63 10 49 10 q 107 31 85 11 q 149 78 129 51 q 183 133 168 106 q 207 176 199 160 q 203 211 204 190 q 204 256 203 232 q 209 297 206 269 q 221 351 213 324 q 242 398 229 378 q 274 418 254 418 q 287 413 281 418 q 293 394 293 407 q 287 352 293 378 q 269 297 281 326 q 244 236 258 268 q 215 175 231 204 q 244 133 224 136 q 269 145 257 133 q 291 172 281 157 q 310 204 301 188 q 324 231 318 221 l 331 226 q 315 198 324 215 q 296 165 307 181 q 272 137 285 149 q 243 125 258 125 q 210 164 219 125 q 185 118 200 146 q 149 64 169 90 q 106 19 129 38 q 57 0 82 0 q 2 19 19 0 q -19 72 -15 39 q -16 144 -24 104 q 5 227 -8 185 q 35 310 18 269 q 65 381 51 350 l 132 381 q 92 292 111 339 q 59 201 74 246 q 36 117 44 157 q 28 51 28 78 m 213 190 q 264 306 243 250 q 285 390 285 363 q 282 403 285 397 q 272 411 279 410 q 237 368 253 411 q 214 256 221 325 q 211 218 211 235 q 213 190 211 201 z "},"w":{"ha":531,"x_min":-24,"x_max":546,"o":"m 546 226 q 531 198 540 215 q 511 165 522 181 q 486 137 500 149 q 458 125 472 125 q 424 164 436 125 q 399 118 414 146 q 363 64 383 90 q 320 19 343 38 q 272 0 297 0 q 227 11 244 0 q 202 42 210 22 q 194 88 194 61 q 199 144 193 114 q 172 99 188 124 q 139 52 157 74 q 100 15 121 31 q 57 0 79 0 q 2 19 19 0 q -19 72 -15 39 q -16 144 -24 104 q 5 227 -8 185 q 35 310 18 269 q 65 381 51 350 l 132 381 q 92 292 111 339 q 59 201 74 246 q 36 117 44 157 q 28 51 28 78 q 39 19 29 28 q 63 10 49 10 q 106 31 83 11 q 147 76 128 50 q 181 130 165 103 q 206 174 197 157 q 240 285 218 229 q 281 381 261 340 l 347 381 q 308 292 326 339 q 274 201 289 246 q 251 117 260 157 q 243 51 243 78 q 254 19 244 28 q 278 10 264 10 q 322 31 300 11 q 363 78 343 51 q 397 133 382 106 q 421 176 413 160 q 417 211 418 190 q 419 256 417 232 q 424 297 421 269 q 436 351 428 324 q 457 398 444 378 q 489 418 469 418 q 502 413 496 418 q 508 394 508 407 q 502 352 508 378 q 485 297 496 326 q 460 236 474 268 q 431 175 446 204 q 460 133 436 136 q 484 145 472 133 q 506 172 496 157 q 525 204 517 188 q 539 231 533 221 l 546 226 m 429 256 q 426 218 426 235 q 428 190 426 201 q 478 306 457 250 q 500 390 500 363 q 497 403 500 397 q 488 411 494 410 q 452 368 468 411 q 429 256 436 325 z "},"y":{"ha":397,"x_min":-253,"x_max":413,"o":"m 413 226 q 349 116 379 160 q 290 45 319 72 q 229 5 260 18 q 164 -17 199 -8 q 112 -119 140 -65 q 45 -218 83 -172 q -42 -294 7 -264 q -151 -324 -90 -324 q -221 -303 -193 -324 q -251 -244 -249 -283 q -242 -190 -253 -215 q -212 -143 -231 -164 q -169 -106 -193 -122 q -121 -79 -146 -89 q 2 -40 -53 -51 q 101 -21 57 -28 l 156 93 q 106 33 135 60 q 40 7 76 7 q -15 27 4 7 q -33 82 -33 47 q -7 196 -32 124 q 76 382 18 268 l 143 382 q 123 342 139 372 q 88 270 107 311 q 51 184 68 229 q 25 101 33 139 q 22 40 17 64 q 53 17 26 15 q 97 37 75 18 q 138 83 118 56 q 174 143 158 111 q 203 200 190 175 q 231 266 218 235 q 257 325 244 297 l 283 382 l 350 382 q 258 188 301 285 q 169 -7 215 90 q 229 15 200 1 q 287 56 258 29 q 344 124 315 82 q 406 231 374 167 l 413 226 m -167 -312 q -81 -281 -121 -312 q -8 -206 -42 -250 q 51 -114 25 -162 q 96 -29 78 -65 q -1 -49 51 -37 q -118 -86 -53 -60 q -165 -112 -142 -96 q -206 -148 -187 -128 q -234 -193 -224 -168 q -243 -244 -244 -218 q -217 -294 -240 -276 q -167 -312 -194 -312 z "},"x":{"ha":383,"x_min":-25,"x_max":399,"o":"m 399 226 q 368 166 388 204 q 324 91 349 128 q 271 27 299 54 q 215 0 243 0 q 160 35 174 0 q 147 122 146 71 q -21 -1 71 51 l -25 6 q 64 66 21 33 q 147 135 107 99 q 158 244 150 188 q 165 340 165 300 q 161 377 165 364 q 144 390 157 390 q 103 369 124 390 q 63 317 82 347 q 28 255 44 286 q 3 203 13 224 l -4 207 q 23 263 7 229 q 58 326 39 296 q 101 378 78 357 q 149 400 124 400 q 205 367 190 400 q 219 285 219 333 q 217 244 219 265 q 213 200 215 222 q 356 400 294 290 l 363 396 q 211 185 301 283 q 201 115 206 149 q 197 58 197 82 q 202 22 197 35 q 221 8 207 8 q 270 36 244 8 q 319 101 296 64 q 363 174 343 138 q 392 231 382 211 l 399 226 z "},"z":{"ha":399,"x_min":-49,"x_max":414,"o":"m 407 231 l 414 226 q 379 159 399 197 q 335 87 360 121 q 281 28 310 53 q 217 3 251 4 q 153 14 183 1 q 90 39 122 26 q 38 9 64 19 q -11 -1 13 -1 q -37 8 -26 -1 q -47 32 -49 17 q -31 60 -46 51 q 3 68 -15 68 q 38 65 21 68 q 71 56 56 61 q 134 127 101 85 q 197 215 167 169 q 254 306 228 261 q 300 385 281 351 q 258 382 283 383 q 203 381 232 381 q 147 387 175 382 q 97 401 118 392 q 51 301 75 350 q 3 203 28 251 l -4 207 q 44 305 21 256 q 90 404 67 354 q 69 425 75 414 q 63 447 63 436 q 73 476 63 464 q 96 489 83 489 q 113 482 107 489 q 118 464 118 475 q 113 435 118 450 q 100 408 107 419 q 149 394 121 399 q 208 390 178 390 q 264 390 238 389 q 306 393 290 392 q 333 395 321 394 q 354 396 344 396 l 375 396 q 372 389 375 396 q 363 374 368 382 q 354 358 358 365 q 350 351 350 351 q 297 269 326 313 q 235 185 267 226 q 168 108 203 144 q 99 46 133 71 q 158 22 129 33 q 217 11 186 11 q 277 36 249 13 q 329 94 306 60 q 372 165 353 128 q 407 231 392 203 m 64 49 q 3 60 33 60 q -24 53 -11 60 q -39 31 -37 46 q -31 14 -39 19 q -11 8 -22 8 q 24 19 6 8 q 64 49 43 29 m 93 413 q 104 439 99 425 q 110 465 110 453 q 96 481 110 481 q 77 469 83 481 q 71 447 71 458 q 93 413 71 426 z "},"c":{"ha":274,"x_min":-32,"x_max":289,"o":"m 282 231 l 289 226 q 243 141 267 182 q 193 68 219 100 q 136 17 167 36 q 69 -1 106 -1 q 23 8 44 -1 q -12 39 1 18 q -29 90 -26 60 q -19 163 -32 121 q 15 244 -7 203 q 67 321 38 286 q 133 377 97 356 q 207 399 169 399 q 242 387 231 399 q 254 358 253 375 q 249 320 256 340 q 232 283 242 300 l 201 296 q 230 324 219 308 q 242 353 240 339 q 238 378 244 368 q 217 388 231 388 q 165 365 192 388 q 115 306 139 342 q 72 228 92 271 q 38 146 51 185 q 23 81 24 107 q 29 38 22 54 q 49 15 36 22 q 78 8 63 8 q 144 33 113 8 q 201 91 175 57 q 247 163 226 125 q 282 231 267 201 z "},"A":{"ha":1100,"x_min":-1,"x_max":1378,"o":"m 1338 857 q 1363 854 1347 857 q 1378 838 1378 851 q 1365 819 1378 826 q 1333 806 1351 811 q 1299 797 1315 800 q 1274 792 1282 793 q 1211 786 1240 788 q 1171 785 1182 785 q 1072 712 1119 754 q 981 619 1025 669 q 894 511 936 568 q 813 396 853 454 q 882 346 853 376 q 917 464 897 407 q 962 567 938 521 q 1014 648 986 614 q 1074 696 1042 682 l 1078 689 q 1031 631 1054 671 q 988 539 1008 592 q 951 422 968 486 q 921 293 933 358 q 971 161 957 233 q 983 22 985 89 q 981 -17 983 10 q 973 -72 979 -44 q 955 -119 967 -99 q 925 -140 943 -140 q 882 -113 897 -140 q 858 -51 867 -86 q 848 20 850 -15 q 846 72 846 56 q 856 199 847 132 q 879 335 864 267 q 847 365 864 351 q 808 389 829 379 q 674 194 740 290 q 538 23 608 99 q 390 -98 467 -53 q 225 -139 314 -143 q 130 -121 172 -139 q 58 -72 88 -103 q 14 3 29 -40 q 0 96 -1 46 q 18 192 1 147 q 64 274 35 238 q 133 335 93 310 q 222 368 174 360 q 199 481 199 419 q 237 647 199 576 q 338 764 275 718 q 481 832 400 810 q 650 854 563 854 q 770 847 711 854 q 888 828 829 839 q 1004 808 946 818 q 1122 794 1063 797 q 1170 817 1143 806 q 1226 837 1197 828 q 1284 851 1256 846 q 1338 857 1313 857 m 753 414 q 917 626 831 526 q 1108 786 1003 725 q 994 800 1050 790 q 881 820 938 810 q 767 838 825 831 q 650 846 710 846 q 486 824 565 846 q 345 756 407 801 q 245 643 283 711 q 207 482 207 575 q 231 369 207 421 q 251 372 242 371 q 272 372 261 372 q 399 337 343 371 q 475 240 454 303 q 561 278 524 249 q 624 350 599 308 q 663 440 650 392 q 676 535 676 489 q 665 612 676 579 q 637 665 654 644 q 597 697 619 686 q 549 707 574 707 q 497 697 522 707 q 450 667 471 686 q 417 619 429 647 q 404 557 404 592 q 424 492 404 521 q 483 458 443 463 l 483 450 q 417 484 439 454 q 396 554 396 514 q 410 623 396 593 q 446 674 424 653 q 497 706 468 694 q 557 718 526 718 q 618 707 588 718 q 673 672 649 696 q 712 613 697 649 q 726 529 726 576 q 708 424 726 475 q 656 333 689 374 q 577 267 622 293 q 478 232 532 240 q 486 176 486 207 q 431 34 486 89 q 289 -21 376 -21 l 289 -11 q 352 5 325 -11 q 398 47 379 21 q 426 107 417 74 q 436 176 436 140 q 429 229 436 201 q 306 267 358 232 q 226 360 254 301 q 138 328 178 351 q 70 269 99 304 q 26 190 42 235 q 8 96 10 146 q 23 6 8 47 q 65 -66 38 -36 q 133 -113 93 -96 q 225 -131 174 -131 q 366 -79 300 -128 q 494 45 432 -31 q 619 216 557 121 q 747 407 681 311 l 718 410 l 718 418 q 753 414 736 418 m 919 281 q 896 128 904 201 q 888 -3 888 56 q 897 -97 888 -61 q 928 -131 907 -132 q 951 -112 942 -131 q 965 -68 960 -93 q 972 -18 969 -43 q 975 19 975 7 q 965 153 978 83 q 919 281 951 222 m 235 361 q 310 274 261 308 q 428 238 360 240 q 372 327 413 292 q 268 363 331 363 q 251 363 260 363 q 235 361 243 363 m 1271 800 q 1297 805 1281 801 q 1328 813 1313 808 q 1356 823 1344 817 q 1367 836 1367 829 q 1350 846 1367 846 q 1311 841 1333 846 q 1266 828 1289 836 q 1222 811 1243 821 q 1186 793 1200 801 q 1219 795 1194 793 q 1271 800 1243 797 z "},"B":{"ha":1157,"x_min":0,"x_max":1196,"o":"m 1007 790 q 895 660 943 742 q 803 479 847 578 q 849 556 824 517 q 901 626 874 594 q 960 676 929 657 q 1025 696 992 696 q 1076 684 1054 696 q 1112 653 1097 672 q 1134 608 1126 633 q 1142 556 1142 582 q 1128 475 1142 514 q 1092 403 1115 436 q 1035 346 1068 371 q 965 307 1003 321 q 1007 238 993 279 q 1022 151 1021 197 q 1004 44 1022 96 q 953 -49 986 -8 q 873 -117 919 -90 q 768 -144 826 -143 q 712 -137 739 -144 q 664 -115 685 -131 q 630 -75 643 -99 q 615 -19 617 -51 q 626 37 614 8 q 667 88 639 65 l 672 81 q 635 35 647 61 q 624 -17 624 10 q 660 -101 624 -69 q 749 -132 697 -133 q 844 -99 804 -132 q 912 -19 885 -67 q 952 83 939 28 q 965 183 965 138 q 959 248 965 218 q 939 300 953 278 q 911 294 925 296 q 882 292 897 293 q 842 301 854 292 q 829 324 829 311 q 842 347 829 339 q 868 356 854 356 q 910 346 888 356 q 947 324 932 336 q 1007 376 981 343 q 1052 449 1033 410 q 1081 528 1071 488 q 1089 601 1090 568 q 1083 644 1089 628 q 1067 670 1076 661 q 1047 683 1058 679 q 1026 688 1036 688 q 967 670 996 688 q 913 625 939 653 q 863 562 886 597 q 819 491 839 526 q 783 422 799 456 q 756 365 767 389 q 681 190 721 282 q 588 22 642 99 q 459 -103 533 -54 q 279 -153 385 -153 q 154 -132 207 -153 q 67 -76 101 -111 q 17 3 33 -42 q 0 93 0 47 q 13 176 0 135 q 50 252 25 217 q 112 314 75 288 q 196 354 149 340 q 142 444 160 392 q 129 554 125 496 q 174 705 136 640 q 268 811 211 769 q 397 872 325 853 q 547 885 469 890 q 653 869 601 881 q 758 845 706 858 q 863 819 810 832 q 969 801 915 807 q 1058 841 1010 828 q 1154 851 1106 854 q 1196 829 1196 847 q 1184 812 1196 818 q 1156 801 1172 806 q 1122 795 1140 797 q 1089 792 1103 793 q 1048 790 1068 790 q 1007 790 1028 790 m 1157 840 q 1085 831 1122 843 q 1019 799 1047 818 q 1049 799 1032 799 q 1086 800 1067 799 q 1113 802 1096 800 q 1145 807 1129 804 q 1173 815 1161 810 q 1185 828 1185 821 q 1176 838 1185 835 q 1157 840 1167 840 m 872 301 q 901 305 888 301 q 929 314 915 308 q 901 338 918 329 q 867 347 883 347 q 839 324 839 347 q 847 308 839 315 q 872 301 856 301 m 707 407 q 759 524 732 467 q 817 631 786 581 q 882 723 847 681 q 958 794 917 765 q 855 812 906 800 q 754 837 804 824 q 653 860 704 850 q 551 875 603 871 q 402 863 474 881 q 274 803 331 844 q 182 700 218 763 q 139 554 146 638 q 151 444 133 496 q 206 357 169 393 q 276 365 239 365 q 362 349 321 364 q 435 304 403 335 q 505 347 474 318 q 559 411 536 375 q 595 489 582 447 q 611 571 608 531 q 606 649 614 615 q 581 704 597 682 q 543 738 565 726 q 496 753 521 750 q 443 746 469 754 q 394 719 417 738 q 358 675 372 701 q 340 614 343 649 q 355 547 338 578 q 413 510 372 517 l 411 501 q 349 540 368 508 q 332 611 329 572 q 351 679 335 650 q 391 728 367 708 q 445 756 415 747 q 506 763 475 764 q 566 747 536 760 q 618 708 596 733 q 652 645 640 682 q 660 561 664 608 q 638 471 656 514 q 592 392 621 428 q 526 331 564 357 q 444 293 488 306 q 490 156 494 239 q 471 77 488 113 q 426 17 454 42 q 362 -19 399 -7 q 282 -29 325 -32 l 282 -19 q 347 -8 318 -22 q 395 32 375 7 q 426 90 415 57 q 440 158 438 122 q 435 227 443 194 q 408 286 426 260 q 381 283 394 283 q 353 283 368 283 q 269 303 307 286 q 203 347 232 319 q 119 309 156 335 q 58 249 83 283 q 22 174 33 214 q 10 93 10 135 q 25 7 10 49 q 72 -67 40 -35 q 150 -119 103 -99 q 263 -139 197 -139 q 380 -112 328 -139 q 474 -42 432 -86 q 551 59 517 3 q 612 176 585 115 q 663 297 639 238 q 707 407 686 357 m 213 350 q 275 311 240 326 q 351 293 310 296 q 378 292 365 292 q 403 296 390 293 q 343 340 379 326 q 267 356 307 354 q 213 350 236 356 z "},"C":{"ha":1157,"x_min":-1,"x_max":1174,"o":"m 565 58 q 581 178 565 114 q 626 308 597 243 q 697 435 656 374 q 786 547 738 497 l 782 550 q 717 603 751 576 q 641 653 682 631 q 551 689 600 675 q 442 703 501 703 q 256 665 336 703 q 120 567 175 626 q 37 433 65 507 q 8 288 8 358 q 24 188 8 235 q 68 106 39 142 q 140 50 97 71 q 238 29 183 29 q 347 60 299 29 q 429 140 396 92 q 480 247 463 188 q 497 360 497 306 q 487 422 497 396 q 460 466 476 449 q 422 492 443 483 q 378 500 400 500 q 317 488 343 500 q 275 455 292 475 q 250 410 258 435 q 242 361 242 385 q 265 294 242 322 q 335 267 288 265 l 336 258 q 259 288 285 257 q 232 361 233 319 q 241 414 232 388 q 269 462 250 440 q 317 497 288 483 q 385 511 346 511 q 442 500 414 511 q 493 467 471 489 q 529 410 515 444 q 543 329 543 376 q 522 213 543 269 q 461 114 500 157 q 370 44 422 71 q 256 18 318 18 q 146 38 194 17 q 65 96 97 58 q 15 185 32 133 q 0 297 -1 236 q 31 443 1 369 q 117 576 61 517 q 253 674 172 636 q 442 711 335 711 q 553 697 503 711 q 644 661 603 683 q 721 611 686 639 q 788 557 756 583 l 792 554 q 922 654 854 617 q 1061 692 990 692 q 1141 664 1110 692 q 1174 585 1172 636 q 1163 521 1174 554 q 1131 460 1151 488 q 1081 414 1110 432 q 1019 396 1053 396 q 964 410 988 394 q 935 458 940 426 q 878 478 906 463 q 822 518 850 494 q 740 398 778 464 q 674 265 701 332 q 630 133 646 197 q 615 15 614 68 q 648 -90 618 -50 q 749 -132 678 -131 q 833 -117 790 -132 q 813 -4 813 -65 q 822 76 813 29 q 849 164 831 122 q 897 235 868 206 q 968 264 926 264 q 1024 236 1004 264 q 1042 169 1043 208 q 1025 83 1040 126 q 983 -1 1010 39 q 922 -72 957 -40 q 844 -122 886 -104 q 898 -185 864 -161 q 985 -210 932 -208 l 985 -218 q 892 -192 928 -218 q 836 -125 856 -165 q 794 -138 815 -133 q 749 -143 772 -143 q 613 -85 658 -142 q 565 58 567 -28 m 933 467 l 933 471 q 952 536 932 507 q 1004 565 972 565 q 1033 555 1021 565 q 1046 526 1044 544 q 1037 497 1046 510 q 1015 475 1028 483 q 985 462 1001 467 q 953 457 968 457 l 943 457 q 970 417 950 431 q 1018 404 990 404 q 1077 422 1050 404 q 1124 465 1104 439 q 1154 524 1143 492 q 1165 585 1165 556 q 1139 655 1164 628 q 1071 682 1114 682 q 949 638 1011 682 q 828 524 886 594 q 881 488 856 503 q 933 467 906 472 m 840 -112 q 915 -65 881 -96 q 976 3 950 -35 q 1017 85 1001 42 q 1033 169 1032 128 q 1017 230 1033 204 q 969 256 1001 256 q 901 227 929 256 q 856 158 874 199 q 830 72 839 117 q 821 -4 821 28 q 840 -112 821 -62 m 942 467 q 953 465 946 465 q 982 469 967 465 q 1009 481 997 474 q 1028 500 1021 489 q 1036 526 1036 511 q 1027 548 1036 539 q 1004 557 1018 557 q 978 549 990 557 q 958 528 967 540 q 946 502 950 517 q 942 475 942 488 l 942 467 z "},"D":{"ha":1246,"x_min":0,"x_max":1196,"o":"m 1007 790 q 897 662 944 743 q 806 483 849 581 q 851 560 826 522 q 904 629 876 599 q 964 678 932 660 q 1031 697 996 697 q 1104 678 1074 697 q 1154 626 1135 658 q 1182 549 1174 593 q 1189 453 1190 504 q 1172 323 1188 392 q 1131 188 1157 254 q 1067 63 1104 122 q 985 -43 1031 3 q 885 -116 939 -89 q 771 -143 831 -143 q 659 -112 701 -144 q 615 -19 617 -81 q 626 37 614 8 q 667 88 639 65 l 672 81 q 635 35 647 61 q 624 -17 624 10 q 656 -98 624 -65 q 751 -132 689 -131 q 853 -103 804 -133 q 945 -24 903 -74 q 1022 90 988 25 q 1082 226 1057 156 q 1120 367 1107 297 q 1135 499 1133 438 q 1131 575 1136 540 q 1112 635 1125 610 q 1078 674 1099 660 q 1031 688 1058 688 q 940 651 982 688 q 863 563 899 614 q 801 458 828 513 q 756 365 774 403 q 681 190 721 282 q 588 22 642 99 q 459 -103 533 -54 q 279 -153 385 -153 q 154 -132 207 -153 q 67 -76 101 -111 q 17 3 33 -42 q 0 93 0 47 q 13 176 0 135 q 50 252 25 217 q 112 314 75 288 q 196 354 149 340 q 142 444 160 392 q 129 554 125 496 q 174 705 136 640 q 268 811 211 769 q 397 872 325 853 q 547 885 469 890 q 653 869 601 881 q 758 845 706 858 q 863 819 810 832 q 969 801 915 807 q 1058 841 1010 828 q 1154 851 1106 854 q 1196 829 1196 847 q 1184 812 1196 818 q 1156 801 1172 806 q 1122 795 1140 797 q 1089 792 1103 793 q 1048 790 1068 790 q 1007 790 1028 790 m 1157 840 q 1085 831 1122 843 q 1019 799 1047 818 q 1049 799 1032 799 q 1086 800 1067 799 q 1113 802 1096 800 q 1145 807 1129 804 q 1173 815 1161 810 q 1185 828 1185 821 q 1176 838 1185 835 q 1157 840 1167 840 m 707 407 q 759 524 732 467 q 817 631 786 581 q 882 723 847 681 q 958 794 917 765 q 855 812 906 800 q 754 837 804 824 q 653 860 704 850 q 551 875 603 871 q 402 863 474 881 q 274 803 331 844 q 182 700 218 763 q 139 554 146 638 q 151 444 133 496 q 206 357 169 393 q 276 365 239 365 q 362 349 321 364 q 435 304 403 335 q 505 347 474 318 q 558 411 536 375 q 594 489 581 447 q 611 571 608 531 q 606 649 614 615 q 581 704 597 682 q 543 738 565 726 q 496 753 521 750 q 443 746 469 754 q 394 719 417 738 q 358 675 372 701 q 340 614 343 649 q 355 547 338 578 q 413 510 372 517 l 411 501 q 349 540 368 508 q 332 611 329 572 q 351 679 335 650 q 391 728 367 708 q 445 756 415 747 q 506 763 475 764 q 566 747 536 760 q 618 708 596 733 q 652 645 640 682 q 660 561 664 608 q 638 471 656 514 q 592 392 621 428 q 526 331 564 357 q 444 293 488 306 q 490 156 494 239 q 471 77 488 113 q 426 17 454 42 q 362 -19 399 -7 q 282 -29 325 -32 l 282 -19 q 347 -8 318 -22 q 395 32 375 7 q 426 90 415 57 q 440 158 438 122 q 435 227 443 194 q 408 286 426 260 q 381 283 394 283 q 353 283 367 283 q 269 303 307 286 q 203 347 231 319 q 119 309 156 335 q 58 249 83 283 q 22 174 33 214 q 10 93 10 135 q 25 7 10 49 q 72 -67 40 -35 q 150 -119 103 -99 q 263 -139 197 -139 q 380 -112 328 -139 q 474 -42 432 -86 q 551 59 517 3 q 612 176 585 115 q 663 297 639 238 q 707 407 686 357 m 213 350 q 275 311 240 326 q 351 293 310 296 q 378 292 365 292 q 403 296 390 293 q 342 340 379 326 q 265 356 306 354 q 240 354 253 356 q 213 350 226 353 z "},"E":{"ha":1157,"x_min":-3,"x_max":1181,"o":"m 769 567 q 708 617 740 592 q 637 662 675 642 q 553 695 599 682 q 453 710 507 708 q 264 676 346 713 q 126 582 182 640 q 40 451 69 524 q 8 307 10 378 q 21 207 7 254 q 63 124 35 160 q 134 65 92 88 q 232 42 176 43 q 342 70 293 40 q 425 148 390 100 q 478 253 460 196 q 499 365 497 311 q 490 429 500 403 q 465 474 481 456 q 427 501 449 492 q 383 510 406 510 q 322 498 349 510 q 278 466 296 486 q 252 422 261 446 q 243 374 243 397 q 265 306 243 335 q 335 278 288 278 l 335 269 q 258 301 283 269 q 235 375 233 332 q 244 427 235 401 q 274 474 254 453 q 322 508 293 494 q 390 519 351 521 q 447 508 419 519 q 497 473 475 496 q 532 416 519 450 q 543 335 544 382 q 519 219 542 275 q 456 122 496 164 q 364 54 417 79 q 249 31 311 29 q 140 54 188 32 q 60 115 92 76 q 13 204 28 153 q 0 315 -3 256 q 35 460 4 388 q 124 592 67 533 q 264 685 182 650 q 453 718 346 721 q 555 703 508 717 q 640 670 601 690 q 713 624 679 650 q 775 574 746 599 q 891 658 824 629 q 1032 685 958 688 q 1090 674 1063 683 q 1138 648 1117 665 q 1169 606 1158 631 q 1181 549 1181 581 q 1168 489 1181 518 q 1134 438 1156 460 q 1084 401 1113 415 q 1022 388 1056 388 q 967 405 990 389 q 939 453 943 421 q 872 483 903 460 q 813 529 840 506 q 775 457 788 493 q 763 389 763 421 q 772 336 761 361 q 812 344 792 342 q 851 346 832 347 q 890 335 875 343 q 904 311 904 326 q 890 291 903 300 q 854 282 878 282 q 807 290 831 282 q 764 311 783 297 q 701 259 729 292 q 651 187 672 226 q 619 105 631 147 q 607 22 607 63 q 616 -45 606 -17 q 645 -92 626 -74 q 688 -121 664 -111 q 740 -132 713 -131 q 822 -118 779 -133 q 806 -6 803 -68 q 817 74 807 28 q 846 160 826 119 q 895 230 865 201 q 967 258 925 258 q 1022 229 1004 257 q 1039 161 1040 201 q 1019 75 1036 118 q 976 -7 1003 32 q 912 -76 949 -46 q 833 -125 875 -107 q 885 -189 851 -164 q 972 -217 918 -214 l 972 -225 q 879 -196 914 -222 q 826 -128 844 -169 q 782 -140 804 -136 q 736 -143 760 -143 q 665 -129 699 -142 q 604 -92 631 -117 q 563 -33 578 -68 q 549 49 547 3 q 564 133 550 90 q 603 213 578 175 q 665 281 629 250 q 746 328 701 311 q 721 369 731 346 q 711 421 711 392 q 769 567 708 496 m 817 536 q 873 491 843 513 q 938 463 903 469 l 938 465 q 959 530 939 501 q 1011 558 979 558 q 1040 547 1028 558 q 1051 518 1051 536 q 1042 489 1051 501 q 1019 468 1033 476 q 989 456 1006 460 q 957 451 972 451 l 947 451 q 973 411 953 425 q 1021 397 993 397 q 1080 408 1053 396 q 1128 442 1107 421 q 1160 492 1149 464 q 1172 549 1172 519 q 1135 638 1172 606 q 1044 671 1097 669 q 977 661 1010 672 q 915 631 944 650 q 861 588 886 613 q 817 536 836 563 m 831 -115 q 906 -69 871 -99 q 969 -3 942 -40 q 1012 77 996 35 q 1031 163 1028 119 q 1016 222 1032 196 q 968 249 1000 249 q 899 222 928 250 q 852 154 871 194 q 824 70 833 114 q 814 -6 815 26 q 831 -115 811 -65 m 947 461 q 958 460 950 460 q 1014 474 986 458 q 1043 518 1042 489 q 1034 541 1043 532 q 1011 550 1025 550 q 965 522 982 550 q 947 469 947 494 l 947 461 m 782 321 q 853 289 806 292 q 883 296 872 289 q 893 311 893 303 q 884 328 894 319 q 851 336 874 336 q 782 321 815 336 z "},"F":{"ha":868,"x_min":0,"x_max":1365,"o":"m 1365 938 q 1319 844 1353 881 q 1241 785 1286 807 q 1144 752 1196 763 q 1040 739 1092 742 q 980 736 1010 736 q 918 736 950 736 q 847 615 876 688 q 779 439 818 543 l 818 431 q 842 453 829 446 q 867 461 856 461 q 889 443 889 461 q 878 426 889 433 q 844 419 868 419 q 833 419 839 419 q 822 421 828 419 q 803 376 808 399 q 799 326 799 353 l 790 326 q 795 376 790 351 q 813 424 800 400 q 795 427 804 425 q 776 431 786 429 l 736 328 q 666 164 704 249 q 575 9 628 79 q 449 -107 522 -61 q 275 -153 376 -153 q 151 -131 203 -153 q 65 -73 99 -108 q 16 8 32 -37 q 0 99 0 53 q 15 188 0 146 q 55 263 29 229 q 116 320 81 296 q 193 356 151 344 q 146 499 149 419 q 165 608 144 554 q 226 706 186 663 q 328 776 267 749 q 468 804 389 803 q 609 795 539 806 q 750 774 679 785 q 892 754 821 763 q 1039 750 964 746 q 1140 763 1089 753 q 1234 793 1190 772 q 1310 849 1278 814 q 1354 939 1342 885 l 1365 938 m 714 429 q 769 547 744 499 q 815 631 793 596 q 859 690 838 665 q 904 736 881 715 q 687 747 796 739 q 469 754 578 756 q 331 732 390 753 q 234 677 272 711 q 177 597 196 643 q 158 501 158 551 q 171 426 158 463 q 208 358 183 389 q 240 363 224 361 q 274 365 256 365 q 364 347 322 364 q 436 299 406 331 q 492 333 468 311 q 531 382 515 356 q 554 438 547 408 q 561 494 561 467 q 540 563 558 535 q 481 593 521 590 l 481 604 q 569 566 536 604 q 606 475 603 528 q 597 413 606 444 q 570 353 589 382 q 524 303 551 325 q 458 271 496 282 q 488 156 490 222 q 467 77 485 113 q 422 17 450 42 q 358 -19 394 -7 q 278 -29 321 -32 l 279 -19 q 344 -8 315 -22 q 392 32 372 7 q 423 90 411 57 q 438 158 435 122 q 419 263 440 218 q 405 261 413 261 q 390 261 397 261 q 278 285 325 261 q 199 349 231 308 q 122 315 157 338 q 63 258 88 292 q 24 185 38 225 q 10 99 10 144 q 25 12 10 54 q 71 -64 40 -31 q 148 -118 101 -97 q 260 -139 194 -139 q 370 -116 321 -139 q 460 -54 419 -93 q 532 35 500 -15 q 591 141 564 86 q 640 251 618 196 q 681 353 661 306 q 694 383 688 368 q 706 414 700 399 q 669 367 688 399 q 635 281 651 336 l 626 283 q 668 383 646 350 q 714 429 690 417 m 214 351 q 276 304 240 322 q 358 286 313 286 q 403 290 382 286 q 344 337 379 319 q 263 356 310 354 q 214 351 236 356 m 867 453 q 848 447 858 453 q 828 429 838 442 q 844 428 833 428 q 872 433 864 428 q 879 443 879 438 q 867 453 879 453 z "},"G":{"ha":1136,"x_min":0,"x_max":1197,"o":"m 1154 567 q 1197 579 1175 581 l 1197 571 q 1154 527 1176 568 q 1105 421 1132 486 q 1045 272 1078 356 q 972 104 1013 189 q 901 -39 940 36 q 811 -177 863 -114 q 693 -282 760 -240 q 540 -324 626 -324 q 438 -307 482 -324 q 365 -262 394 -290 q 321 -198 336 -235 q 304 -122 306 -161 q 318 -37 303 -79 q 363 40 333 6 q 438 94 393 74 q 542 115 483 115 q 599 106 571 115 q 651 77 628 96 q 688 30 674 58 q 703 -36 703 1 q 693 -98 703 -68 q 665 -151 683 -128 q 620 -190 647 -175 q 560 -204 593 -204 l 560 -196 q 615 -183 590 -196 q 658 -147 640 -169 q 685 -97 675 -125 q 694 -40 694 -69 q 682 22 694 -6 q 649 67 669 49 q 602 95 628 86 q 550 104 576 104 q 464 83 501 104 q 401 29 426 63 q 363 -47 376 -4 q 351 -131 350 -89 q 363 -199 351 -167 q 397 -258 375 -232 q 451 -299 418 -283 q 528 -314 483 -314 q 664 -267 603 -314 q 773 -151 725 -219 q 856 -6 821 -82 q 918 128 892 71 q 1013 341 968 239 q 1100 507 1057 443 q 1021 399 1061 463 q 937 279 981 336 q 846 181 893 222 q 744 140 799 140 q 643 190 683 140 q 604 322 603 239 q 631 462 606 390 q 699 599 656 533 q 632 647 667 622 q 559 692 597 671 q 479 726 521 713 q 392 740 438 739 q 245 715 314 742 q 124 641 176 689 q 41 527 72 593 q 8 382 10 461 q 22 284 8 329 q 65 206 36 239 q 135 153 93 172 q 231 133 176 133 q 325 156 286 133 q 389 215 364 178 q 426 298 414 251 q 440 394 439 344 q 431 467 440 436 q 405 516 421 497 q 368 544 389 535 q 326 553 347 553 q 281 542 301 553 q 247 514 261 531 q 226 476 233 497 q 218 435 218 456 q 239 376 218 401 q 304 350 260 350 l 304 342 q 233 370 256 342 q 208 435 210 399 q 217 481 208 457 q 242 523 225 504 q 285 554 260 542 q 344 567 311 567 q 398 557 371 567 q 446 526 425 547 q 479 473 467 506 q 490 394 492 440 q 469 294 489 342 q 416 209 450 246 q 337 149 382 172 q 238 125 292 126 q 136 142 181 124 q 61 196 92 161 q 15 278 31 231 q 0 382 0 326 q 33 531 1 463 q 118 647 65 599 q 242 723 171 696 q 392 749 313 750 q 481 734 439 747 q 563 700 524 721 q 637 654 601 679 q 704 606 672 629 q 768 681 733 646 q 844 742 803 717 q 929 783 885 768 q 1022 797 974 797 q 1099 774 1068 797 q 1128 701 1129 751 q 1109 622 1128 664 q 1061 545 1090 581 q 994 487 1032 510 q 917 464 956 464 q 844 521 853 464 q 797 535 821 524 q 749 564 774 547 q 674 403 701 485 q 650 258 647 321 q 681 176 653 203 q 747 150 708 149 q 825 176 788 150 q 897 243 863 203 q 965 333 932 283 q 1030 428 999 382 q 1092 511 1061 474 q 1154 567 1124 549 m 1035 786 q 956 769 994 786 q 882 722 918 751 q 813 654 846 693 q 753 571 781 615 q 799 544 776 556 q 844 529 822 532 l 844 536 q 849 565 844 550 q 863 593 854 581 q 883 613 871 606 q 913 621 896 621 q 938 608 929 619 q 943 582 946 597 q 915 535 940 551 q 861 519 889 519 l 854 519 q 917 472 863 472 q 990 494 954 472 q 1055 550 1026 517 q 1101 624 1083 583 q 1119 700 1118 664 q 1099 764 1122 742 q 1035 786 1075 786 m 853 528 l 861 528 q 909 542 886 529 q 935 582 932 556 q 931 602 936 593 q 913 611 925 611 q 888 604 899 611 q 869 586 876 597 q 857 562 861 575 q 853 536 853 549 l 853 528 z "},"H":{"ha":1157,"x_min":0,"x_max":1633,"o":"m 999 278 q 1063 431 1025 353 q 1146 580 1100 508 q 1247 714 1192 651 q 1364 823 1303 776 q 1493 894 1425 869 q 1633 917 1561 919 l 1633 908 q 1506 874 1568 906 q 1388 791 1444 843 q 1278 672 1331 739 q 1182 528 1226 604 q 1101 374 1138 453 q 1039 219 1065 294 q 1085 111 1069 169 q 1100 -6 1100 53 q 1097 -49 1100 -25 q 1085 -93 1093 -72 q 1061 -129 1076 -114 q 1022 -144 1046 -144 q 978 -129 994 -144 q 954 -91 963 -114 q 943 -42 946 -68 q 940 4 940 -17 q 956 126 942 58 q 994 268 969 193 q 894 353 953 321 q 764 392 836 386 l 763 390 q 714 272 739 333 q 660 150 689 210 q 594 37 631 90 q 513 -58 558 -17 q 409 -123 467 -99 q 279 -147 351 -147 q 154 -126 207 -147 q 67 -71 101 -106 q 17 8 33 -36 q 0 97 0 51 q 13 181 0 139 q 50 258 25 222 q 112 319 75 293 q 196 360 149 346 q 142 449 160 397 q 129 560 125 500 q 174 710 136 646 q 268 815 211 774 q 397 876 325 857 q 547 889 469 894 q 653 874 601 885 q 758 849 706 863 q 863 824 810 836 q 969 807 915 813 q 1058 847 1010 833 q 1154 857 1106 860 q 1196 835 1196 853 q 1184 817 1196 824 q 1156 807 1172 811 q 1122 801 1140 803 q 1089 797 1103 799 q 1048 794 1068 794 q 1007 796 1028 794 q 935 724 968 767 q 874 630 903 682 q 819 519 846 578 q 767 400 793 461 q 897 362 839 394 q 999 278 956 329 m 263 -135 q 380 -108 328 -135 q 474 -37 432 -82 q 551 64 517 7 q 612 182 585 121 q 663 303 639 243 q 707 413 686 363 q 759 528 732 471 q 817 635 786 585 q 882 728 847 686 q 958 800 917 771 q 855 817 906 806 q 754 842 804 829 q 653 865 704 854 q 551 881 603 876 q 402 867 474 886 q 274 808 331 849 q 182 704 218 767 q 139 560 146 642 q 151 450 133 501 q 206 363 169 399 q 276 369 242 371 q 362 353 321 368 q 435 308 403 339 q 505 351 474 322 q 558 416 536 379 q 594 494 581 453 q 611 576 608 536 q 606 653 614 619 q 581 709 597 686 q 543 744 565 732 q 496 757 521 756 q 443 750 469 758 q 394 724 417 742 q 358 681 372 707 q 340 619 343 654 q 355 552 338 582 q 413 515 372 522 l 411 507 q 349 545 368 514 q 332 617 329 576 q 351 685 335 656 q 391 733 367 714 q 445 760 415 751 q 506 768 475 769 q 566 752 536 765 q 618 713 596 739 q 652 651 640 688 q 660 567 664 614 q 638 476 656 519 q 592 398 621 433 q 526 337 564 363 q 444 299 488 311 q 490 161 494 244 q 471 83 488 118 q 426 23 454 47 q 362 -14 399 -1 q 282 -24 325 -26 l 282 -15 q 347 -3 318 -18 q 395 37 375 11 q 426 95 415 63 q 440 164 438 128 q 408 292 444 236 q 353 289 378 288 q 269 308 307 292 q 203 353 231 325 q 119 315 156 340 q 58 254 83 289 q 22 179 33 219 q 10 97 10 139 q 25 13 10 54 q 72 -62 40 -29 q 150 -115 103 -94 q 263 -135 197 -135 m 1090 -4 q 1035 208 1090 110 q 992 56 1007 125 q 976 -62 976 -14 q 978 -87 976 -74 q 983 -111 979 -100 q 997 -129 988 -122 q 1021 -136 1006 -136 q 1056 -122 1043 -136 q 1077 -86 1069 -107 q 1088 -42 1085 -65 q 1090 -4 1090 -19 m 213 354 q 351 297 268 306 q 403 300 375 296 q 342 345 379 331 q 265 360 306 360 q 240 359 253 361 q 213 354 226 357 m 1157 846 q 1085 836 1122 849 q 1019 804 1047 824 q 1049 804 1032 804 q 1086 806 1067 804 q 1113 808 1096 806 q 1145 813 1129 810 q 1173 821 1161 815 q 1185 833 1185 826 q 1176 842 1185 840 q 1157 846 1167 844 z "},"I":{"ha":817,"x_min":0,"x_max":1196,"o":"m 196 360 q 142 449 160 397 q 129 560 125 500 q 174 710 136 646 q 268 815 211 774 q 397 876 325 857 q 547 889 469 894 q 653 874 601 885 q 758 849 706 863 q 863 824 810 836 q 969 807 915 813 q 1058 847 1010 833 q 1154 857 1106 860 q 1196 835 1196 853 q 1184 817 1196 824 q 1156 807 1172 811 q 1122 801 1140 803 q 1089 797 1103 799 q 1048 794 1068 794 q 1007 796 1028 794 q 935 722 968 767 q 872 625 901 678 q 815 513 842 572 q 763 390 789 453 q 714 272 739 333 q 660 150 689 210 q 594 37 631 90 q 513 -58 558 -17 q 409 -123 467 -99 q 279 -147 351 -147 q 154 -126 207 -147 q 67 -71 101 -106 q 17 8 33 -36 q 0 97 0 51 q 13 181 0 139 q 50 258 25 222 q 112 319 75 293 q 196 360 149 346 m 490 161 q 471 83 488 118 q 426 23 454 47 q 362 -14 399 -1 q 282 -24 325 -26 l 282 -15 q 347 -3 318 -18 q 395 37 375 11 q 426 95 415 63 q 440 164 438 128 q 408 292 444 236 q 381 288 394 289 q 353 289 368 288 q 269 308 307 292 q 203 353 232 325 q 119 315 156 340 q 58 254 83 289 q 22 179 33 219 q 10 97 10 139 q 25 13 10 54 q 72 -62 40 -29 q 150 -115 103 -94 q 263 -135 197 -135 q 380 -108 328 -135 q 474 -37 432 -82 q 551 64 517 7 q 612 182 585 121 q 663 303 639 243 q 707 413 686 363 q 759 528 732 471 q 817 635 786 585 q 882 728 847 686 q 958 800 917 771 q 855 817 906 806 q 754 842 804 829 q 653 865 704 854 q 551 881 603 876 q 402 867 474 886 q 274 808 331 849 q 182 704 218 767 q 139 560 146 642 q 151 450 133 501 q 206 363 169 399 q 276 369 242 371 q 362 353 321 368 q 435 308 403 339 q 505 351 474 322 q 558 416 536 379 q 594 494 581 453 q 611 576 608 536 q 606 653 614 619 q 581 709 597 686 q 543 744 565 732 q 496 757 521 756 q 443 750 469 758 q 394 724 417 742 q 358 681 372 707 q 340 619 343 654 q 355 552 338 582 q 413 515 372 522 l 411 507 q 349 545 368 514 q 332 617 329 576 q 351 685 335 656 q 391 733 367 714 q 445 760 415 751 q 506 768 475 769 q 566 752 536 765 q 618 713 596 739 q 652 651 640 688 q 660 567 664 614 q 638 476 656 519 q 592 398 621 433 q 526 337 564 363 q 444 299 488 311 q 490 161 494 244 m 403 300 q 343 345 379 331 q 267 360 307 360 q 240 359 253 361 q 213 354 226 357 q 351 297 268 306 q 403 300 375 296 m 1019 804 q 1049 804 1032 804 q 1086 806 1067 804 q 1113 808 1096 806 q 1145 813 1129 810 q 1173 821 1161 815 q 1185 833 1185 826 q 1176 842 1185 840 q 1157 846 1167 844 q 1085 836 1122 849 q 1019 804 1047 824 z "},"J":{"ha":822,"x_min":-1,"x_max":1103,"o":"m 1051 711 q 1017 705 1035 707 q 981 701 1000 703 q 902 624 938 672 q 836 513 867 575 q 777 380 806 451 q 721 235 749 308 q 637 32 681 132 q 537 -147 593 -68 q 408 -274 481 -225 q 236 -324 335 -324 q 133 -307 176 -324 q 60 -262 89 -290 q 16 -198 31 -235 q 0 -122 1 -161 q 8 -55 -1 -89 q 35 8 17 -21 q 80 61 53 38 q 143 99 107 85 q 88 197 106 140 q 74 318 71 254 q 133 503 79 426 q 268 627 188 579 q 447 697 349 675 q 642 719 546 719 q 796 714 719 719 q 949 710 872 708 q 1013 738 979 728 q 1081 747 1046 747 q 1094 746 1086 747 q 1103 738 1103 744 q 1096 728 1103 733 q 1081 720 1089 724 q 1064 715 1072 717 q 1051 711 1056 713 m 151 101 q 192 112 171 108 q 238 115 214 115 q 314 98 276 115 q 375 46 351 81 q 459 94 422 61 q 521 169 496 126 q 560 260 546 211 q 574 358 574 310 q 561 433 574 401 q 529 487 549 465 q 484 519 510 508 q 432 529 458 529 q 335 496 379 529 q 285 401 290 463 q 286 363 282 382 q 300 328 290 343 q 326 303 310 313 q 363 292 342 293 l 363 282 q 293 323 315 288 q 275 401 271 358 q 293 460 279 435 q 329 502 307 485 q 378 528 351 519 q 433 539 404 538 q 501 528 468 540 q 561 492 535 517 q 604 428 588 467 q 621 336 621 390 q 603 231 621 281 q 553 140 585 181 q 478 72 522 100 q 383 32 435 43 q 399 -36 399 1 q 389 -98 399 -68 q 360 -151 379 -128 q 315 -190 342 -175 q 256 -204 289 -204 l 256 -196 q 310 -183 286 -196 q 352 -147 335 -169 q 379 -97 369 -125 q 390 -40 389 -69 q 374 29 390 0 q 314 24 347 24 q 227 39 265 24 q 158 82 189 54 q 74 -7 103 53 q 47 -131 44 -67 q 58 -199 47 -167 q 92 -258 69 -232 q 147 -299 114 -283 q 224 -314 179 -314 q 328 -291 281 -314 q 415 -228 375 -268 q 488 -132 454 -187 q 551 -13 521 -76 q 608 119 581 50 q 664 258 636 189 q 721 393 692 326 q 783 518 750 460 q 853 623 815 576 q 936 700 890 669 q 789 706 861 701 q 642 711 717 711 q 451 690 547 711 q 274 621 354 668 q 142 499 194 574 q 83 317 89 424 q 97 199 79 256 q 151 101 115 142 m 365 43 q 312 89 344 74 q 246 104 279 104 q 167 86 206 104 q 229 49 194 63 q 307 36 264 35 q 365 43 335 36 m 1082 738 q 997 711 1033 733 q 1024 715 1011 714 q 1050 719 1036 717 q 1058 722 1051 719 q 1072 726 1064 724 q 1085 731 1079 729 q 1090 736 1090 733 q 1082 738 1090 738 z "},"K":{"ha":1082,"x_min":0,"x_max":1614,"o":"m 758 379 q 866 381 815 364 q 963 437 917 399 q 1055 528 1010 475 q 1147 636 1100 581 q 1243 744 1193 692 q 1349 834 1293 796 q 1471 889 1406 872 q 1614 890 1536 906 l 1613 881 q 1464 851 1532 888 q 1335 756 1396 815 q 1218 626 1275 697 q 1103 495 1161 556 q 981 394 1044 435 q 843 354 917 353 q 893 292 878 332 q 913 202 908 253 q 913 93 917 151 q 908 -22 910 35 q 913 -131 907 -79 q 939 -224 918 -183 q 1001 -287 960 -264 q 1113 -311 1043 -311 l 1113 -319 q 972 -292 1024 -319 q 892 -221 919 -265 q 856 -119 864 -176 q 848 -1 847 -62 q 853 120 849 60 q 856 231 858 181 q 838 316 853 281 q 783 363 822 351 q 781 363 782 363 q 779 364 781 364 q 766 366 772 365 q 753 367 760 367 q 705 251 729 311 q 651 134 681 192 q 587 26 622 76 q 506 -64 551 -25 q 405 -125 461 -103 q 279 -147 349 -147 q 154 -126 207 -147 q 67 -71 101 -106 q 17 8 33 -36 q 0 97 0 51 q 13 181 0 139 q 50 258 25 222 q 112 319 75 293 q 196 360 149 346 q 142 449 160 397 q 129 560 125 500 q 174 710 136 646 q 268 815 211 774 q 397 876 325 857 q 547 889 469 894 q 653 874 601 885 q 758 849 706 863 q 863 824 810 836 q 969 807 915 813 q 1058 847 1010 833 q 1154 857 1106 860 q 1196 835 1196 853 q 1184 817 1196 824 q 1156 807 1172 811 q 1122 801 1140 803 q 1089 797 1103 799 q 1048 794 1068 794 q 1007 796 1028 794 q 935 722 968 767 q 872 625 901 678 q 815 513 842 572 q 763 390 789 453 l 758 379 m 263 -135 q 380 -108 328 -135 q 474 -37 432 -82 q 551 64 517 7 q 612 182 585 121 q 663 303 639 243 q 707 413 686 363 q 759 528 732 471 q 817 635 786 585 q 882 728 847 686 q 958 800 917 771 q 855 817 906 806 q 754 842 804 829 q 653 865 704 854 q 551 881 603 876 q 402 867 474 886 q 274 808 331 849 q 182 704 218 767 q 139 560 146 642 q 151 450 133 501 q 206 363 169 399 q 276 369 242 371 q 362 353 321 368 q 435 308 403 339 q 505 351 474 322 q 558 416 536 379 q 594 494 581 453 q 611 576 608 536 q 606 653 614 619 q 581 709 597 686 q 543 744 565 732 q 496 757 521 756 q 443 750 469 758 q 394 724 417 742 q 358 681 372 707 q 340 619 343 654 q 355 552 338 582 q 413 515 372 522 l 411 507 q 349 545 368 514 q 332 617 329 576 q 351 685 335 656 q 391 733 367 714 q 445 760 415 751 q 506 768 475 769 q 566 752 536 765 q 618 713 596 739 q 652 651 640 688 q 660 567 664 614 q 638 476 656 519 q 592 398 621 433 q 526 337 564 363 q 444 299 488 311 q 490 161 494 244 q 471 83 488 118 q 426 23 454 47 q 362 -14 399 -1 q 282 -24 325 -26 l 282 -15 q 347 -3 318 -18 q 395 37 375 11 q 426 95 415 63 q 440 164 438 128 q 408 292 444 236 q 381 288 394 289 q 353 289 368 288 q 269 308 307 292 q 203 353 231 325 q 119 315 156 340 q 58 254 83 289 q 22 179 33 219 q 10 97 10 139 q 25 13 10 54 q 72 -62 40 -29 q 150 -115 103 -94 q 263 -135 197 -135 m 213 354 q 351 297 268 306 q 403 300 375 296 q 342 345 379 331 q 265 360 306 360 q 240 359 253 361 q 213 354 226 357 m 1157 846 q 1085 836 1122 849 q 1019 804 1047 824 q 1049 804 1032 804 q 1086 806 1067 804 q 1113 808 1096 806 q 1145 813 1129 810 q 1173 821 1161 815 q 1185 833 1185 826 q 1176 842 1185 840 q 1157 846 1167 844 z "},"L":{"ha":750,"x_min":-1,"x_max":1069,"o":"m 415 31 q 504 208 464 110 q 586 408 544 307 q 637 525 611 468 q 693 633 663 582 q 758 726 724 683 q 833 799 792 768 q 729 815 781 804 q 627 838 678 826 q 526 860 576 850 q 424 874 475 871 q 275 858 346 878 q 149 797 204 839 q 57 693 93 756 q 15 547 21 631 q 25 451 11 496 q 67 370 39 406 q 138 313 96 335 q 232 289 179 292 q 335 310 289 285 q 414 376 381 335 q 466 469 447 417 q 488 571 485 521 q 482 647 490 614 q 457 703 474 681 q 418 737 440 725 q 371 750 396 749 q 318 742 344 751 q 270 715 292 733 q 234 671 249 697 q 217 610 219 644 q 232 544 214 574 q 290 507 250 514 l 289 499 q 226 536 246 506 q 208 607 206 567 q 226 675 211 646 q 266 724 242 704 q 319 752 290 743 q 379 760 349 761 q 440 745 410 758 q 492 707 469 732 q 528 645 515 682 q 538 561 540 608 q 508 450 533 503 q 442 358 482 397 q 347 298 401 319 q 233 281 293 276 q 135 306 179 283 q 62 364 92 328 q 17 447 32 400 q 7 547 3 494 q 49 699 13 633 q 142 806 85 764 q 271 867 199 849 q 421 882 343 886 q 527 869 475 879 q 631 846 579 858 q 736 822 683 833 q 843 806 789 810 q 931 847 883 833 q 1026 858 979 861 q 1069 836 1069 856 q 1058 818 1069 825 q 1031 807 1047 811 q 997 801 1015 803 q 963 797 978 799 q 922 795 943 796 q 882 796 901 794 q 810 721 843 765 q 749 623 778 676 q 694 509 719 569 q 643 386 668 449 q 557 182 601 282 q 456 6 513 82 q 511 -35 483 -14 q 567 -78 539 -57 q 633 -131 594 -100 q 713 -190 671 -161 q 799 -237 756 -218 q 881 -256 843 -256 q 996 -179 953 -256 l 1004 -183 q 940 -251 976 -231 q 856 -271 904 -271 q 766 -258 810 -271 q 681 -224 722 -246 q 602 -176 640 -203 q 529 -124 564 -150 q 474 -81 501 -103 q 419 -39 447 -60 q 315 -117 371 -90 q 189 -144 260 -144 q 107 -132 142 -144 q 49 -100 72 -119 q 13 -56 25 -81 q 0 -7 0 -32 q 38 76 -1 39 q 157 115 78 113 q 291 92 228 117 q 415 31 354 68 m 385 -14 q 251 72 317 38 q 121 100 185 106 q 38 65 65 96 q 8 -6 10 33 q 19 -51 8 -29 q 50 -92 29 -74 q 102 -122 71 -111 q 175 -133 133 -133 q 295 -100 246 -133 q 385 -14 344 -67 m 893 804 q 924 804 906 804 q 961 806 942 804 q 987 808 971 806 q 1019 813 1003 810 q 1047 822 1035 817 q 1058 836 1058 828 q 1049 844 1058 842 q 1031 847 1040 847 q 958 837 996 850 q 893 804 921 824 z "},"M":{"ha":1281,"x_min":0,"x_max":1743,"o":"m 1406 765 q 1565 878 1481 836 q 1743 917 1650 919 l 1743 908 q 1585 856 1661 904 q 1440 733 1508 808 q 1314 562 1372 657 q 1210 368 1256 467 q 1135 176 1165 269 q 1093 12 1104 83 q 1091 -101 1082 -60 q 1132 -137 1100 -143 l 1132 -146 q 1069 -106 1089 -146 q 1051 1 1050 -65 q 1072 154 1051 68 q 1128 332 1092 240 q 1217 515 1165 424 q 1332 685 1268 607 q 1143 489 1224 589 q 1001 297 1063 389 q 895 131 940 206 q 813 10 850 56 l 794 15 q 824 85 810 42 q 851 185 839 129 q 869 304 863 240 q 874 438 875 368 q 867 522 872 481 q 850 601 861 563 q 788 458 815 529 q 736 329 760 386 q 666 165 704 250 q 575 9 628 79 q 449 -107 522 -61 q 275 -153 376 -153 q 151 -131 203 -153 q 65 -73 99 -108 q 16 8 32 -37 q 0 99 0 53 q 45 249 0 185 q 161 344 90 314 q 139 483 135 410 q 176 642 142 571 q 267 763 211 713 q 399 840 324 813 q 558 867 474 867 q 736 827 663 867 q 856 719 810 788 q 921 804 886 765 q 997 872 956 843 q 1085 915 1038 900 q 1189 928 1133 929 l 1189 919 q 1096 898 1139 918 q 1015 844 1053 878 q 945 765 978 810 q 885 669 913 719 q 922 559 910 618 q 933 433 933 500 q 920 274 935 351 q 882 133 906 196 q 974 280 919 197 q 1097 449 1029 363 q 1242 617 1164 535 q 1406 765 1321 700 m 681 353 q 746 508 711 425 q 825 671 781 592 q 718 803 788 751 q 540 856 649 856 q 391 828 461 856 q 267 750 321 800 q 182 631 214 700 q 147 482 150 563 q 151 411 146 446 q 169 347 157 376 q 274 365 215 365 q 393 332 340 363 q 471 249 446 301 q 530 310 504 274 q 574 386 556 346 q 601 469 592 426 q 610 549 610 511 q 582 659 611 614 q 489 707 553 704 q 431 696 456 708 q 388 663 406 683 q 361 617 371 643 q 351 567 351 592 q 371 502 351 531 q 428 467 390 474 l 426 458 q 365 496 386 465 q 343 567 343 526 q 353 620 343 593 q 382 669 363 647 q 430 704 401 690 q 497 718 458 718 q 558 707 528 718 q 613 673 589 696 q 651 614 636 650 q 665 528 665 578 q 653 438 665 483 q 618 350 642 392 q 560 275 594 308 q 481 222 525 242 q 488 156 489 189 q 467 77 485 113 q 422 17 450 42 q 358 -19 394 -7 q 278 -29 321 -32 l 279 -19 q 344 -8 315 -22 q 392 32 372 7 q 423 90 411 57 q 438 158 435 122 q 438 183 438 171 q 435 207 438 196 q 375 200 404 200 q 243 238 296 200 q 164 336 190 276 q 51 244 94 308 q 10 99 8 181 q 25 12 10 54 q 71 -64 40 -31 q 148 -118 101 -97 q 260 -139 194 -139 q 370 -116 321 -139 q 460 -54 419 -93 q 532 35 500 -15 q 591 141 564 86 q 640 251 618 196 q 681 353 661 306 m 172 340 q 247 247 199 282 q 358 210 294 211 q 432 226 399 210 q 375 319 418 285 q 263 356 332 354 q 172 340 215 356 z "},"N":{"ha":1217,"x_min":0,"x_max":1657,"o":"m 964 -3 q 988 169 964 71 q 1057 370 1013 267 q 1164 573 1101 474 q 1303 750 1226 672 q 1469 874 1381 828 q 1657 917 1558 921 l 1657 908 q 1483 847 1567 904 q 1326 701 1399 790 q 1192 504 1253 613 q 1089 289 1132 396 q 1022 88 1046 182 q 1000 -64 999 -6 q 1007 -110 1000 -86 q 1042 -137 1014 -135 l 1040 -146 q 983 -105 1004 -146 q 950 4 963 -64 q 928 159 938 72 q 904 338 918 246 q 881 460 894 396 q 844 588 868 525 q 786 451 813 518 q 736 329 760 383 q 666 165 704 250 q 575 9 628 79 q 449 -107 522 -61 q 275 -153 376 -153 q 151 -131 203 -153 q 65 -73 99 -108 q 16 8 32 -37 q 0 99 0 53 q 47 253 0 188 q 169 347 94 319 q 147 483 144 406 q 184 635 150 567 q 271 753 218 704 q 390 830 324 803 q 526 858 457 857 q 626 845 582 860 q 708 805 671 831 q 772 743 744 779 q 822 665 800 707 q 892 769 854 721 q 974 854 929 818 q 1072 910 1018 890 q 1189 928 1125 929 l 1189 919 q 1082 891 1131 918 q 992 820 1033 864 q 915 719 950 776 q 851 603 881 663 q 890 472 875 539 q 914 342 906 404 q 939 158 929 247 q 964 -3 949 69 m 681 353 q 742 500 708 421 q 815 654 775 579 q 704 794 774 739 q 525 849 635 850 q 393 819 458 847 q 276 743 328 792 q 192 628 225 694 q 156 482 158 561 q 178 350 154 410 q 274 365 226 365 q 390 334 338 363 q 468 253 443 306 q 532 309 504 275 q 579 384 560 343 q 609 467 599 425 q 619 549 619 510 q 590 659 619 614 q 499 707 561 704 q 440 696 465 708 q 397 663 414 683 q 370 617 379 643 q 361 567 361 592 q 381 502 361 531 q 436 467 400 474 l 436 458 q 374 496 396 465 q 351 567 353 526 q 376 651 351 617 q 435 703 400 686 q 513 718 471 719 q 591 695 556 717 q 651 632 626 674 q 675 528 675 590 q 661 438 675 483 q 622 351 647 392 q 560 279 597 311 q 478 231 524 247 q 486 195 483 214 q 488 156 489 176 q 467 77 485 113 q 422 17 450 42 q 358 -19 394 -7 q 278 -29 321 -32 l 279 -19 q 344 -8 315 -22 q 392 32 372 7 q 423 90 411 57 q 438 158 435 122 q 433 218 440 190 q 383 214 408 214 q 252 248 304 214 q 174 340 200 282 q 107 303 138 326 q 55 248 76 279 q 22 178 33 217 q 10 99 10 140 q 25 12 10 54 q 71 -64 40 -31 q 148 -118 101 -97 q 260 -139 194 -139 q 370 -116 321 -139 q 460 -54 419 -93 q 532 35 500 -15 q 591 141 564 86 q 640 251 618 196 q 681 353 661 306 m 182 343 q 256 256 208 288 q 367 224 303 225 q 429 235 399 224 q 372 321 414 288 q 263 356 329 354 q 182 343 219 356 z "},"O":{"ha":1260,"x_min":-1,"x_max":1226,"o":"m 758 -140 q 642 -102 685 -137 q 585 -10 600 -67 q 578 117 569 46 q 615 264 588 189 q 686 413 642 339 q 785 544 731 486 l 782 546 q 717 599 751 572 q 641 649 682 626 q 551 685 600 671 q 442 699 501 699 q 256 660 336 699 q 120 562 175 622 q 37 428 65 501 q 8 283 8 354 q 24 184 8 231 q 68 102 39 138 q 140 46 97 67 q 239 25 183 25 q 348 56 300 25 q 429 135 396 88 q 480 242 463 183 q 497 356 497 301 q 487 418 497 392 q 460 462 476 444 q 422 488 443 479 q 378 496 400 496 q 317 483 343 496 q 275 450 292 469 q 250 406 258 431 q 242 357 242 381 q 265 290 242 318 q 335 263 288 261 l 336 254 q 259 284 285 253 q 232 357 233 315 q 241 410 232 383 q 269 458 250 436 q 317 493 288 479 q 385 507 346 507 q 442 496 414 507 q 493 463 471 485 q 529 406 515 440 q 543 325 543 372 q 522 209 543 265 q 461 110 500 153 q 370 40 422 67 q 256 13 318 14 q 146 33 194 13 q 65 92 97 54 q 15 181 32 129 q 0 292 -1 232 q 31 438 1 364 q 117 572 61 513 q 253 669 172 632 q 442 707 335 707 q 553 692 503 707 q 644 656 603 678 q 721 606 686 633 q 788 553 756 579 l 790 550 q 921 653 851 614 q 1065 692 990 692 q 1189 642 1151 692 q 1226 507 1226 593 q 1207 378 1225 449 q 1157 235 1189 307 q 1081 96 1125 164 q 986 -24 1038 28 q 876 -108 935 -76 q 758 -140 818 -140 m 1107 681 q 1174 581 1171 658 q 1163 517 1174 550 q 1131 456 1151 483 q 1081 410 1110 428 q 1019 390 1053 392 q 964 406 988 390 q 935 454 940 422 q 878 474 906 458 q 824 511 851 489 q 735 378 775 450 q 667 233 694 306 q 627 94 639 161 q 624 -25 615 26 q 665 -106 633 -76 q 758 -132 697 -135 q 874 -100 817 -132 q 982 -16 931 -68 q 1076 103 1033 36 q 1151 240 1119 169 q 1199 381 1182 311 q 1217 508 1217 451 q 1192 620 1217 571 q 1107 681 1167 669 m 829 518 q 882 483 857 497 q 933 463 907 468 l 933 467 q 953 532 933 503 q 1004 561 972 561 q 1033 550 1021 561 q 1046 522 1044 539 q 1037 492 1046 506 q 1015 470 1028 479 q 985 457 1001 461 q 953 453 968 453 l 943 453 q 970 413 950 426 q 1018 400 990 400 q 1077 417 1050 400 q 1124 461 1104 435 q 1154 519 1143 488 q 1165 581 1165 551 q 1139 651 1164 624 q 1071 678 1114 678 q 1003 663 1038 678 q 938 623 969 647 q 878 571 906 599 q 829 518 850 543 m 942 461 l 953 461 q 982 465 967 461 q 1009 477 997 469 q 1028 496 1021 485 q 1036 522 1036 507 q 1027 544 1036 535 q 1004 553 1018 553 q 978 544 990 553 q 958 524 967 536 q 946 497 950 511 q 942 471 942 483 l 942 461 z "},"P":{"ha":1101,"x_min":0,"x_max":1196,"o":"m 1078 724 q 1160 686 1126 724 q 1193 578 1194 649 q 1166 463 1193 525 q 1081 350 1139 401 q 929 267 1022 299 q 704 242 836 235 q 635 97 672 168 q 547 -29 597 26 q 432 -119 497 -85 q 279 -153 367 -153 q 154 -132 207 -153 q 67 -76 101 -111 q 17 3 33 -42 q 0 93 0 47 q 13 176 0 135 q 50 252 25 217 q 112 314 75 288 q 196 354 149 340 q 142 444 160 392 q 129 554 125 496 q 174 705 136 640 q 268 811 211 769 q 397 872 325 853 q 547 885 469 890 q 653 869 601 881 q 758 845 706 858 q 863 819 810 832 q 969 801 915 807 q 1058 841 1010 828 q 1154 851 1106 854 q 1196 829 1196 847 q 1184 812 1196 818 q 1156 801 1172 806 q 1122 795 1140 797 q 1089 792 1103 793 q 1048 790 1068 790 q 1007 790 1028 790 q 888 649 939 739 q 792 453 838 558 q 849 544 817 497 q 917 631 881 592 q 994 697 953 671 q 1078 724 1035 724 m 263 -139 q 380 -112 328 -139 q 474 -42 432 -86 q 551 59 517 3 q 612 176 585 115 q 663 297 639 238 q 707 407 686 357 q 759 524 732 467 q 817 631 786 581 q 882 723 847 681 q 958 794 917 765 q 855 812 906 800 q 754 837 804 824 q 653 860 704 850 q 551 875 603 871 q 402 863 474 881 q 274 803 331 844 q 182 700 218 763 q 139 554 146 638 q 151 444 133 496 q 206 357 169 393 q 276 365 239 365 q 362 349 321 364 q 435 304 403 335 q 505 347 474 318 q 558 411 536 375 q 594 489 581 447 q 611 571 608 531 q 606 649 614 615 q 581 704 597 682 q 543 738 565 726 q 496 753 521 750 q 443 746 469 754 q 394 719 417 738 q 358 675 372 701 q 340 614 343 649 q 355 547 338 578 q 413 510 372 517 l 411 501 q 349 540 368 508 q 332 611 329 572 q 351 679 335 650 q 391 728 367 708 q 445 756 415 747 q 506 763 475 764 q 566 747 536 760 q 618 708 596 733 q 652 645 640 682 q 660 561 664 608 q 638 471 656 514 q 592 392 621 428 q 526 331 564 357 q 444 293 488 306 q 490 156 494 239 q 471 77 488 113 q 426 17 454 42 q 362 -19 399 -7 q 282 -29 325 -32 l 282 -19 q 347 -8 318 -22 q 395 32 375 7 q 426 90 415 57 q 440 158 438 122 q 435 227 443 194 q 408 286 426 260 q 381 283 394 283 q 353 283 368 283 q 269 303 307 286 q 203 347 231 319 q 119 309 156 335 q 58 249 83 283 q 22 174 33 214 q 10 93 10 135 q 25 7 10 49 q 72 -67 40 -35 q 150 -119 103 -99 q 263 -139 197 -139 m 707 250 q 908 293 825 253 q 1044 391 992 333 q 1122 511 1097 449 q 1146 622 1146 574 q 1124 692 1146 671 q 1072 714 1101 714 q 974 674 1022 714 q 883 578 925 633 q 808 463 842 522 q 756 365 775 404 l 707 250 m 213 350 q 275 311 240 326 q 351 293 310 296 q 378 292 365 292 q 403 296 390 293 q 342 340 379 326 q 265 356 306 354 q 240 354 253 356 q 213 350 226 353 m 1157 840 q 1085 831 1122 843 q 1019 799 1047 818 q 1049 799 1032 799 q 1086 800 1067 799 q 1113 802 1096 800 q 1145 807 1129 804 q 1173 815 1161 810 q 1185 828 1185 821 q 1176 838 1185 835 q 1157 840 1167 840 z "},"Q":{"ha":1274,"x_min":-1,"x_max":1226,"o":"m 1081 -62 q 1161 -99 1133 -64 q 1189 -178 1189 -133 q 1181 -232 1189 -206 q 1156 -278 1172 -258 q 1116 -310 1140 -299 q 1061 -322 1092 -322 q 976 -303 1013 -322 q 908 -255 940 -283 q 842 -195 875 -226 q 768 -140 810 -164 l 758 -140 q 692 -129 721 -139 q 642 -103 664 -119 q 558 -107 604 -101 l 557 -99 q 595 -94 576 -96 q 631 -92 614 -92 q 576 32 583 -46 q 594 200 569 110 q 668 381 618 290 q 785 544 718 472 l 782 546 q 717 599 751 572 q 641 649 682 626 q 551 685 600 671 q 442 699 501 699 q 256 660 336 699 q 120 562 175 622 q 37 428 65 501 q 8 283 8 354 q 24 184 8 231 q 68 102 39 138 q 140 46 97 67 q 238 25 183 25 q 347 56 299 25 q 429 135 396 88 q 480 242 463 183 q 497 356 497 301 q 487 418 497 392 q 460 462 476 444 q 422 488 443 479 q 378 496 400 496 q 317 483 343 496 q 275 450 292 469 q 250 406 258 431 q 242 357 242 381 q 265 290 242 318 q 335 263 288 261 l 336 254 q 259 284 285 253 q 232 357 233 315 q 241 410 232 383 q 269 458 250 436 q 317 493 288 479 q 385 507 346 507 q 442 496 414 507 q 493 463 471 485 q 529 406 515 440 q 543 325 543 372 q 522 209 543 265 q 461 110 500 153 q 370 40 422 67 q 256 13 318 14 q 146 33 194 13 q 65 92 97 54 q 15 181 32 129 q 0 292 -1 232 q 31 438 1 364 q 117 572 61 513 q 253 669 172 632 q 442 707 335 707 q 553 692 503 707 q 644 656 603 678 q 721 606 686 633 q 788 553 756 579 l 790 550 q 921 653 851 614 q 1065 692 990 692 q 1189 642 1151 692 q 1226 507 1226 593 q 1210 385 1226 451 q 1165 252 1194 319 q 1097 119 1136 185 q 1010 1 1057 54 q 909 -88 963 -51 q 800 -136 856 -125 q 864 -179 835 -156 q 922 -224 893 -203 q 985 -258 951 -244 q 1061 -272 1018 -272 q 1146 -241 1118 -272 q 1174 -165 1174 -210 q 1149 -101 1174 -129 q 1081 -71 1125 -72 q 1028 -83 1051 -71 q 991 -114 1006 -94 q 972 -158 976 -133 q 978 -210 968 -183 l 969 -212 q 964 -156 960 -183 q 984 -108 968 -129 q 1024 -75 1000 -87 q 1081 -62 1049 -62 m 824 511 q 719 351 765 439 q 648 177 674 263 q 621 19 622 92 q 653 -93 619 -53 q 726 -105 693 -96 q 788 -129 760 -114 q 897 -85 843 -121 q 999 2 951 -50 q 1086 119 1046 54 q 1156 253 1126 185 q 1201 387 1185 321 q 1217 508 1217 453 q 1192 620 1217 571 q 1107 681 1167 669 q 1174 581 1171 658 q 1163 517 1174 550 q 1131 456 1151 483 q 1081 410 1110 428 q 1019 390 1053 392 q 964 406 988 390 q 935 454 940 422 q 878 474 906 458 q 824 511 851 489 m 1071 678 q 1003 663 1038 678 q 938 623 969 647 q 878 571 906 599 q 829 518 850 543 q 882 483 857 497 q 933 463 907 468 l 933 467 q 953 532 933 503 q 1004 561 972 561 q 1033 550 1021 561 q 1046 522 1044 539 q 1037 492 1046 506 q 1015 470 1028 479 q 985 457 1001 461 q 953 453 968 453 l 943 453 q 970 413 950 426 q 1018 400 990 400 q 1077 417 1050 400 q 1124 461 1104 435 q 1154 519 1143 488 q 1165 581 1165 551 q 1139 651 1164 624 q 1071 678 1114 678 m 953 461 q 982 465 967 461 q 1009 477 997 469 q 1028 496 1021 485 q 1036 522 1036 507 q 1027 544 1036 535 q 1004 553 1018 553 q 978 544 990 553 q 958 524 967 536 q 946 497 950 511 q 942 471 942 483 l 942 461 l 953 461 m 664 -104 q 701 -126 679 -118 q 753 -132 724 -133 q 664 -104 714 -110 z "},"R":{"ha":1133,"x_min":0,"x_max":1197,"o":"m 1078 724 q 1132 710 1108 724 q 1170 674 1156 697 q 1191 622 1185 651 q 1194 560 1197 593 q 1168 470 1190 515 q 1100 387 1146 425 q 983 322 1054 349 q 814 292 913 296 q 873 242 856 276 q 894 163 890 208 q 894 65 899 118 q 886 -40 889 13 q 886 -142 883 -93 q 908 -228 889 -190 q 969 -288 928 -265 q 1082 -311 1010 -311 l 1082 -319 q 941 -295 993 -319 q 863 -231 889 -271 q 830 -138 836 -190 q 826 -31 824 -86 q 835 78 829 24 q 840 176 842 132 q 824 252 839 221 q 769 292 808 283 l 725 292 q 655 133 693 213 q 565 -9 617 54 q 443 -112 513 -72 q 279 -153 374 -153 q 154 -132 207 -153 q 67 -76 101 -111 q 17 3 33 -42 q 0 93 0 47 q 13 176 0 135 q 50 252 25 217 q 112 314 75 288 q 196 354 149 340 q 142 444 160 392 q 129 554 125 496 q 174 705 136 640 q 268 811 211 769 q 397 872 325 853 q 547 885 469 890 q 653 869 601 881 q 758 845 706 858 q 863 819 810 832 q 969 801 915 807 q 1058 841 1010 828 q 1154 851 1106 854 q 1196 829 1196 847 q 1184 812 1196 818 q 1156 801 1172 806 q 1122 795 1140 797 q 1089 792 1103 793 q 1048 790 1068 790 q 1007 790 1028 790 q 888 649 939 739 q 792 453 838 558 q 849 544 817 497 q 917 631 881 592 q 994 697 953 671 q 1078 724 1035 724 m 263 -139 q 380 -112 328 -139 q 474 -42 432 -86 q 551 59 517 3 q 612 176 585 115 q 663 297 639 238 q 707 407 686 357 q 759 524 732 467 q 817 631 786 581 q 882 723 847 681 q 958 794 917 765 q 855 812 906 800 q 754 837 804 824 q 653 860 704 850 q 551 875 603 871 q 402 863 474 881 q 274 803 331 844 q 182 700 218 763 q 139 554 146 638 q 151 444 133 496 q 206 357 169 393 q 276 365 239 365 q 362 349 321 364 q 435 304 403 335 q 505 347 474 318 q 558 411 536 375 q 594 489 581 447 q 611 571 608 531 q 606 649 614 615 q 581 704 597 682 q 543 738 565 726 q 496 753 521 750 q 443 746 469 754 q 394 719 417 738 q 358 675 372 701 q 340 614 343 649 q 355 547 338 578 q 413 510 372 517 l 411 501 q 349 540 368 508 q 332 611 329 572 q 351 679 335 650 q 391 728 367 708 q 445 756 415 747 q 506 763 475 764 q 566 747 536 760 q 618 708 596 733 q 652 645 640 682 q 660 561 664 608 q 638 471 656 514 q 592 392 621 428 q 526 331 564 357 q 444 293 488 306 q 490 156 494 239 q 471 77 488 113 q 426 17 454 42 q 362 -19 399 -7 q 282 -29 325 -32 l 282 -19 q 347 -8 318 -22 q 395 32 375 7 q 426 90 415 57 q 440 158 438 122 q 435 227 443 194 q 408 286 426 260 q 381 283 394 283 q 353 283 367 283 q 269 303 307 286 q 203 347 231 319 q 119 309 156 335 q 58 249 83 283 q 22 174 33 214 q 10 93 10 135 q 25 7 10 49 q 72 -67 40 -35 q 150 -119 103 -99 q 263 -139 197 -139 m 1147 604 q 1131 683 1150 651 q 1072 714 1111 714 q 1006 695 1039 714 q 942 646 974 676 q 883 578 911 615 q 831 501 856 540 q 788 427 807 463 q 756 367 768 392 q 742 335 749 351 q 729 303 736 318 l 756 303 q 931 340 857 308 q 1051 415 1004 371 q 1122 510 1099 460 q 1147 604 1144 560 m 213 350 q 275 311 240 326 q 351 293 310 296 q 378 292 365 292 q 403 296 390 293 q 342 340 379 326 q 265 356 306 354 q 240 354 253 356 q 213 350 226 353 m 1157 840 q 1085 831 1122 843 q 1019 799 1047 818 q 1049 799 1032 799 q 1086 800 1067 799 q 1113 802 1096 800 q 1145 807 1129 804 q 1173 815 1161 810 q 1185 828 1185 821 q 1176 838 1185 835 q 1157 840 1167 840 z "},"S":{"ha":808,"x_min":0,"x_max":856,"o":"m 625 332 q 616 410 622 369 q 604 492 610 450 q 594 575 599 533 q 592 657 590 617 q 606 745 592 707 q 644 809 621 783 q 696 849 667 835 q 754 863 725 863 q 824 838 794 864 q 856 756 854 811 q 808 570 856 667 q 682 379 761 474 q 687 320 685 350 q 686 261 689 290 q 655 108 681 181 q 582 -21 629 35 q 468 -110 535 -76 q 314 -143 401 -143 q 179 -119 236 -144 q 82 -53 122 -94 q 19 -69 49 -64 l 18 -58 q 44 -52 31 -56 q 74 -43 58 -49 q 18 53 36 0 q 0 164 0 107 q 17 269 0 218 q 69 362 35 321 q 153 428 104 403 q 268 454 203 453 q 346 443 308 456 q 414 406 383 431 q 463 342 444 381 q 485 254 482 304 q 481 196 486 222 q 555 262 518 228 q 625 332 592 296 m 417 146 q 432 200 428 172 q 435 253 436 228 q 381 394 431 349 q 258 439 331 439 q 154 415 200 439 q 77 352 108 392 q 28 263 46 313 q 11 161 11 213 q 30 53 11 106 q 88 -39 49 1 q 248 34 163 -14 q 417 146 333 82 m 625 261 q 625 317 626 288 q 475 178 557 244 q 415 83 458 121 q 304 44 371 44 l 304 54 q 198 -5 250 21 q 97 -49 146 -31 q 181 -99 132 -81 q 294 -118 229 -118 q 438 -86 378 -118 q 539 -2 499 -54 q 600 119 579 50 q 625 261 621 188 m 844 756 q 819 826 843 801 q 764 850 796 851 q 724 838 744 850 q 688 803 704 826 q 663 742 672 779 q 653 656 653 706 q 661 530 650 596 q 681 394 672 464 q 800 578 756 486 q 844 756 844 671 m 307 56 q 367 76 342 57 q 407 124 392 96 q 357 88 382 106 q 307 56 332 71 z "},"T":{"ha":838,"x_min":0,"x_max":1399,"o":"m 1399 936 q 1353 840 1386 879 q 1275 774 1319 800 q 1178 735 1231 749 q 1074 719 1125 722 q 990 718 1032 717 q 907 722 949 719 q 865 653 883 692 q 828 566 847 614 q 787 459 808 518 q 736 328 765 400 q 666 164 704 249 q 575 9 628 79 q 449 -107 522 -61 q 275 -153 376 -153 q 151 -131 203 -153 q 65 -73 99 -108 q 16 8 32 -37 q 0 99 0 53 q 17 194 0 150 q 63 274 33 239 q 134 331 93 308 q 222 361 175 353 q 179 499 182 424 q 197 607 178 553 q 258 704 217 661 q 360 774 299 747 q 503 803 421 801 q 647 797 574 804 q 792 783 719 790 q 936 769 865 775 q 1072 768 1007 764 q 1173 778 1122 771 q 1267 802 1224 785 q 1343 852 1311 819 q 1388 939 1375 885 l 1399 936 m 681 353 q 744 499 715 439 q 797 601 772 558 q 844 672 821 643 q 890 724 867 700 q 696 742 793 731 q 503 753 599 754 q 365 731 424 751 q 267 676 306 710 q 210 596 229 642 q 192 500 192 550 q 203 428 192 464 q 236 363 214 392 q 255 365 246 364 q 274 365 264 365 q 369 344 325 363 q 443 290 414 325 q 510 321 482 299 q 558 371 539 343 q 585 431 576 399 q 594 493 594 464 q 574 562 593 535 q 514 592 554 589 l 514 603 q 603 565 569 603 q 639 474 636 526 q 628 406 639 440 q 596 342 618 372 q 540 291 574 313 q 463 263 507 269 q 488 156 490 217 q 467 77 485 113 q 422 17 450 42 q 358 -19 394 -7 q 278 -29 321 -32 l 279 -19 q 344 -8 315 -22 q 392 32 372 7 q 423 90 411 57 q 438 158 435 122 q 421 260 440 215 q 306 286 354 260 q 228 353 258 313 q 140 325 181 347 q 71 269 100 303 q 26 192 42 236 q 10 99 10 149 q 25 12 10 54 q 71 -64 40 -31 q 148 -118 101 -97 q 260 -139 194 -139 q 370 -116 321 -139 q 460 -54 419 -93 q 532 35 500 -15 q 591 141 564 86 q 640 251 618 196 q 681 353 661 306 m 243 354 q 307 304 269 324 q 393 285 344 285 l 406 285 q 347 335 383 317 q 263 356 311 354 q 243 354 250 356 z "},"U":{"ha":1157,"x_min":-3,"x_max":1607,"o":"m 950 207 q 1008 369 972 285 q 1091 533 1044 453 q 1195 683 1138 613 q 1318 807 1253 754 q 1456 890 1383 860 q 1607 917 1529 919 l 1607 908 q 1449 856 1525 904 q 1304 733 1372 808 q 1178 562 1236 657 q 1074 368 1119 467 q 999 176 1029 269 q 957 12 968 83 q 955 -101 946 -60 q 996 -137 964 -143 l 996 -146 q 947 -124 965 -146 q 920 -64 928 -101 q 916 25 913 -26 q 932 136 919 76 q 888 39 913 88 q 830 -49 863 -10 q 756 -111 797 -87 q 664 -133 715 -135 q 583 -112 615 -132 q 533 -60 551 -92 q 507 12 514 -29 q 503 96 500 53 q 523 230 506 154 q 569 385 540 306 q 622 511 593 449 q 685 628 651 574 q 753 727 718 683 q 826 799 789 771 q 722 815 774 804 q 621 838 671 826 q 520 860 571 850 q 418 874 469 871 q 269 858 340 878 q 142 797 197 839 q 51 693 86 756 q 10 547 15 631 q 19 451 6 496 q 61 370 33 406 q 131 313 89 335 q 226 289 174 292 q 329 310 283 285 q 408 376 375 335 q 459 469 440 417 q 482 571 478 521 q 476 647 485 614 q 450 703 467 681 q 411 737 433 725 q 364 750 389 749 q 311 742 338 751 q 263 715 285 733 q 227 671 242 697 q 211 610 213 644 q 226 544 208 574 q 283 507 243 514 l 282 499 q 219 536 239 506 q 201 607 199 567 q 219 675 204 646 q 259 724 235 704 q 313 752 283 743 q 374 760 343 761 q 434 745 404 758 q 487 707 464 732 q 522 645 510 682 q 531 561 535 608 q 501 450 526 503 q 435 358 475 397 q 340 298 394 319 q 226 281 286 276 q 129 306 172 283 q 56 364 86 328 q 12 447 26 400 q 0 547 -3 494 q 42 699 6 633 q 135 806 78 764 q 264 867 192 849 q 414 882 336 886 q 520 869 468 879 q 624 846 572 858 q 729 822 676 833 q 838 806 782 810 q 925 847 876 833 q 1021 858 974 861 q 1063 836 1063 856 q 1051 818 1063 825 q 1024 807 1040 811 q 990 801 1008 803 q 956 797 971 799 q 916 795 936 796 q 875 796 896 794 q 807 724 842 769 q 740 621 772 678 q 679 498 708 564 q 628 365 650 432 q 578 194 596 276 q 560 51 560 113 q 565 -15 560 15 q 583 -69 569 -46 q 618 -106 596 -93 q 674 -119 640 -119 q 773 -86 729 -119 q 850 -3 817 -53 q 908 103 883 46 q 950 207 932 160 m 1025 847 q 952 837 989 850 q 886 804 915 824 q 917 804 900 804 q 954 806 935 804 q 981 808 964 806 q 1013 813 997 810 q 1040 822 1028 817 q 1051 836 1051 828 q 1042 844 1051 842 q 1025 847 1033 847 z "},"V":{"ha":1074,"x_min":0,"x_max":1435,"o":"m 8 510 q 24 414 8 458 q 71 336 40 369 q 144 283 101 303 q 240 264 188 264 q 342 291 297 264 q 417 361 386 318 q 463 457 447 404 q 479 561 479 510 q 468 637 479 604 q 440 691 457 669 q 399 723 422 713 q 351 733 376 733 q 299 723 325 733 q 253 693 274 713 q 219 647 232 674 q 206 585 206 619 q 225 518 206 547 q 285 485 244 489 l 285 476 q 219 510 240 481 q 197 581 197 540 q 211 649 197 619 q 248 700 225 679 q 300 732 271 721 q 360 743 329 743 q 421 732 390 743 q 476 697 451 721 q 515 638 500 674 q 528 554 529 601 q 506 442 528 496 q 444 346 483 388 q 353 280 406 304 q 242 256 301 256 q 142 275 188 256 q 65 329 97 294 q 17 410 33 364 q 0 510 0 457 q 31 658 0 593 q 111 769 61 724 q 225 839 161 815 q 357 863 289 863 q 487 838 422 863 q 604 762 551 813 q 694 632 657 711 q 744 444 732 553 q 748 279 753 363 q 726 119 743 196 q 682 -24 710 42 q 618 -132 654 -89 q 727 -58 676 -110 q 824 65 778 -6 q 915 221 871 136 q 1000 392 958 306 q 1096 582 1047 489 q 1197 748 1144 675 q 1308 866 1250 821 q 1435 913 1367 911 l 1435 904 q 1313 858 1369 903 q 1203 742 1256 814 q 1103 577 1151 669 q 1008 388 1056 485 q 919 210 964 297 q 824 49 874 122 q 722 -76 775 -24 q 606 -146 668 -128 l 601 -139 q 645 -22 626 -89 q 675 122 664 46 q 689 278 686 197 q 685 433 692 358 q 642 625 674 546 q 563 754 610 704 q 460 828 517 804 q 346 851 404 851 q 223 828 283 851 q 115 761 163 806 q 39 653 68 717 q 8 510 10 589 z "},"W":{"ha":1456,"x_min":0,"x_max":1819,"o":"m 1819 904 q 1696 858 1753 903 q 1587 742 1639 814 q 1487 577 1535 669 q 1392 388 1439 485 q 1302 210 1347 297 q 1208 49 1257 122 q 1105 -76 1158 -24 q 989 -146 1051 -128 l 985 -139 q 1019 -49 1004 -100 q 1046 61 1035 3 q 1064 182 1057 119 q 1072 307 1071 244 q 1071 401 1074 354 q 1061 494 1068 447 q 1034 442 1047 468 q 1008 388 1021 415 q 919 210 964 297 q 824 49 874 122 q 722 -76 775 -24 q 606 -146 668 -128 l 601 -139 q 639 -40 622 -96 q 667 79 656 15 q 685 211 679 143 q 690 346 690 279 q 672 516 689 426 q 616 680 656 606 q 510 803 576 754 q 346 851 444 851 q 223 828 283 851 q 115 761 163 806 q 39 653 68 717 q 8 510 10 589 q 24 414 8 458 q 71 336 40 369 q 144 283 101 303 q 240 264 188 264 q 342 291 297 264 q 417 361 386 318 q 463 457 447 404 q 479 561 479 510 q 468 637 479 604 q 440 691 457 669 q 399 723 422 713 q 351 733 376 733 q 299 723 325 733 q 253 693 274 713 q 219 647 232 674 q 206 585 206 619 q 225 518 206 547 q 285 485 244 489 l 285 476 q 219 510 240 481 q 197 581 197 540 q 211 649 197 619 q 248 700 225 679 q 300 732 271 721 q 360 743 329 743 q 421 732 390 743 q 476 697 451 721 q 515 638 500 674 q 528 554 529 601 q 506 442 528 496 q 444 346 483 388 q 353 280 406 304 q 242 256 301 256 q 142 275 188 256 q 65 329 97 294 q 17 410 33 364 q 0 510 0 457 q 31 658 0 593 q 111 769 61 724 q 225 839 161 815 q 357 863 289 863 q 541 814 465 863 q 663 690 617 765 q 730 519 710 614 q 750 332 750 425 q 740 195 750 263 q 714 67 731 128 q 673 -45 697 6 q 618 -132 649 -96 q 727 -58 676 -110 q 824 65 778 -6 q 915 221 871 136 q 1000 392 958 306 q 1022 437 1010 411 q 1048 489 1035 463 q 1074 540 1061 515 q 1096 585 1086 565 q 1128 446 1121 514 q 1133 303 1136 378 q 1120 174 1131 238 q 1093 54 1110 111 q 1053 -51 1076 -3 q 1001 -132 1031 -99 q 1110 -58 1060 -110 q 1208 65 1161 -6 q 1298 221 1254 136 q 1383 392 1342 306 q 1479 582 1431 489 q 1581 748 1528 675 q 1692 866 1633 821 q 1819 913 1751 911 l 1819 904 z "},"X":{"ha":1024,"x_min":-6,"x_max":1369,"o":"m 767 376 q 881 547 821 461 q 1012 697 940 632 q 1172 797 1083 763 q 1369 814 1260 832 l 1368 806 q 1182 775 1265 818 q 1028 658 1099 732 q 899 493 958 585 q 786 314 840 401 q 782 308 783 311 q 779 303 781 306 q 808 125 793 211 q 850 -31 824 39 q 920 -147 876 -100 q 1035 -204 964 -193 l 1033 -212 q 904 -166 956 -204 q 819 -69 853 -128 q 765 66 785 -10 q 731 224 744 142 q 650 97 694 163 q 554 -22 606 32 q 443 -111 503 -76 q 317 -143 383 -146 q 194 -95 242 -140 q 146 28 146 -50 q 158 94 146 63 q 190 151 169 126 q 240 192 211 176 q 306 208 269 207 q 394 182 357 211 q 431 100 431 153 q 418 51 431 74 q 382 14 406 28 l 378 21 q 411 55 400 33 q 422 101 422 76 q 388 176 422 150 q 307 200 353 203 q 244 183 272 199 q 197 144 217 168 q 166 90 176 121 q 156 28 156 60 q 196 -85 154 -43 q 307 -131 238 -128 q 390 -112 349 -132 q 469 -57 431 -92 q 542 24 507 -22 q 608 117 576 69 q 667 213 640 165 q 718 299 694 260 l 708 363 q 677 523 696 438 q 622 683 658 608 q 526 808 586 757 q 372 864 467 858 q 244 848 306 868 q 135 789 183 828 q 55 694 88 750 q 13 571 22 639 q 15 469 4 518 q 55 382 26 421 q 126 319 83 343 q 225 292 169 294 q 322 310 278 289 q 400 369 367 332 q 455 453 433 406 q 483 549 476 500 q 483 625 489 592 q 463 682 478 658 q 427 719 449 706 q 381 736 406 732 q 327 733 354 740 q 277 710 300 726 q 238 669 254 694 q 217 608 222 643 q 226 541 211 572 q 282 500 242 510 l 279 492 q 219 534 238 501 q 207 607 201 567 q 231 672 213 644 q 274 718 249 700 q 330 743 300 736 q 390 746 360 750 q 449 726 421 742 q 499 683 478 710 q 529 619 519 657 q 532 535 539 582 q 496 433 524 481 q 428 351 468 385 q 336 298 388 317 q 231 282 285 279 q 126 310 172 285 q 51 374 81 335 q 8 465 21 414 q 3 571 -6 515 q 48 701 14 643 q 133 800 82 760 q 247 860 183 840 q 382 876 311 881 q 551 824 483 871 q 661 706 618 776 q 728 549 704 635 q 767 378 751 463 l 767 376 l 767 376 z "},"Y":{"ha":1099,"x_min":-3,"x_max":1571,"o":"m 1000 410 q 1100 606 1046 513 q 1223 770 1154 700 q 1377 881 1292 840 q 1571 917 1463 921 l 1571 908 q 1378 849 1461 904 q 1231 708 1296 794 q 1115 514 1167 622 q 1015 292 1063 406 q 917 66 967 176 q 809 -131 868 -44 q 676 -270 750 -217 q 501 -324 601 -324 q 399 -307 443 -324 q 326 -262 356 -290 q 282 -198 297 -235 q 265 -122 267 -161 q 282 -26 264 -69 q 333 49 300 18 q 409 98 365 81 q 503 115 453 115 q 574 102 544 115 q 624 67 604 89 q 653 18 643 46 q 664 -39 664 -10 q 655 -99 664 -69 q 627 -152 646 -129 q 582 -190 608 -175 q 521 -204 556 -204 l 521 -196 q 578 -182 553 -196 q 620 -147 603 -168 q 647 -97 638 -125 q 656 -40 656 -69 q 647 13 656 -14 q 619 59 638 39 q 574 92 601 79 q 511 104 547 104 q 428 84 465 104 q 365 31 390 64 q 325 -44 339 -1 q 313 -131 311 -86 q 324 -199 313 -167 q 357 -258 335 -232 q 412 -299 379 -283 q 489 -314 444 -314 q 640 -260 575 -314 q 760 -117 706 -206 q 861 85 814 -28 q 958 315 908 199 q 963 325 961 321 q 967 335 964 329 q 919 269 944 300 q 862 217 893 239 q 794 181 831 194 q 713 169 757 168 q 611 206 654 171 q 567 318 568 240 q 592 439 567 368 q 657 580 618 510 q 741 710 696 650 q 826 799 786 769 q 722 815 774 804 q 621 838 671 826 q 520 860 571 850 q 418 874 469 871 q 269 858 340 878 q 142 797 197 839 q 51 693 86 756 q 10 547 15 631 q 19 451 6 496 q 61 370 33 406 q 131 313 89 335 q 226 289 174 292 q 329 310 283 285 q 408 376 375 335 q 459 469 440 417 q 482 571 478 521 q 476 647 485 614 q 450 703 467 681 q 411 737 433 725 q 364 750 389 749 q 311 742 338 751 q 263 715 285 733 q 227 671 242 697 q 211 610 213 644 q 226 544 208 574 q 283 507 243 514 l 282 499 q 219 536 239 506 q 201 607 199 567 q 219 675 204 646 q 259 724 235 704 q 313 752 283 743 q 374 760 343 761 q 434 745 404 758 q 487 707 464 732 q 522 645 510 682 q 531 561 535 608 q 501 450 526 503 q 435 358 475 397 q 340 298 394 319 q 226 281 286 276 q 129 306 172 283 q 56 364 86 328 q 12 447 26 400 q 0 547 -3 494 q 42 699 6 633 q 135 806 78 764 q 264 867 192 849 q 414 882 336 886 q 520 869 468 879 q 624 846 572 858 q 729 822 676 833 q 838 806 782 810 q 925 847 876 833 q 1021 858 974 861 q 1063 836 1063 856 q 1051 818 1063 825 q 1024 807 1040 811 q 990 801 1008 803 q 956 797 971 799 q 916 795 936 796 q 875 796 896 794 q 823 741 851 776 q 765 660 794 706 q 710 564 736 615 q 663 463 683 513 q 628 367 642 413 q 615 290 615 322 q 638 214 615 246 q 717 182 660 182 q 814 201 771 181 q 891 255 857 222 q 952 328 925 288 q 1000 410 979 369 m 1025 847 q 952 837 989 850 q 886 804 915 824 q 917 804 900 804 q 954 806 935 804 q 981 808 964 806 q 1013 813 997 810 q 1040 822 1028 817 q 1051 836 1051 828 q 1042 844 1051 842 q 1025 847 1033 847 z "},"Z":{"ha":838,"x_min":-1,"x_max":1110,"o":"m 376 714 l 376 725 q 431 714 407 725 q 470 685 454 703 q 494 643 486 667 q 503 593 503 619 q 490 521 504 553 q 450 467 475 489 q 393 432 425 444 q 328 419 361 419 q 248 435 282 419 q 190 475 214 450 q 155 533 167 500 q 142 603 143 567 q 158 692 142 647 q 211 774 175 738 q 303 834 247 811 q 433 858 358 857 q 543 852 486 858 q 658 838 600 846 q 775 821 717 829 q 888 808 833 813 q 974 847 926 833 q 1068 858 1022 861 q 1110 836 1110 856 q 1099 818 1110 825 q 1072 807 1088 811 q 1038 801 1056 803 q 1004 797 1019 799 q 963 795 985 796 q 922 794 942 794 q 852 714 889 768 q 777 590 815 660 q 699 440 739 519 q 618 281 658 360 q 537 130 578 201 q 456 6 496 58 q 511 -35 483 -14 q 567 -78 539 -57 q 633 -131 594 -100 q 713 -190 671 -161 q 799 -237 756 -218 q 881 -256 843 -256 q 997 -179 951 -256 l 1004 -183 q 940 -251 976 -231 q 856 -271 904 -271 q 766 -258 810 -271 q 681 -224 722 -246 q 602 -176 640 -203 q 529 -124 564 -150 q 474 -81 501 -103 q 419 -39 447 -60 q 315 -117 371 -90 q 189 -144 260 -144 q 108 -132 143 -144 q 49 -100 72 -119 q 13 -56 25 -81 q 0 -7 0 -32 q 38 76 -1 39 q 157 115 78 113 q 291 92 228 117 q 415 31 354 68 q 481 148 444 79 q 556 293 517 217 q 635 447 594 369 q 717 594 676 525 q 796 715 757 663 q 869 794 835 768 q 651 803 760 796 q 433 808 542 810 q 306 788 358 807 q 219 738 253 768 q 169 669 185 707 q 154 593 153 631 q 168 528 156 556 q 201 481 181 500 q 249 453 222 463 q 303 443 275 443 q 358 452 331 443 q 408 481 386 461 q 444 531 429 501 q 460 601 458 561 q 440 678 461 646 q 376 714 419 711 m 385 -14 q 251 72 317 38 q 121 100 185 106 q 38 65 65 96 q 8 -6 10 33 q 19 -51 8 -29 q 50 -92 29 -74 q 102 -122 71 -111 q 175 -133 133 -133 q 295 -100 246 -133 q 385 -14 344 -67 m 936 806 q 1001 806 969 803 q 1028 808 1011 806 q 1060 813 1044 810 q 1087 822 1075 817 q 1099 836 1099 828 q 1091 844 1100 842 q 1072 847 1082 847 q 1001 838 1038 850 q 936 806 964 825 z "},"~":{"ha":303,"x_min":67,"x_max":258,"o":"m 67 217 q 133 247 107 244 q 178 236 160 249 q 192 224 185 231 q 208 213 200 217 q 228 209 217 208 q 254 219 239 210 l 258 211 q 194 184 219 188 q 151 193 168 181 q 136 206 143 199 q 121 218 129 214 q 101 222 113 222 q 71 210 89 221 l 67 217 z "},"":{"ha":385,"x_min":108,"x_max":300,"o":"m 108 469 q 175 499 149 497 q 219 489 201 501 q 234 476 226 483 q 250 465 242 469 q 269 462 258 461 q 296 472 281 463 l 300 464 q 235 438 261 440 q 193 446 210 435 q 178 459 185 451 q 162 472 171 467 q 141 475 153 476 q 113 463 129 474 l 108 469 z "},"`":{"ha":308,"x_min":161,"x_max":258,"o":"m 258 428 l 228 425 l 161 513 l 217 513 l 258 428 l 258 428 z "},"":{"ha":322,"x_min":161,"x_max":258,"o":"m 203 513 l 258 513 l 192 425 l 161 428 l 203 513 z "},"":{"ha":371,"x_min":154,"x_max":308,"o":"m 249 492 l 207 450 l 154 468 l 257 525 l 263 524 l 308 415 l 256 433 l 249 492 l 249 492 z "},".":{"ha":135,"x_min":0,"x_max":60,"o":"m 31 -1 q 9 8 18 -1 q 0 29 0 17 q 9 50 0 42 q 31 58 18 58 q 51 50 43 58 q 60 29 60 42 q 51 8 60 17 q 31 -1 43 -1 z "},",":{"ha":144,"x_min":0,"x_max":63,"o":"m 32 58 q 53 50 44 58 q 63 29 63 42 q 44 -10 61 4 q 0 -22 26 -24 l 8 -8 q 31 -1 21 -8 q 10 8 19 -1 q 1 29 1 17 q 10 50 1 42 q 32 58 19 58 z "},":":{"ha":301,"x_min":0,"x_max":231,"o":"m 31 58 q 51 50 43 58 q 60 29 60 42 q 51 8 60 17 q 31 -1 43 -1 q 9 8 18 -1 q 0 29 0 17 q 9 50 0 42 q 31 58 18 58 m 200 400 q 222 391 213 400 q 231 369 231 382 q 222 348 231 357 q 200 339 213 339 q 178 348 188 339 q 169 369 169 357 q 178 391 169 382 q 200 400 188 400 z "},";":{"ha":274,"x_min":0,"x_max":232,"o":"m 201 400 q 223 391 214 400 q 232 369 232 382 q 223 348 232 357 q 201 339 214 339 q 181 348 189 339 q 172 369 172 357 q 181 391 172 382 q 201 400 189 400 m 32 58 q 53 50 44 58 q 63 29 63 42 q 44 -10 61 4 q 0 -22 26 -24 l 8 -8 q 31 -1 21 -8 q 10 8 19 -1 q 1 29 1 17 q 10 50 1 42 q 32 58 19 58 z "},"":{"ha":265,"x_min":300,"x_max":363,"o":"m 332 747 q 353 739 344 747 q 363 718 363 731 q 344 679 361 693 q 300 667 326 665 l 308 681 q 331 688 321 681 q 310 697 319 688 q 301 718 301 706 q 310 739 301 731 q 332 747 319 747 z "},"":{"ha":296,"x_min":300,"x_max":428,"o":"m 332 747 q 353 739 344 747 q 363 718 363 731 q 344 679 361 693 q 300 667 326 665 l 308 681 q 331 688 321 681 q 310 697 319 688 q 301 718 301 706 q 310 739 301 731 q 332 747 319 747 m 397 747 q 419 739 410 747 q 428 718 428 731 q 409 679 426 693 q 365 667 392 665 l 372 681 q 396 688 385 681 q 376 697 385 688 q 367 718 367 706 q 376 739 367 731 q 397 747 385 747 z "},"":{"ha":299,"x_min":300,"x_max":428,"o":"m 396 665 q 374 674 383 665 q 365 694 365 682 q 384 733 367 719 q 428 746 401 747 l 419 732 q 397 725 407 732 q 417 716 408 725 q 426 694 426 707 q 417 674 426 682 q 396 665 408 665 m 331 665 q 309 674 318 665 q 300 694 300 682 q 319 733 301 719 q 363 746 336 747 l 356 732 q 332 725 343 732 q 352 716 343 725 q 361 694 361 707 q 352 674 361 682 q 331 665 343 665 z "},"[":{"ha":322,"x_min":0,"x_max":543,"o":"m 468 768 q 442 715 461 753 q 398 626 424 678 q 342 511 372 574 q 278 383 311 449 q 214 253 246 317 q 155 134 182 189 q 107 38 128 79 q 75 -25 86 -4 l 150 -25 l 150 -35 l 69 -35 l 0 -35 q 33 25 8 -18 q 91 128 57 68 q 166 259 125 188 q 248 403 207 331 q 328 542 289 475 q 397 662 367 610 q 444 745 426 714 q 463 776 463 776 l 465 776 l 472 776 l 543 776 l 543 768 l 468 768 z "},"]":{"ha":472,"x_min":-78,"x_max":465,"o":"m -3 -25 q 36 53 7 -6 q 104 192 65 113 q 188 360 143 271 q 272 531 232 450 q 344 676 313 613 q 390 768 376 740 l 315 768 l 315 776 l 465 776 q 433 717 457 761 q 374 614 408 674 q 299 483 340 554 q 217 340 258 413 q 138 201 176 268 q 69 81 99 133 q 21 -3 39 29 q 3 -35 3 -35 l -78 -35 l -78 -25 l -3 -25 z "},"|":{"ha":322,"x_min":0,"x_max":456,"o":"m 456 776 l 56 -35 l 0 -35 l 400 776 l 456 776 l 456 776 z "},"(":{"ha":196,"x_min":-4,"x_max":436,"o":"m 435 768 q 378 739 411 769 q 309 656 346 708 q 233 537 272 604 q 160 397 194 469 q 96 254 125 325 q 50 125 67 183 q 31 26 33 67 q 44 -26 28 -15 l 39 -33 q 2 33 8 -14 q 7 143 -4 81 q 45 279 18 206 q 108 426 72 353 q 187 566 144 499 q 273 683 229 633 q 359 758 317 732 q 436 776 401 785 l 435 768 z "},")":{"ha":374,"x_min":-56,"x_max":385,"o":"m -54 17 q 1 46 -32 15 q 72 128 35 76 q 147 248 108 181 q 221 388 186 315 q 285 531 256 460 q 331 660 314 601 q 350 759 347 718 q 336 811 353 800 l 342 818 q 378 751 372 799 q 374 642 385 704 q 335 506 363 579 q 272 359 308 432 q 194 219 236 286 q 108 102 151 151 q 22 26 64 53 q -56 8 -21 0 l -54 17 z "},"*":{"ha":382,"x_min":258,"x_max":475,"o":"m 358 688 l 388 747 l 443 747 l 390 679 l 451 676 l 475 625 l 390 646 l 418 590 l 383 546 l 360 638 l 308 596 l 258 618 l 338 661 l 289 707 l 307 760 l 358 688 l 358 688 z "},"\\":{"ha":685,"x_min":0,"x_max":604,"o":"m 40 778 l 604 -1 l 564 -32 l 0 747 l 40 778 z "},"/":{"ha":489,"x_min":0,"x_max":604,"o":"m 604 747 l 40 -32 l 0 -1 l 564 778 l 604 747 z "},"":{"ha":457,"x_min":0,"x_max":604,"o":"m 604 747 l 40 -32 l 0 -1 l 564 778 l 604 747 z "},"<":{"ha":333,"x_min":63,"x_max":251,"o":"m 83 235 l 226 133 l 221 78 l 63 226 l 65 247 l 251 360 l 246 304 l 83 235 l 83 235 z "},">":{"ha":333,"x_min":63,"x_max":251,"o":"m 88 304 l 93 360 l 251 211 l 249 190 l 63 78 l 68 133 l 231 203 l 88 304 z "},"":{"ha":394,"x_min":68,"x_max":349,"o":"m 349 417 l 257 364 l 332 290 l 290 247 l 204 333 l 99 272 l 68 324 l 160 376 l 85 451 l 128 494 l 214 408 l 318 469 l 349 417 l 349 417 z "},"-":{"ha":472,"x_min":97,"x_max":388,"o":"m 99 340 l 97 400 l 386 401 l 388 340 l 99 340 l 99 340 z "},"+":{"ha":467,"x_min":89,"x_max":379,"o":"m 379 340 l 257 340 l 226 224 l 167 239 l 194 340 l 90 340 l 89 400 l 211 401 l 242 518 l 300 503 l 274 401 l 378 401 l 379 340 l 379 340 z "},"=":{"ha":524,"x_min":121,"x_max":422,"o":"m 121 339 l 410 340 l 410 279 l 121 279 l 121 339 m 422 404 l 133 404 l 133 464 l 422 465 l 422 404 z "},"%":{"ha":524,"x_min":0,"x_max":650,"o":"m 650 749 q 627 719 650 749 q 567 640 604 689 q 482 528 531 592 q 382 398 433 465 q 279 265 331 331 q 185 142 228 199 q 110 47 142 86 q 68 -7 79 7 l 0 7 q 45 60 11 21 q 126 155 79 100 q 229 275 172 210 q 343 406 286 340 q 453 534 400 472 q 549 644 507 596 q 615 721 590 692 q 640 750 640 750 l 650 749 m 321 536 q 271 561 285 539 q 260 611 257 583 q 273 656 263 633 q 299 695 283 678 q 335 723 315 713 q 379 731 356 733 q 426 705 414 728 q 436 653 439 682 q 424 610 433 632 q 399 572 414 589 q 363 544 383 554 q 321 536 343 535 m 371 193 q 417 167 404 190 q 426 115 431 144 q 414 73 424 94 q 389 34 404 51 q 354 7 374 17 q 313 -1 335 -3 q 263 24 276 1 q 251 74 249 46 q 263 118 253 96 q 290 158 274 140 q 327 185 307 175 q 371 193 347 196 m 393 715 q 351 694 372 718 q 317 638 329 669 q 305 579 304 607 q 328 549 306 551 q 362 555 346 546 q 391 579 378 564 q 413 614 404 594 q 424 653 421 633 q 421 692 426 671 q 393 715 415 713 m 415 115 q 412 154 418 133 q 385 178 406 175 q 342 156 364 181 q 308 101 321 132 q 297 42 296 69 q 319 11 297 14 q 353 17 338 8 q 382 42 369 26 q 403 77 394 58 q 415 115 413 96 z "},"!":{"ha":354,"x_min":0,"x_max":444,"o":"m 444 749 q 400 669 433 726 q 324 538 367 611 q 234 383 281 464 q 148 235 188 303 q 83 124 108 168 q 57 81 57 81 l 47 81 q 68 124 47 81 q 122 235 89 168 q 194 383 154 303 q 269 538 233 464 q 335 670 306 613 q 375 749 364 728 l 444 749 m 31 60 q 51 51 43 60 q 60 29 60 42 q 51 8 60 17 q 31 -1 43 -1 q 9 8 18 -1 q 0 29 0 17 q 9 51 0 42 q 31 60 18 60 z "},"{":{"ha":190,"x_min":-3,"x_max":438,"o":"m 436 768 q 381 747 408 769 q 326 687 353 724 q 272 606 299 650 q 220 525 246 563 q 170 461 194 488 q 122 433 146 435 q 129 374 135 413 q 109 288 124 335 q 76 192 94 242 q 44 97 57 142 q 28 19 31 53 q 46 -26 26 -14 l 42 -33 q 3 27 10 -14 q 4 117 -3 68 q 28 220 11 167 q 59 319 44 274 q 81 399 74 365 q 79 442 89 432 q 79 456 74 446 q 92 464 85 465 q 126 485 106 461 q 174 547 147 510 q 233 628 201 585 q 298 708 264 672 q 367 764 332 743 q 438 776 403 785 l 436 768 z "},"}":{"ha":374,"x_min":-85,"x_max":356,"o":"m -83 7 q -28 28 -56 4 q 27 88 0 51 q 81 169 54 125 q 133 250 107 213 q 183 314 158 288 q 231 342 207 340 q 223 401 217 363 q 244 487 229 440 q 277 583 258 533 q 309 678 296 633 q 324 755 322 722 q 307 801 326 788 l 311 808 q 349 747 343 788 q 349 658 356 707 q 325 555 342 608 q 294 456 308 501 q 272 376 279 410 q 274 333 264 343 q 274 319 279 329 q 261 311 268 310 q 226 290 247 314 q 178 228 206 265 q 120 147 151 190 q 55 67 89 103 q -15 11 21 32 q -85 -1 -50 -10 l -83 7 z "},"_":{"ha":443,"x_min":-3,"x_max":449,"o":"m -1 -65 l -3 -28 l 449 -28 l 449 -65 l -1 -65 l -1 -65 z "},"?":{"ha":475,"x_min":0,"x_max":525,"o":"m 31 60 q 51 51 43 60 q 60 29 60 42 q 51 8 60 17 q 31 -1 43 -1 q 9 8 18 -1 q 0 29 0 17 q 9 51 0 42 q 31 60 18 60 m 358 747 q 425 735 394 747 q 478 702 456 724 q 513 651 500 681 q 525 586 525 621 q 497 485 525 528 q 424 408 468 443 q 324 340 379 372 q 217 272 269 308 q 121 188 165 235 q 53 79 76 142 l 42 83 q 110 201 68 151 q 201 288 153 250 q 298 357 249 325 q 387 422 347 389 q 451 495 426 456 q 476 589 476 535 q 467 644 476 618 q 442 691 458 671 q 401 722 425 711 q 347 733 376 733 q 278 716 308 733 q 224 672 247 699 q 185 611 200 644 q 161 543 169 578 l 150 546 q 185 636 163 599 q 235 699 207 674 q 294 735 263 724 q 358 747 326 747 z "},"@":{"ha":1061,"x_min":35,"x_max":1011,"o":"m 688 747 q 838 710 775 740 q 938 633 900 679 q 994 528 976 586 q 1010 407 1011 469 q 978 243 1007 324 q 900 99 950 163 q 778 -3 850 36 q 619 -43 707 -43 q 569 -38 593 -43 q 525 -22 544 -33 q 493 8 506 -11 q 479 56 481 28 q 481 98 476 75 q 492 146 485 121 q 462 94 478 121 q 428 47 446 68 q 390 13 410 26 q 350 0 371 0 q 292 30 310 0 q 274 96 274 60 q 294 190 274 138 q 347 288 314 242 q 422 367 379 335 q 513 399 465 399 q 556 378 544 399 q 565 333 567 358 q 578 359 572 347 q 588 382 583 371 l 654 382 q 616 307 639 351 q 571 216 593 263 q 533 124 549 169 q 518 47 518 79 q 542 -11 518 7 q 599 -31 565 -29 q 747 15 681 -33 q 859 138 813 64 q 931 297 906 211 q 957 454 957 382 q 942 560 957 510 q 896 648 928 610 q 812 710 864 686 q 688 736 760 733 q 485 700 579 739 q 316 595 390 661 q 190 445 242 529 q 113 273 138 361 q 93 102 88 185 q 139 -43 99 19 q 257 -140 179 -106 q 456 -162 335 -174 l 456 -174 q 236 -140 324 -179 q 101 -34 149 -101 q 44 120 54 33 q 59 297 35 207 q 138 474 83 388 q 273 624 192 560 q 459 723 354 688 q 688 747 564 758 m 396 26 q 431 63 414 40 q 462 111 447 86 q 489 162 476 136 q 511 207 501 188 q 530 254 521 231 q 550 299 539 278 q 556 326 554 311 q 555 355 557 342 q 545 378 553 368 q 521 388 538 388 q 475 368 499 388 q 429 317 451 349 q 387 249 407 286 q 352 174 367 211 q 329 103 338 136 q 322 51 321 71 q 332 19 322 28 q 356 10 342 10 q 396 26 379 13 z "},"":{"ha":593,"x_min":0,"x_max":672,"o":"m 563 746 q 640 723 607 747 q 672 650 672 699 q 660 601 672 625 q 625 558 649 576 l 619 567 q 651 605 640 583 q 661 650 661 626 q 638 708 661 686 q 578 731 614 731 q 499 705 535 731 q 432 637 463 679 q 375 539 401 594 q 325 424 349 483 l 444 425 l 446 364 l 303 364 q 245 209 272 282 q 189 90 218 136 q 289 63 238 76 q 392 50 340 50 q 500 80 467 50 q 533 153 533 110 l 544 153 q 502 42 544 85 q 392 0 460 0 q 281 24 336 0 q 175 71 226 47 q 124 18 151 38 q 65 -1 97 -1 q 17 14 33 -3 q 0 53 0 31 q 18 95 0 76 q 72 114 36 114 q 108 110 90 114 q 146 103 126 107 q 191 218 169 149 q 240 364 213 288 l 157 364 l 156 424 l 263 424 q 315 544 286 486 q 380 647 343 603 q 461 719 417 692 q 563 746 506 746 m 57 13 q 100 33 81 14 q 138 88 119 53 q 107 97 124 93 q 72 103 90 101 q 26 88 40 104 q 11 54 11 72 q 22 25 11 38 q 57 13 33 13 z "},"$":{"ha":561,"x_min":31,"x_max":631,"o":"m 540 731 q 603 681 578 714 q 631 603 629 649 q 613 532 631 564 q 567 474 594 500 l 560 482 q 602 536 585 506 q 619 603 619 567 q 594 674 618 646 q 533 717 569 703 l 386 418 q 444 313 417 367 q 469 200 471 260 q 449 113 469 150 q 395 50 428 75 q 321 13 363 25 q 236 0 279 0 q 182 6 206 0 l 163 -35 l 107 -35 l 135 21 q 60 83 90 43 q 32 185 31 124 q 57 276 32 229 q 135 363 82 322 l 142 354 q 67 271 90 315 q 43 182 43 226 q 71 90 43 128 q 140 35 99 53 l 328 413 q 285 499 304 456 q 265 586 265 542 q 283 656 265 625 q 328 706 300 686 q 390 737 356 726 q 458 747 425 747 q 475 747 467 747 q 492 744 483 746 l 507 776 l 564 776 l 540 731 m 410 201 q 394 283 410 243 q 358 361 379 322 l 189 19 q 210 17 200 17 q 231 17 219 17 q 297 28 264 17 q 354 63 329 40 q 394 121 379 86 q 410 201 410 156 m 483 728 l 472 728 q 418 719 444 728 q 372 694 392 711 q 339 649 351 676 q 326 586 326 622 q 335 528 326 557 q 357 472 343 500 l 483 728 z "},"":{"ha":528,"x_min":-1,"x_max":576,"o":"m 294 213 q 282 213 288 213 q 269 214 276 213 q 299 153 286 183 q 311 89 311 122 q 297 26 311 53 q 258 -18 282 0 q 205 -45 235 -36 q 144 -54 175 -54 q 90 -46 117 -54 q 43 -21 64 -37 q 10 21 22 -4 q -1 78 -1 46 q 16 143 -1 110 q 72 206 33 176 l 76 199 q 23 140 40 171 q 6 76 6 108 q 17 24 6 47 q 48 -14 29 1 q 91 -36 67 -29 q 140 -43 115 -43 q 188 -35 165 -43 q 228 -10 211 -26 q 257 32 246 7 q 268 90 268 57 q 252 161 268 126 q 217 229 236 196 q 181 296 197 263 q 165 365 165 329 q 178 415 165 393 q 210 451 190 436 q 254 473 229 465 q 303 481 279 481 q 351 472 328 481 q 393 449 375 464 q 368 494 382 471 q 342 540 354 517 q 323 585 331 563 q 315 632 315 608 q 328 681 315 660 q 360 717 340 703 q 404 740 379 732 q 453 747 429 747 q 497 740 475 747 q 537 720 519 733 q 565 688 554 707 q 576 644 576 669 q 563 594 576 617 q 531 551 550 571 l 526 557 q 556 597 544 575 q 568 644 568 618 q 535 710 568 688 q 464 733 503 733 q 391 709 424 733 q 358 632 358 685 q 374 564 358 597 q 410 497 390 531 q 445 428 429 464 q 461 356 461 393 q 447 293 461 319 q 408 249 432 267 q 355 222 385 231 q 294 213 325 213 m 418 357 q 415 392 418 375 q 404 425 411 408 q 365 456 389 444 q 314 467 340 467 q 241 442 274 467 q 208 365 208 418 q 226 294 208 329 q 263 225 243 260 q 276 224 269 224 q 290 224 283 224 q 338 232 315 224 q 378 257 361 240 q 407 299 396 274 q 418 357 418 324 z "},"":{"ha":547,"x_min":0,"x_max":535,"o":"m 413 225 l 290 225 q 240 143 268 183 q 179 71 213 103 q 105 19 146 39 q 15 0 64 0 l 0 0 l 0 11 q 67 30 35 11 q 127 79 99 49 q 181 148 156 110 q 228 225 207 186 l 124 225 l 122 285 l 260 285 q 276 318 268 303 q 290 347 283 333 q 315 399 303 374 q 339 451 326 425 q 289 394 317 419 q 225 368 261 368 q 170 388 189 368 q 151 443 151 408 q 178 557 153 485 q 261 744 203 629 l 328 744 q 307 703 322 735 q 272 631 292 672 q 235 546 253 590 q 210 464 218 501 q 206 402 201 426 q 238 379 211 378 q 278 396 258 379 q 315 436 297 413 q 349 488 333 460 q 378 542 365 517 q 422 644 400 593 q 468 744 444 694 l 535 744 q 485 641 511 696 q 435 530 460 586 q 385 419 410 474 q 336 317 360 364 q 329 301 333 308 q 321 285 325 293 l 411 285 l 413 225 z "},"&":{"ha":583,"x_min":26,"x_max":572,"o":"m 219 1 q 142 17 179 4 q 79 53 106 29 q 40 111 53 76 q 33 192 26 146 q 60 263 39 231 q 113 320 82 294 q 181 368 143 346 q 258 410 218 390 q 280 506 265 450 q 319 613 294 561 q 381 703 344 665 q 469 744 417 740 q 534 724 510 747 q 558 663 558 701 q 531 569 558 610 q 462 495 503 528 q 374 436 421 463 q 289 389 328 410 q 281 307 283 344 q 278 243 279 269 q 281 136 278 197 q 300 19 285 75 q 388 80 357 36 q 428 172 419 124 q 431 232 433 203 q 417 285 428 261 q 388 324 407 308 q 344 343 369 340 l 346 354 q 412 339 385 353 q 456 303 439 325 q 478 252 472 281 q 481 193 485 224 q 463 135 476 164 q 428 81 450 106 q 374 37 406 56 q 304 8 343 18 q 362 -79 324 -51 q 442 -104 400 -107 q 513 -76 481 -103 q 561 4 546 -49 l 572 1 q 522 -83 557 -54 q 444 -115 486 -112 q 347 -90 394 -119 q 274 3 299 -60 q 248 1 261 1 q 219 1 235 0 m 294 428 q 374 467 329 444 q 456 517 418 489 q 521 581 494 546 q 547 661 547 617 q 526 715 547 694 q 471 733 506 736 q 394 695 425 731 q 343 612 364 660 q 311 513 322 564 q 294 428 300 461 m 251 367 q 145 285 190 331 q 90 174 100 240 q 118 61 82 106 q 221 13 154 17 q 271 14 250 10 q 244 131 250 69 q 240 240 239 193 q 243 297 240 264 q 251 367 246 329 z "},"#":{"ha":808,"x_min":46,"x_max":818,"o":"m 788 517 l 671 517 l 533 242 l 657 240 l 626 181 l 504 181 l 399 -35 l 331 -35 l 438 181 l 236 182 l 129 -35 l 63 -35 l 169 182 l 46 182 l 76 243 l 199 243 l 335 518 l 207 519 l 238 579 l 365 579 l 463 776 l 531 776 l 432 578 l 633 578 l 731 776 l 799 776 l 700 578 l 818 576 l 788 517 m 467 242 l 603 517 l 403 518 l 267 242 l 467 242 z "},"":{"ha":325,"x_min":154,"x_max":308,"o":"m 256 490 l 308 472 l 206 415 l 200 417 l 154 525 l 207 507 l 214 449 l 256 490 z "},"":{"ha":188,"x_min":-36,"x_max":204,"o":"m 204 226 q 174 166 193 204 q 129 91 154 128 q 76 27 104 54 q 21 0 49 0 q -23 19 -10 -1 q -36 68 -36 40 q -6 199 -36 118 q 74 382 25 281 l 140 382 q 111 327 133 369 q 64 233 89 285 q 19 128 39 181 q 0 43 0 76 q 6 19 0 31 q 26 8 11 8 q 76 36 50 8 q 125 101 101 64 q 167 174 149 138 q 196 231 186 211 l 204 226 z "},"":{"ha":383,"x_min":-231,"x_max":458,"o":"m 400 226 q 369 166 389 204 q 325 91 350 128 q 272 27 300 54 q 217 0 244 0 q 173 19 186 -1 q 160 68 160 40 q 179 169 160 107 q 138 120 161 142 q 82 99 114 99 q 49 107 63 99 q 26 126 36 115 q -69 -100 -22 14 q -165 -324 -117 -214 l -231 -324 q -126 -73 -174 -187 q -33 139 -78 42 l -35 139 q -50 144 -43 139 q -56 158 -57 150 q -48 174 -56 169 q -32 178 -40 178 q -18 175 -26 178 q 110 442 53 333 q 215 619 167 551 q 309 717 264 686 q 401 747 354 747 q 441 734 425 747 q 457 697 457 721 q 431 630 458 663 q 364 567 404 597 q 278 506 324 536 q 197 446 232 476 q 172 419 183 432 q 150 392 161 406 q 88 265 118 329 q 29 135 58 201 q 53 115 40 124 q 82 107 65 107 q 118 117 101 107 q 149 143 135 128 q 175 178 164 158 q 196 214 186 197 q 228 294 210 251 q 269 382 247 336 l 336 382 q 307 327 329 369 q 260 233 285 285 q 215 128 235 181 q 196 43 196 76 q 201 19 196 31 q 222 8 207 8 q 272 36 246 8 q 321 101 297 64 q 363 174 344 138 q 392 231 382 211 l 400 226 m 406 738 q 345 708 376 738 q 283 633 314 678 q 222 533 251 588 q 169 432 193 479 q 242 491 194 460 q 336 556 290 522 q 416 626 382 590 q 449 697 450 661 q 406 738 446 738 m 333 414 q 313 423 321 414 q 304 444 304 432 q 313 466 304 457 q 333 475 321 475 q 355 466 346 475 q 364 444 364 457 q 355 423 364 432 q 333 414 346 414 z "},"":{"ha":383,"x_min":-231,"x_max":647,"o":"m 196 43 q 201 19 196 31 q 222 8 207 8 q 272 36 246 8 q 321 101 297 64 q 363 174 344 138 q 392 231 382 211 l 400 226 q 369 166 389 204 q 325 91 350 128 q 272 27 300 54 q 217 0 244 0 q 173 19 186 -1 q 160 68 160 40 q 181 169 160 108 q 138 120 161 142 q 82 99 114 99 q 49 107 63 99 q 26 126 36 115 q -69 -100 -22 14 q -165 -324 -117 -214 l -231 -324 q -126 -73 -174 -187 q -33 139 -78 42 l -35 139 q -50 144 -43 139 q -56 158 -57 150 q -48 174 -56 169 q -32 178 -40 178 q -18 175 -26 178 q 110 442 53 333 q 215 619 167 551 q 309 717 264 686 q 401 747 354 747 q 441 734 425 747 q 457 697 457 721 q 454 675 457 689 q 522 728 486 708 q 593 747 557 747 q 632 734 617 747 q 647 697 647 721 q 629 642 647 668 q 582 590 611 615 q 517 540 553 564 q 447 491 482 515 q 384 442 413 467 q 340 392 356 417 q 301 313 325 361 q 253 215 276 265 q 213 117 231 164 q 196 43 196 71 m 197 446 q 172 419 183 432 q 150 392 161 406 q 88 265 118 329 q 29 135 58 201 q 53 115 40 124 q 82 107 65 107 q 118 117 101 107 q 149 142 135 126 q 174 177 163 158 q 194 213 186 196 q 215 263 204 236 q 239 318 226 289 q 265 374 250 343 q 297 438 279 404 q 334 508 314 472 q 376 576 354 543 q 285 510 335 543 q 197 446 236 478 m 596 738 q 536 708 568 738 q 473 633 504 678 q 413 533 442 588 q 360 432 383 479 q 433 491 385 460 q 526 556 481 522 q 606 626 572 590 q 639 697 640 661 q 596 738 636 738 m 406 738 q 345 708 376 738 q 283 633 314 678 q 222 533 251 588 q 169 432 193 479 q 215 471 186 450 q 274 513 243 492 q 338 558 306 535 q 396 604 371 581 q 417 633 407 619 q 439 660 428 647 q 449 697 449 678 q 406 738 446 738 z "},"":{"ha":750,"x_min":-1,"x_max":1069,"o":"m 413 231 l 411 290 l 539 290 q 562 349 550 319 q 586 408 574 379 q 637 525 611 468 q 693 633 663 582 q 758 726 724 683 q 833 799 792 768 q 729 815 781 804 q 627 838 678 826 q 526 860 576 850 q 424 874 475 871 q 275 858 346 878 q 149 797 204 839 q 57 693 93 756 q 15 547 21 631 q 25 451 11 496 q 67 370 39 406 q 138 313 96 335 q 232 289 179 292 q 335 310 289 285 q 414 376 381 335 q 466 469 447 417 q 488 571 485 521 q 482 647 490 614 q 457 703 474 681 q 418 737 440 725 q 371 750 396 749 q 318 742 344 751 q 270 715 292 733 q 234 671 249 697 q 217 610 219 644 q 232 544 214 574 q 290 507 250 514 l 289 499 q 226 536 246 506 q 208 607 206 567 q 226 675 211 646 q 266 724 242 704 q 319 752 290 743 q 379 760 349 761 q 440 745 410 758 q 492 707 469 732 q 528 645 515 682 q 538 561 540 608 q 508 450 533 503 q 442 358 482 397 q 347 298 401 319 q 233 281 293 276 q 135 306 179 283 q 62 364 92 328 q 17 447 32 400 q 7 547 3 494 q 49 699 13 633 q 142 806 85 764 q 271 867 199 849 q 421 882 343 886 q 527 869 475 879 q 631 846 579 858 q 736 822 683 833 q 843 806 789 810 q 931 847 883 833 q 1026 858 979 861 q 1069 836 1069 856 q 1058 818 1069 825 q 1031 807 1047 811 q 997 801 1015 803 q 963 797 978 799 q 922 795 943 796 q 882 796 901 794 q 810 721 843 765 q 749 623 778 676 q 694 509 719 569 q 643 386 668 449 q 624 338 633 363 q 604 290 615 314 l 700 292 l 701 231 l 578 231 q 520 110 550 168 q 456 6 490 53 q 511 -35 483 -14 q 567 -78 539 -57 q 633 -131 594 -100 q 713 -190 671 -161 q 799 -237 756 -218 q 881 -256 843 -256 q 996 -179 953 -256 l 1004 -183 q 940 -251 976 -231 q 856 -271 904 -271 q 766 -258 810 -271 q 681 -224 722 -246 q 602 -176 640 -203 q 529 -124 564 -150 q 474 -81 501 -103 q 419 -39 447 -60 q 315 -117 371 -90 q 189 -144 260 -144 q 107 -132 142 -144 q 49 -100 72 -119 q 13 -56 25 -81 q 0 -7 0 -32 q 38 76 -1 39 q 157 115 78 113 q 291 92 228 117 q 415 31 354 68 q 467 125 443 75 q 514 231 490 175 l 413 231 m 385 -14 q 251 72 317 38 q 121 100 185 106 q 38 65 65 96 q 8 -6 10 33 q 19 -51 8 -29 q 50 -92 29 -74 q 102 -122 71 -111 q 175 -133 133 -133 q 295 -100 246 -133 q 385 -14 344 -67 m 893 804 q 924 804 906 804 q 961 806 942 804 q 987 808 971 806 q 1019 813 1003 810 q 1047 822 1035 817 q 1058 836 1058 828 q 1049 844 1058 842 q 1031 847 1040 847 q 958 837 996 850 q 893 804 921 824 z "},"":{"ha":188,"x_min":-51,"x_max":453,"o":"m -50 340 l -51 400 l 82 400 q 143 517 108 456 q 218 629 178 578 q 303 714 258 681 q 397 747 349 747 q 436 734 421 747 q 451 697 451 721 q 415 618 453 656 q 328 544 378 581 q 227 473 278 508 q 150 400 176 438 l 238 401 l 239 340 l 118 340 q 79 263 100 304 q 41 179 58 221 q 12 101 24 138 q 0 43 0 65 q 6 19 0 31 q 26 8 11 8 q 76 36 50 8 q 125 101 101 64 q 167 174 149 138 q 196 231 186 211 l 204 226 q 174 166 193 204 q 129 91 154 128 q 76 27 104 54 q 21 0 49 0 q -23 19 -10 -1 q -36 68 -36 40 q -15 174 -36 111 q 43 318 7 238 l 53 340 l -50 340 m 400 738 q 340 708 372 738 q 277 633 308 678 q 217 533 246 588 q 164 432 188 479 q 237 491 189 460 q 331 556 285 522 q 410 626 376 590 q 443 697 444 661 q 400 738 440 738 z "},"":{"ha":838,"x_min":-1,"x_max":1110,"o":"m 376 714 l 376 725 q 431 714 407 725 q 470 685 454 703 q 494 643 486 667 q 503 593 503 619 q 490 521 504 553 q 450 467 475 489 q 393 432 425 444 q 328 419 361 419 q 248 435 282 419 q 190 475 214 450 q 155 533 167 500 q 142 603 143 567 q 158 692 142 647 q 211 774 175 738 q 303 834 247 811 q 433 858 358 857 q 543 852 486 858 q 658 838 600 846 q 775 821 717 829 q 888 808 833 813 q 974 847 926 833 q 1068 858 1022 861 q 1110 836 1110 856 q 1099 818 1110 825 q 1072 807 1088 811 q 1038 801 1056 803 q 1004 797 1019 799 q 963 795 985 796 q 922 794 942 794 q 852 714 889 768 q 777 590 815 660 q 699 440 739 519 q 618 281 658 360 q 537 130 578 201 q 456 6 496 58 q 511 -35 483 -14 q 567 -78 539 -57 q 633 -131 594 -100 q 713 -190 671 -161 q 799 -237 756 -218 q 881 -256 843 -256 q 997 -179 951 -256 l 1004 -183 q 940 -251 976 -231 q 856 -271 904 -271 q 766 -258 810 -271 q 681 -224 722 -246 q 602 -176 640 -203 q 529 -124 564 -150 q 474 -81 501 -103 q 419 -39 447 -60 q 315 -117 371 -90 q 189 -144 260 -144 q 108 -132 143 -144 q 49 -100 72 -119 q 13 -56 25 -81 q 0 -7 0 -32 q 38 76 -1 39 q 157 115 78 113 q 291 92 228 117 q 415 31 354 68 q 481 148 444 79 q 556 293 517 217 q 635 447 594 369 q 717 594 676 525 q 796 715 757 663 q 869 794 835 768 q 651 803 760 796 q 433 808 542 810 q 306 788 358 807 q 219 738 253 768 q 169 669 185 707 q 154 593 153 631 q 168 528 156 556 q 201 481 181 500 q 249 453 222 463 q 303 443 275 443 q 358 452 331 443 q 408 481 386 461 q 444 531 429 501 q 460 601 458 561 q 440 678 461 646 q 376 714 419 711 m 385 -14 q 251 72 317 38 q 121 100 185 106 q 38 65 65 96 q 8 -6 10 33 q 19 -51 8 -29 q 50 -92 29 -74 q 102 -122 71 -111 q 175 -133 133 -133 q 295 -100 246 -133 q 385 -14 344 -67 m 936 806 q 1001 806 969 803 q 1028 808 1011 806 q 1060 813 1044 810 q 1087 822 1075 817 q 1099 836 1099 828 q 1091 844 1100 842 q 1072 847 1082 847 q 1001 838 1038 850 q 936 806 964 825 m 756 999 l 808 981 l 706 924 l 700 925 l 654 1033 l 707 1015 l 714 957 l 756 999 z "},"":{"ha":399,"x_min":-49,"x_max":414,"o":"m 407 231 l 414 226 q 379 159 399 197 q 335 87 360 121 q 281 28 310 53 q 217 3 251 4 q 153 14 183 1 q 90 39 122 26 q 38 9 64 19 q -11 -1 13 -1 q -37 8 -26 -1 q -47 32 -49 17 q -31 60 -46 51 q 3 68 -15 68 q 38 65 21 68 q 71 56 56 61 q 134 127 101 85 q 197 215 167 169 q 254 306 228 261 q 300 385 281 351 q 258 382 283 383 q 203 381 232 381 q 147 387 175 382 q 97 401 118 392 q 51 301 75 350 q 3 203 28 251 l -4 207 q 44 305 21 256 q 90 404 67 354 q 69 425 75 414 q 63 447 63 436 q 73 476 63 464 q 96 489 83 489 q 113 482 107 489 q 118 464 118 475 q 113 435 118 450 q 100 408 107 419 q 149 394 121 399 q 208 390 178 390 q 264 390 238 389 q 306 393 290 392 q 333 395 321 394 q 354 396 344 396 l 375 396 q 372 389 375 396 q 363 374 368 382 q 354 358 358 365 q 350 351 350 351 q 297 269 326 313 q 235 185 267 226 q 168 108 203 144 q 99 46 133 71 q 158 22 129 33 q 217 11 186 11 q 277 36 249 13 q 329 94 306 60 q 372 165 353 128 q 407 231 392 203 m 64 49 q 3 60 33 60 q -24 53 -11 60 q -39 31 -37 46 q -31 14 -39 19 q -11 8 -22 8 q 24 19 6 8 q 64 49 43 29 m 93 413 q 104 439 99 425 q 110 465 110 453 q 96 481 110 481 q 77 469 83 481 q 71 447 71 458 q 93 413 71 426 m 282 490 l 335 472 l 232 415 l 226 417 l 181 525 l 233 507 l 240 449 l 282 490 z "},"":{"ha":290,"x_min":300,"x_max":363,"o":"m 331 665 q 309 674 318 665 q 300 694 300 682 q 319 733 301 719 q 363 746 336 747 l 354 732 q 332 725 342 732 q 352 716 343 725 q 361 694 361 707 q 352 674 361 682 q 331 665 343 665 z "},"":{"ha":457,"x_min":97,"x_max":388,"o":"m 99 192 l 97 251 l 386 253 l 388 192 l 99 192 l 99 192 z "},"":{"ha":639,"x_min":97,"x_max":546,"o":"m 99 193 l 97 253 l 544 254 l 546 193 l 99 193 l 99 193 z "},"":{"ha":349,"x_min":-56,"x_max":364,"o":"m 204 43 q 294 124 260 71 q 357 231 329 176 l 364 226 q 324 153 343 186 q 281 94 306 121 q 225 47 257 67 q 147 11 193 26 q 114 2 131 4 q 82 0 97 0 q 0 21 32 -1 q -44 74 -32 43 q -44 141 -56 106 q 4 203 -33 176 l -3 207 q 38 288 17 247 q 78 371 58 329 q 67 403 71 386 q 64 438 63 421 q 76 476 65 464 q 99 489 88 489 q 121 465 121 489 q 109 421 121 446 q 90 376 97 396 q 133 319 107 347 q 183 260 158 290 q 225 200 207 231 q 244 136 243 169 q 233 81 244 104 q 204 43 222 58 m 56 226 q 76 217 68 226 q 85 196 85 208 q 76 174 85 183 q 56 165 68 165 q 34 174 43 165 q 25 196 25 183 q 26 207 25 203 q -32 149 -17 183 q -39 84 -47 115 q 1 31 -31 53 q 82 10 32 8 q 162 47 139 11 q 183 135 185 83 q 172 194 183 165 q 144 250 160 222 q 112 305 129 278 q 82 360 94 332 q 43 281 63 319 q 4 203 24 243 q 28 217 11 207 q 56 226 44 226 m 85 386 q 102 426 92 403 q 113 465 113 449 q 99 481 113 481 q 82 470 90 481 q 72 439 74 460 q 74 412 71 425 q 85 386 78 399 m 199 568 l 251 550 l 149 493 l 143 494 l 97 603 l 150 585 l 157 526 l 199 568 z "},"":{"ha":576,"x_min":-17,"x_max":593,"o":"m 372 225 q 355 185 363 204 q 340 146 347 165 q 326 81 326 107 q 332 38 325 54 q 352 15 339 22 q 381 8 365 8 q 447 33 415 8 q 503 91 478 57 q 549 163 529 125 q 585 231 569 201 l 593 226 q 547 141 571 182 q 497 68 524 100 q 439 17 469 36 q 372 -1 408 -1 q 310 17 338 -1 q 275 75 282 36 q 263 74 271 74 q 229 85 242 74 q 165 22 201 46 q 86 1 128 -1 q 10 40 38 3 q -14 135 -17 76 q 3 224 -12 178 q 47 310 19 271 q 113 374 75 349 q 194 399 150 399 q 274 362 251 399 q 296 274 297 325 q 281 190 294 233 q 244 107 268 146 q 255 91 247 96 q 272 86 263 86 l 274 86 q 274 120 272 101 q 283 163 276 139 q 318 244 296 203 q 370 321 340 286 q 436 377 400 356 q 510 399 472 399 q 550 384 538 399 q 564 350 563 369 q 556 314 565 332 q 525 285 546 296 q 487 270 508 276 q 443 258 465 264 q 401 245 421 253 q 372 225 382 238 m 221 90 q 204 150 201 111 q 213 196 206 172 q 233 242 221 219 q 258 282 244 264 q 285 310 272 300 q 263 363 279 339 q 215 388 246 386 q 145 353 178 389 q 88 267 113 317 q 49 165 64 217 q 35 83 35 113 q 48 33 36 56 q 94 10 60 11 q 163 31 131 8 q 221 90 196 54 m 382 244 q 415 260 397 254 q 451 269 433 265 q 486 278 468 274 q 519 292 504 283 q 547 319 538 303 q 554 351 556 336 q 545 377 554 367 q 519 388 536 388 q 483 376 501 388 q 447 344 465 364 q 413 298 429 324 q 382 244 396 272 z "},"":{"ha":354,"x_min":0,"x_max":444,"o":"m 0 -1 q 44 78 11 19 q 121 210 78 136 q 210 364 164 283 q 297 512 257 444 q 362 623 336 579 q 388 667 388 667 l 397 667 q 376 623 397 667 q 323 512 356 579 q 251 364 290 444 q 175 209 211 283 q 110 77 139 135 q 69 -1 81 19 l 0 -1 m 414 688 q 393 697 401 688 q 385 718 385 706 q 393 740 385 731 q 414 749 401 749 q 435 740 426 749 q 444 718 444 731 q 435 697 444 706 q 414 688 426 688 z "},"":{"ha":357,"x_min":161,"x_max":331,"o":"m 203 513 l 258 513 l 192 425 l 161 428 l 203 513 m 275 513 l 331 513 l 264 425 l 233 428 l 275 513 z "},"\"":{"ha":381,"x_min":272,"x_max":447,"o":"m 314 743 l 369 743 l 303 656 l 272 658 l 314 743 m 392 743 l 447 743 l 381 656 l 350 658 l 392 743 z "},"":{"ha":475,"x_min":39,"x_max":564,"o":"m 533 688 q 513 697 521 688 q 504 718 504 706 q 513 740 504 731 q 533 749 521 749 q 555 740 546 749 q 564 718 564 731 q 555 697 564 706 q 533 688 546 688 m 206 0 q 139 12 169 0 q 86 45 108 24 q 51 97 64 67 q 39 161 39 126 q 67 262 39 219 q 140 340 96 304 q 240 407 185 375 q 347 476 294 439 q 443 558 399 513 q 511 668 488 604 l 522 664 q 453 547 496 596 q 363 460 411 497 q 266 390 315 422 q 177 325 217 358 q 113 252 138 292 q 88 158 88 213 q 97 102 88 129 q 122 56 106 75 q 163 25 139 36 q 217 14 188 14 q 286 31 256 14 q 340 76 317 49 q 379 136 364 103 q 403 204 394 169 l 414 201 q 379 111 401 149 q 329 49 357 74 q 269 12 301 24 q 206 0 238 0 z "},"":{"ha":126,"x_min":0,"x_max":63,"o":"m 32 58 q 53 50 44 58 q 63 29 63 42 q 44 -10 61 4 q 0 -22 26 -24 l 8 -8 q 31 -1 21 -8 q 10 8 19 -1 q 1 29 1 17 q 10 50 1 42 q 32 58 19 58 z "},"":{"ha":157,"x_min":0,"x_max":136,"o":"m 32 58 q 53 50 44 58 q 63 29 63 42 q 44 -10 61 4 q 0 -22 26 -24 l 8 -8 q 31 -1 21 -8 q 10 8 19 -1 q 1 29 1 17 q 10 50 1 42 q 32 58 19 58 m 106 58 q 127 50 118 58 q 136 29 136 42 q 117 -10 135 4 q 74 -22 100 -24 l 82 -8 q 104 -1 94 -8 q 84 8 93 -1 q 75 29 75 17 q 84 50 75 42 q 106 58 93 58 z "},"":{"ha":404,"x_min":0,"x_max":329,"o":"m 31 -1 q 9 8 18 -1 q 0 29 0 17 q 9 50 0 42 q 31 58 18 58 q 51 50 43 58 q 60 29 60 42 q 51 8 60 17 q 31 -1 43 -1 m 165 -1 q 144 8 153 -1 q 135 29 135 17 q 144 50 135 42 q 165 58 153 58 q 186 50 178 58 q 194 29 194 42 q 186 8 194 17 q 165 -1 178 -1 m 300 -1 q 278 8 288 -1 q 269 29 269 17 q 278 50 269 42 q 300 58 288 58 q 321 50 313 58 q 329 29 329 42 q 321 8 329 17 q 300 -1 313 -1 z "},"":{"ha":679,"x_min":0,"x_max":650,"o":"m 650 749 q 627 719 650 749 q 567 640 604 689 q 482 528 531 592 q 382 398 433 465 q 279 265 331 331 q 185 142 228 199 q 110 47 142 86 q 68 -7 79 7 l 0 7 q 45 60 11 21 q 126 155 79 100 q 229 275 172 210 q 343 406 286 340 q 453 534 400 472 q 549 644 507 596 q 615 721 590 692 q 640 750 640 750 l 650 749 m 321 536 q 271 561 285 539 q 260 611 257 583 q 273 656 263 633 q 299 695 283 678 q 335 723 315 713 q 379 731 356 733 q 426 705 414 728 q 436 653 439 682 q 424 610 433 632 q 399 572 414 589 q 363 544 383 554 q 321 536 343 535 m 371 193 q 417 167 404 190 q 426 115 431 144 q 414 73 424 94 q 389 34 404 51 q 354 7 374 17 q 313 -1 335 -3 q 263 24 276 1 q 251 74 249 46 q 263 118 253 96 q 290 158 274 140 q 327 185 307 175 q 371 193 347 196 m 393 715 q 351 694 372 718 q 317 638 329 669 q 305 579 304 607 q 328 549 306 551 q 362 555 346 546 q 391 579 378 564 q 413 614 404 594 q 424 653 421 633 q 421 692 426 671 q 393 715 415 713 m 415 115 q 412 154 418 133 q 385 178 406 175 q 342 156 364 181 q 308 101 321 132 q 297 42 296 69 q 319 11 297 14 q 353 17 338 8 q 382 42 369 26 q 403 77 394 58 q 415 115 413 96 m 563 193 q 609 167 596 190 q 618 115 622 144 q 606 73 615 94 q 581 34 596 51 q 546 7 565 17 q 504 -1 526 -3 q 454 24 468 1 q 443 74 440 46 q 455 118 444 96 q 482 158 465 140 q 519 185 499 175 q 563 193 539 196 m 607 115 q 603 154 610 133 q 576 178 597 175 q 534 156 556 181 q 500 101 513 132 q 488 42 488 69 q 511 11 489 14 q 545 17 529 8 q 574 42 561 26 q 595 77 586 58 q 607 115 604 96 z "},"":{"ha":808,"x_min":0,"x_max":879,"o":"m 625 332 q 616 410 622 369 q 604 492 610 450 q 594 575 599 533 q 592 657 590 617 q 606 745 592 707 q 644 809 621 783 q 696 849 667 835 q 754 863 725 863 q 824 838 794 864 q 856 756 854 811 q 808 570 856 667 q 682 379 761 474 q 687 320 685 350 q 686 261 689 290 q 655 108 681 181 q 582 -21 629 35 q 468 -110 535 -76 q 314 -143 401 -143 q 179 -119 236 -144 q 82 -53 122 -94 q 19 -69 49 -64 l 18 -58 q 44 -52 31 -56 q 74 -43 58 -49 q 18 53 36 0 q 0 164 0 107 q 17 269 0 218 q 69 362 35 321 q 153 428 104 403 q 268 454 203 453 q 346 443 308 456 q 414 406 383 431 q 463 342 444 381 q 485 254 482 304 q 481 196 486 222 q 555 262 518 228 q 625 332 592 296 m 417 146 q 432 200 428 172 q 435 253 436 228 q 381 394 431 349 q 258 439 331 439 q 154 415 200 439 q 77 352 108 392 q 28 263 46 313 q 11 161 11 213 q 30 53 11 106 q 88 -39 49 1 q 248 34 163 -14 q 417 146 333 82 m 625 261 q 625 317 626 288 q 475 178 557 244 q 415 83 458 121 q 304 44 371 44 l 304 54 q 198 -5 250 21 q 97 -49 146 -31 q 181 -99 132 -81 q 294 -118 229 -118 q 438 -86 378 -118 q 539 -2 499 -54 q 600 119 579 50 q 625 261 621 188 m 844 756 q 819 826 843 801 q 764 850 796 851 q 724 838 744 850 q 688 803 704 826 q 663 742 672 779 q 653 656 653 706 q 661 530 650 596 q 681 394 672 464 q 800 578 756 486 q 844 756 844 671 m 307 56 q 367 76 342 57 q 407 124 392 96 q 357 88 382 106 q 307 56 332 71 m 826 999 l 879 981 l 776 924 l 771 925 l 725 1033 l 778 1015 l 785 957 l 826 999 z "},"":{"ha":690,"x_min":29,"x_max":654,"o":"m 132 657 q 205 608 172 635 q 268 557 238 582 l 272 554 q 403 654 335 617 q 542 692 471 692 q 622 664 590 692 q 654 585 653 636 q 643 521 654 554 q 611 460 632 488 q 562 414 590 432 q 500 396 533 396 q 444 410 468 394 q 415 458 421 426 q 358 478 386 463 q 303 518 331 494 q 258 458 279 489 q 217 392 236 426 l 331 393 l 331 332 l 185 332 l 154 267 l 318 268 l 318 207 l 132 207 q 104 106 114 154 q 96 15 94 57 q 128 -90 99 -50 q 229 -132 158 -131 q 314 -117 271 -132 q 293 -4 293 -65 q 302 76 293 29 q 330 164 311 122 q 378 235 349 206 q 449 264 407 264 q 504 236 485 264 q 522 169 524 208 q 506 83 521 126 q 464 -1 490 39 q 402 -72 438 -40 q 325 -122 367 -104 q 378 -185 344 -161 q 465 -210 413 -208 l 465 -218 q 372 -192 408 -218 q 317 -125 336 -165 q 274 -138 296 -133 q 229 -143 253 -143 q 93 -85 139 -142 q 46 58 47 -28 q 51 130 44 93 q 69 207 58 167 l 29 207 l 29 267 l 90 267 q 103 299 97 282 q 118 332 110 315 l 42 332 l 42 392 l 150 392 q 267 547 201 481 l 263 550 q 199 601 232 575 q 125 650 165 628 l 132 657 m 414 467 l 414 471 q 433 536 413 507 q 485 565 453 565 q 513 555 501 565 q 526 526 525 544 q 517 497 526 510 q 495 475 508 483 q 465 462 482 467 q 433 457 449 457 l 424 457 q 451 417 431 431 q 499 404 471 404 q 558 422 531 404 q 604 465 585 439 q 635 524 624 492 q 646 585 646 556 q 619 655 644 628 q 551 682 594 682 q 429 638 492 682 q 308 524 367 594 q 361 488 336 503 q 414 467 386 472 m 321 -112 q 396 -65 361 -96 q 456 3 431 -35 q 497 85 482 42 q 514 169 513 128 q 498 230 514 204 q 450 256 482 256 q 382 227 410 256 q 337 158 354 199 q 310 72 319 117 q 301 -4 301 28 q 321 -112 301 -62 m 422 467 q 433 465 426 465 q 463 469 447 465 q 490 481 478 474 q 509 500 501 489 q 517 526 517 511 q 508 548 517 539 q 485 557 499 557 q 459 549 471 557 q 439 528 447 540 q 426 502 431 517 q 422 475 422 488 l 422 467 z "},"":{"ha":196,"x_min":-231,"x_max":458,"o":"m 204 231 l 213 226 q 190 185 203 207 q 162 144 178 163 q 126 112 146 125 q 82 99 106 99 q 49 107 63 99 q 26 126 36 115 q -69 -100 -22 14 q -165 -324 -117 -214 l -231 -324 q -126 -73 -174 -187 q -33 139 -78 42 l -35 139 q -50 144 -43 139 q -56 158 -57 150 q -48 174 -56 169 q -32 178 -40 178 q -18 175 -26 178 q 110 442 53 333 q 215 619 167 551 q 309 717 264 686 q 401 747 354 747 q 441 734 425 747 q 457 697 457 721 q 431 630 458 663 q 364 567 404 597 q 278 506 324 536 q 197 446 232 476 q 172 419 183 432 q 150 392 161 406 q 88 265 118 329 q 29 135 58 201 q 53 115 40 124 q 82 107 65 107 q 123 120 104 107 q 157 152 142 133 q 184 192 172 171 q 204 231 196 214 m 406 738 q 345 708 376 738 q 283 633 314 678 q 222 533 251 588 q 169 432 193 479 q 242 491 194 460 q 336 556 290 522 q 416 626 382 590 q 449 697 450 661 q 406 738 446 738 z "},"^":{"ha":515,"x_min":263,"x_max":540,"o":"m 433 733 l 318 601 l 263 614 l 428 754 l 449 750 l 540 553 l 485 564 l 433 733 l 433 733 z "},"":{"ha":301,"x_min":63,"x_max":251,"o":"m 83 235 l 226 133 l 221 78 l 63 226 l 65 247 l 251 360 l 246 304 l 83 235 l 83 235 z "},"":{"ha":317,"x_min":63,"x_max":251,"o":"m 88 304 l 93 360 l 251 211 l 249 190 l 63 78 l 68 133 l 231 203 l 88 304 z "},"":{"ha":446,"x_min":53,"x_max":389,"o":"m 221 235 l 364 133 l 358 78 l 200 226 l 203 247 l 389 360 l 383 304 l 221 235 l 221 235 m 74 253 l 217 151 l 211 96 l 53 244 l 56 265 l 242 378 l 236 322 l 74 253 l 74 253 z "},"":{"ha":451,"x_min":53,"x_max":389,"o":"m 78 322 l 83 378 l 242 229 l 239 208 l 53 96 l 58 151 l 221 221 l 78 322 m 225 304 l 231 360 l 389 211 l 386 190 l 200 78 l 206 133 l 368 203 l 225 304 z "},"":{"ha":314,"x_min":300,"x_max":454,"o":"m 331 665 q 309 674 318 665 q 300 696 300 683 q 309 717 300 708 q 331 725 318 725 q 351 717 343 725 q 360 696 360 708 q 351 674 360 683 q 331 665 343 665 m 425 665 q 403 674 413 665 q 394 696 394 683 q 403 717 394 708 q 425 725 413 725 q 446 717 438 725 q 454 696 454 708 q 446 674 454 683 q 425 665 438 665 z "},"":{"ha":1099,"x_min":-3,"x_max":1571,"o":"m 1000 410 q 1100 606 1046 513 q 1223 770 1154 700 q 1377 881 1292 840 q 1571 917 1463 921 l 1571 908 q 1378 849 1461 904 q 1231 708 1296 794 q 1115 514 1167 622 q 1015 292 1063 406 q 917 66 967 176 q 809 -131 868 -44 q 676 -270 750 -217 q 501 -324 601 -324 q 399 -307 443 -324 q 326 -262 356 -290 q 282 -198 297 -235 q 265 -122 267 -161 q 282 -26 264 -69 q 333 49 300 18 q 409 98 365 81 q 503 115 453 115 q 574 102 544 115 q 624 67 604 89 q 653 18 643 46 q 664 -39 664 -10 q 655 -99 664 -69 q 627 -152 646 -129 q 582 -190 608 -175 q 521 -204 556 -204 l 521 -196 q 578 -182 553 -196 q 620 -147 603 -168 q 647 -97 638 -125 q 656 -40 656 -69 q 647 13 656 -14 q 619 59 638 39 q 574 92 601 79 q 511 104 547 104 q 428 84 465 104 q 365 31 390 64 q 325 -44 339 -1 q 313 -131 311 -86 q 324 -199 313 -167 q 357 -258 335 -232 q 412 -299 379 -283 q 489 -314 444 -314 q 640 -260 575 -314 q 760 -117 706 -206 q 861 85 814 -28 q 958 315 908 199 l 967 335 q 919 269 944 300 q 862 217 893 239 q 794 181 831 194 q 713 169 757 168 q 611 206 654 171 q 567 318 568 240 q 592 439 567 368 q 657 580 618 510 q 741 710 696 650 q 826 799 786 769 q 722 815 774 804 q 621 838 671 826 q 520 860 571 850 q 418 874 469 871 q 269 858 340 878 q 142 797 197 839 q 51 693 86 756 q 10 547 15 631 q 19 451 6 496 q 61 370 33 406 q 131 313 89 335 q 226 289 174 292 q 329 310 283 285 q 408 376 375 335 q 459 469 440 417 q 482 571 478 521 q 476 647 485 614 q 450 703 467 681 q 411 737 433 725 q 364 750 389 749 q 311 742 338 751 q 263 715 285 733 q 227 671 242 697 q 211 610 213 644 q 226 544 208 574 q 283 507 243 514 l 282 499 q 219 536 239 506 q 201 607 199 567 q 219 675 204 646 q 259 724 235 704 q 313 752 283 743 q 374 760 343 761 q 434 745 404 758 q 487 707 464 732 q 522 645 510 682 q 531 561 535 608 q 501 450 526 503 q 435 358 475 397 q 340 298 394 319 q 226 281 286 276 q 129 306 172 283 q 56 364 86 328 q 12 447 26 400 q 0 547 -3 494 q 42 699 6 633 q 135 806 78 764 q 264 867 192 849 q 414 882 336 886 q 520 869 468 879 q 624 846 572 858 q 729 822 676 833 q 838 806 782 810 q 925 847 876 833 q 1021 858 974 861 q 1063 836 1063 856 q 1051 818 1063 825 q 1024 807 1040 811 q 990 801 1008 803 q 956 797 971 799 q 916 795 936 796 q 875 796 896 794 q 823 741 851 776 q 765 660 794 706 q 710 564 736 615 q 663 463 683 513 q 628 367 642 413 q 615 290 615 322 q 638 214 615 246 q 717 182 660 182 q 814 201 771 181 q 891 255 857 222 q 952 328 925 288 q 1000 410 979 369 m 1025 847 q 952 837 989 850 q 886 804 915 824 q 917 804 900 804 q 954 806 935 804 q 981 808 964 806 q 1013 813 997 810 q 1040 822 1028 817 q 1051 836 1051 828 q 1042 844 1051 842 q 1025 847 1033 847 m 1146 938 q 1124 947 1133 938 q 1115 968 1115 956 q 1124 989 1115 981 q 1146 997 1133 997 q 1167 989 1158 997 q 1175 968 1175 981 q 1167 947 1175 956 q 1146 938 1158 938 m 1240 938 q 1219 947 1228 938 q 1210 968 1210 956 q 1219 989 1210 981 q 1240 997 1228 997 q 1261 989 1253 997 q 1269 968 1269 981 q 1261 947 1269 956 q 1240 938 1253 938 z "},"":{"ha":274,"x_min":-35,"x_max":290,"o":"m 265 447 l 238 390 q 251 369 247 382 q 253 342 256 357 q 246 312 251 328 q 232 283 240 296 l 201 296 q 240 343 232 315 q 233 382 249 371 l 51 13 q 65 9 58 10 q 78 8 71 8 q 144 33 113 8 q 201 91 175 57 q 247 163 226 125 q 282 231 267 201 l 290 226 q 244 141 268 182 q 194 68 221 100 q 136 17 167 36 q 69 -1 106 -1 q 57 -1 63 -1 q 44 0 51 0 l 28 -35 l -28 -35 l 0 24 q -27 77 -19 43 q -19 163 -35 111 q 12 238 -8 200 q 59 310 32 276 q 118 366 86 343 q 185 396 150 389 l 210 447 l 265 447 m 38 146 q 22 68 22 101 l 171 368 q 132 328 151 353 q 95 272 113 303 q 63 209 78 242 q 38 146 47 176 z "},"":{"ha":426,"x_min":193,"x_max":492,"o":"m 492 521 q 471 481 483 506 q 442 431 458 456 q 406 388 425 406 q 369 369 388 369 q 339 382 347 368 q 331 415 331 396 q 333 440 331 426 q 340 468 336 453 q 320 433 331 451 q 297 401 310 415 q 272 378 285 388 q 244 369 258 369 q 205 390 217 369 q 193 433 193 410 q 207 496 193 461 q 242 562 221 531 q 292 615 264 593 q 353 636 321 636 q 383 623 375 636 q 389 593 390 610 q 397 608 393 600 q 404 625 400 617 l 449 625 q 429 588 444 617 q 397 525 414 560 q 367 456 381 490 q 354 399 354 421 q 358 383 354 390 q 372 375 361 375 q 405 394 388 375 q 438 438 422 413 q 467 487 454 463 q 486 524 479 511 l 492 521 m 275 388 q 299 413 288 397 q 322 447 311 429 q 340 482 332 464 q 354 513 349 500 l 378 565 q 382 584 381 574 q 382 605 383 594 q 376 622 381 615 q 360 629 371 629 q 312 601 336 629 q 268 536 288 574 q 237 461 249 499 q 225 404 225 424 q 249 376 226 376 q 275 388 261 376 z "},"":{"ha":1100,"x_min":-1,"x_max":1378,"o":"m 1338 857 q 1363 854 1347 857 q 1378 838 1378 851 q 1365 819 1378 826 q 1333 806 1351 811 q 1299 797 1315 800 q 1274 792 1282 793 q 1211 786 1240 788 q 1171 785 1182 785 q 1072 712 1119 754 q 981 619 1025 669 q 894 511 936 568 q 813 396 853 454 q 882 346 853 376 q 917 464 897 407 q 962 567 938 521 q 1014 648 986 614 q 1074 696 1042 682 l 1078 689 q 1031 631 1054 671 q 988 539 1008 592 q 951 422 968 486 q 921 293 933 358 q 971 161 957 233 q 983 22 985 89 q 981 -17 983 10 q 973 -72 979 -44 q 955 -119 967 -99 q 925 -140 943 -140 q 882 -113 897 -140 q 858 -51 867 -86 q 848 20 850 -15 q 846 72 846 56 q 856 199 847 132 q 879 335 864 267 q 847 365 864 351 q 808 389 829 379 q 674 194 740 290 q 538 23 608 99 q 390 -98 467 -53 q 225 -139 314 -143 q 130 -121 172 -139 q 58 -72 88 -103 q 14 3 29 -40 q 0 96 -1 46 q 18 192 1 147 q 64 274 35 238 q 133 335 93 310 q 222 368 174 360 q 199 481 199 419 q 237 647 199 576 q 338 764 275 718 q 481 832 400 810 q 650 854 563 854 q 770 847 711 854 q 888 828 829 839 q 1004 808 946 818 q 1122 794 1063 797 q 1170 817 1143 806 q 1226 837 1197 828 q 1284 851 1256 846 q 1338 857 1313 857 m 753 414 q 917 626 831 526 q 1108 786 1003 725 q 994 800 1050 790 q 881 820 938 810 q 767 838 825 831 q 650 846 710 846 q 486 824 565 846 q 345 756 407 801 q 245 643 283 711 q 207 482 207 575 q 231 369 207 421 q 251 372 242 371 q 272 372 261 372 q 399 337 343 371 q 475 240 454 303 q 561 278 524 249 q 624 350 599 308 q 663 440 650 392 q 676 535 676 489 q 665 612 676 579 q 637 665 654 644 q 597 697 619 686 q 549 707 574 707 q 497 697 522 707 q 450 667 471 686 q 417 619 429 647 q 404 557 404 592 q 424 492 404 521 q 483 458 443 463 l 483 450 q 417 484 439 454 q 396 554 396 514 q 410 623 396 593 q 446 674 424 653 q 497 706 468 694 q 557 718 526 718 q 618 707 588 718 q 673 672 649 696 q 712 613 697 649 q 726 529 726 576 q 708 424 726 475 q 656 333 689 374 q 577 267 622 293 q 478 232 532 240 q 486 176 486 207 q 431 34 486 89 q 289 -21 376 -21 l 289 -11 q 352 5 325 -11 q 398 47 379 21 q 426 107 417 74 q 436 176 436 140 q 429 229 436 201 q 306 267 358 232 q 226 360 254 301 q 138 328 178 351 q 70 269 99 304 q 26 190 42 235 q 8 96 10 146 q 23 6 8 47 q 65 -66 38 -36 q 133 -113 93 -96 q 225 -131 174 -131 q 366 -79 300 -128 q 494 45 432 -31 q 619 216 557 121 q 747 407 681 311 l 718 410 l 718 418 q 753 414 736 418 m 919 281 q 896 128 904 201 q 888 -3 888 56 q 897 -97 888 -61 q 928 -131 907 -132 q 951 -112 942 -131 q 965 -68 960 -93 q 972 -18 969 -43 q 975 19 975 7 q 965 153 978 83 q 919 281 951 222 m 235 361 q 310 274 261 308 q 428 238 360 240 q 372 327 413 292 q 268 363 331 363 q 251 363 260 363 q 235 361 243 363 m 1271 800 q 1297 805 1281 801 q 1328 813 1313 808 q 1356 823 1344 817 q 1367 836 1367 829 q 1350 846 1367 846 q 1311 841 1333 846 q 1266 828 1289 836 q 1222 811 1243 821 q 1186 793 1200 801 q 1219 795 1194 793 q 1271 800 1243 797 m 1113 933 l 1046 1021 l 1101 1021 l 1143 936 l 1113 933 z "},"":{"ha":1100,"x_min":-1,"x_max":1378,"o":"m 1338 857 q 1363 854 1347 857 q 1378 838 1378 851 q 1365 819 1378 826 q 1333 806 1351 811 q 1299 797 1315 800 q 1274 792 1282 793 q 1211 786 1240 788 q 1171 785 1182 785 q 1072 712 1119 754 q 981 619 1025 669 q 894 511 936 568 q 813 396 853 454 q 882 346 853 376 q 917 464 897 407 q 962 567 938 521 q 1014 648 986 614 q 1074 696 1042 682 l 1078 689 q 1031 631 1054 671 q 988 539 1008 592 q 951 422 968 486 q 921 293 933 358 q 971 161 957 233 q 983 22 985 89 q 981 -17 983 10 q 973 -72 979 -44 q 955 -119 967 -99 q 925 -140 943 -140 q 882 -113 897 -140 q 858 -51 867 -86 q 848 20 850 -15 q 846 72 846 56 q 856 199 847 132 q 879 335 864 267 q 847 365 864 351 q 808 389 829 379 q 674 194 740 290 q 538 23 608 99 q 390 -98 467 -53 q 225 -139 314 -143 q 130 -121 172 -139 q 58 -72 88 -103 q 14 3 29 -40 q 0 96 -1 46 q 18 192 1 147 q 64 274 35 238 q 133 335 93 310 q 222 368 174 360 q 199 481 199 419 q 237 647 199 576 q 338 764 275 718 q 481 832 400 810 q 650 854 563 854 q 770 847 711 854 q 888 828 829 839 q 1004 808 946 818 q 1122 794 1063 797 q 1170 817 1143 806 q 1226 837 1197 828 q 1284 851 1256 846 q 1338 857 1313 857 m 753 414 q 917 626 831 526 q 1108 786 1003 725 q 994 800 1050 790 q 881 820 938 810 q 767 838 825 831 q 650 846 710 846 q 486 824 565 846 q 345 756 407 801 q 245 643 283 711 q 207 482 207 575 q 231 369 207 421 q 251 372 242 371 q 272 372 261 372 q 399 337 343 371 q 475 240 454 303 q 561 278 524 249 q 624 350 599 308 q 663 440 650 392 q 676 535 676 489 q 665 612 676 579 q 637 665 654 644 q 597 697 619 686 q 549 707 574 707 q 497 697 522 707 q 450 667 471 686 q 417 619 429 647 q 404 557 404 592 q 424 492 404 521 q 483 458 443 463 l 483 450 q 417 484 439 454 q 396 554 396 514 q 410 623 396 593 q 446 674 424 653 q 497 706 468 694 q 557 718 526 718 q 618 707 588 718 q 673 672 649 696 q 712 613 697 649 q 726 529 726 576 q 708 424 726 475 q 656 333 689 374 q 577 267 622 293 q 478 232 532 240 q 486 176 486 207 q 431 34 486 89 q 289 -21 376 -21 l 289 -11 q 352 5 325 -11 q 398 47 379 21 q 426 107 417 74 q 436 176 436 140 q 429 229 436 201 q 306 267 358 232 q 226 360 254 301 q 138 328 178 351 q 70 269 99 304 q 26 190 42 235 q 8 96 10 146 q 23 6 8 47 q 65 -66 38 -36 q 133 -113 93 -96 q 225 -131 174 -131 q 366 -79 300 -128 q 494 45 432 -31 q 619 216 557 121 q 747 407 681 311 l 718 410 l 718 418 q 753 414 736 418 m 919 281 q 896 128 904 201 q 888 -3 888 56 q 897 -97 888 -61 q 928 -131 907 -132 q 951 -112 942 -131 q 965 -68 960 -93 q 972 -18 969 -43 q 975 19 975 7 q 965 153 978 83 q 919 281 951 222 m 235 361 q 310 274 261 308 q 428 238 360 240 q 372 327 413 292 q 268 363 331 363 q 251 363 260 363 q 235 361 243 363 m 1271 800 q 1297 805 1281 801 q 1328 813 1313 808 q 1356 823 1344 817 q 1367 836 1367 829 q 1350 846 1367 846 q 1311 841 1333 846 q 1266 828 1289 836 q 1222 811 1243 821 q 1186 793 1200 801 q 1219 795 1194 793 q 1271 800 1243 797 m 1144 1021 l 1200 1021 l 1133 933 l 1103 936 l 1144 1021 z "},"":{"ha":1100,"x_min":-1,"x_max":1378,"o":"m 1338 857 q 1284 851 1313 857 q 1226 837 1256 846 q 1170 817 1197 828 q 1122 794 1143 806 q 1004 808 1063 797 q 888 828 946 818 q 770 847 829 839 q 650 854 711 854 q 481 832 563 854 q 338 764 400 810 q 237 647 275 718 q 199 481 199 576 q 222 368 199 419 q 133 335 174 360 q 64 274 93 310 q 18 192 35 238 q 0 96 1 147 q 14 3 -1 46 q 58 -72 29 -40 q 130 -121 88 -103 q 225 -139 172 -139 q 390 -98 314 -143 q 538 23 467 -53 q 674 194 608 99 q 808 389 740 290 q 847 365 829 379 q 879 335 864 351 q 856 199 864 267 q 846 72 847 132 q 848 20 846 56 q 858 -51 850 -15 q 882 -113 867 -86 q 925 -140 897 -140 q 955 -119 943 -140 q 973 -72 967 -99 q 981 -17 979 -44 q 983 22 983 10 q 971 161 985 89 q 921 293 957 233 q 951 422 933 358 q 988 539 968 486 q 1031 631 1008 592 q 1078 689 1054 671 l 1074 696 q 1014 648 1042 682 q 962 567 986 614 q 917 464 938 521 q 882 346 897 407 q 813 396 853 376 q 894 511 853 454 q 981 619 936 568 q 1072 712 1025 669 q 1171 785 1119 754 q 1211 786 1182 785 q 1274 792 1240 788 q 1299 797 1282 793 q 1333 806 1315 800 q 1365 819 1351 811 q 1378 838 1378 826 q 1363 854 1378 851 q 1338 857 1347 857 m 753 414 q 718 418 736 418 l 718 410 l 747 407 q 619 216 681 311 q 494 45 557 121 q 366 -79 432 -31 q 225 -131 300 -128 q 133 -113 174 -131 q 65 -66 93 -96 q 23 6 38 -36 q 8 96 8 47 q 26 190 10 146 q 70 269 42 235 q 138 328 99 304 q 226 360 178 351 q 306 267 254 301 q 429 229 358 232 q 436 176 436 201 q 426 107 436 140 q 398 47 417 74 q 352 5 379 21 q 289 -11 325 -11 l 289 -21 q 431 34 376 -21 q 486 176 486 89 q 478 232 486 207 q 577 267 532 240 q 656 333 622 293 q 708 424 689 374 q 726 529 726 475 q 712 613 726 576 q 673 672 697 649 q 618 707 649 696 q 557 718 588 718 q 497 706 526 718 q 446 674 468 694 q 410 623 424 653 q 396 554 396 593 q 417 484 396 514 q 483 450 439 454 l 483 458 q 424 492 443 463 q 404 557 404 521 q 417 619 404 592 q 450 667 429 647 q 497 697 471 686 q 549 707 522 707 q 597 697 574 707 q 637 665 619 686 q 665 612 654 644 q 676 535 676 579 q 663 440 676 489 q 624 350 650 392 q 561 278 599 308 q 475 240 524 249 q 399 337 454 303 q 272 372 343 371 q 251 372 261 372 q 231 369 242 371 q 207 482 207 421 q 245 643 207 575 q 345 756 283 711 q 486 824 407 801 q 650 846 565 846 q 767 838 710 846 q 881 820 825 831 q 994 800 938 810 q 1108 786 1050 790 q 917 626 1003 725 q 753 414 831 526 m 919 281 q 965 153 951 222 q 975 19 978 83 q 972 -18 975 7 q 965 -68 969 -43 q 951 -112 960 -93 q 928 -131 942 -131 q 897 -97 907 -132 q 888 -3 888 -61 q 896 128 888 56 q 919 281 904 201 m 235 361 q 251 363 243 363 q 268 363 260 363 q 372 327 331 363 q 428 238 413 292 q 310 274 360 240 q 235 361 261 308 m 1271 800 q 1219 795 1243 797 q 1186 793 1194 793 q 1222 811 1200 801 q 1266 828 1243 821 q 1311 841 1289 836 q 1350 846 1333 846 q 1367 836 1367 846 q 1356 823 1367 829 q 1328 813 1344 817 q 1297 805 1313 808 q 1271 800 1281 801 m 1164 1000 l 1122 958 l 1069 976 l 1172 1033 l 1178 1032 l 1224 924 l 1171 942 l 1164 1000 z "},"":{"ha":1100,"x_min":-1,"x_max":1378,"o":"m 1338 857 q 1284 851 1313 857 q 1226 837 1256 846 q 1170 817 1197 828 q 1122 794 1143 806 q 1004 808 1063 797 q 888 828 946 818 q 770 847 829 839 q 650 854 711 854 q 481 832 563 854 q 338 764 400 810 q 237 647 275 718 q 199 481 199 576 q 222 368 199 419 q 133 335 174 360 q 64 274 93 310 q 18 192 35 238 q 0 96 1 147 q 14 3 -1 46 q 58 -72 29 -40 q 130 -121 88 -103 q 225 -139 172 -139 q 390 -98 314 -143 q 538 23 467 -53 q 674 194 608 99 q 808 389 740 290 q 847 365 829 379 q 879 335 864 351 q 856 199 864 267 q 846 72 847 132 q 848 20 846 56 q 858 -51 850 -15 q 882 -113 867 -86 q 925 -140 897 -140 q 955 -119 943 -140 q 973 -72 967 -99 q 981 -17 979 -44 q 983 22 983 10 q 971 161 985 89 q 921 293 957 233 q 951 422 933 358 q 988 539 968 486 q 1031 631 1008 592 q 1078 689 1054 671 l 1074 696 q 1014 648 1042 682 q 962 567 986 614 q 917 464 938 521 q 882 346 897 407 q 813 396 853 376 q 894 511 853 454 q 981 619 936 568 q 1072 712 1025 669 q 1171 785 1119 754 q 1211 786 1182 785 q 1274 792 1240 788 q 1299 797 1282 793 q 1333 806 1315 800 q 1365 819 1351 811 q 1378 838 1378 826 q 1363 854 1378 851 q 1338 857 1347 857 m 753 414 q 718 418 736 418 l 718 410 l 747 407 q 619 216 681 311 q 494 45 557 121 q 366 -79 432 -31 q 225 -131 300 -128 q 133 -113 174 -131 q 65 -66 93 -96 q 23 6 38 -36 q 8 96 8 47 q 26 190 10 146 q 70 269 42 235 q 138 328 99 304 q 226 360 178 351 q 306 267 254 301 q 429 229 358 232 q 436 176 436 201 q 426 107 436 140 q 398 47 417 74 q 352 5 379 21 q 289 -11 325 -11 l 289 -21 q 431 34 376 -21 q 486 176 486 89 q 478 232 486 207 q 577 267 532 240 q 656 333 622 293 q 708 424 689 374 q 726 529 726 475 q 712 613 726 576 q 673 672 697 649 q 618 707 649 696 q 557 718 588 718 q 497 706 526 718 q 446 674 468 694 q 410 623 424 653 q 396 554 396 593 q 417 484 396 514 q 483 450 439 454 l 483 458 q 424 492 443 463 q 404 557 404 521 q 417 619 404 592 q 450 667 429 647 q 497 697 471 686 q 549 707 522 707 q 597 697 574 707 q 637 665 619 686 q 665 612 654 644 q 676 535 676 579 q 663 440 676 489 q 624 350 650 392 q 561 278 599 308 q 475 240 524 249 q 399 337 454 303 q 272 372 343 371 q 251 372 261 372 q 231 369 242 371 q 207 482 207 421 q 245 643 207 575 q 345 756 283 711 q 486 824 407 801 q 650 846 565 846 q 767 838 710 846 q 881 820 825 831 q 994 800 938 810 q 1108 786 1050 790 q 917 626 1003 725 q 753 414 831 526 m 919 281 q 965 153 951 222 q 975 19 978 83 q 972 -18 975 7 q 965 -68 969 -43 q 951 -112 960 -93 q 928 -131 942 -131 q 897 -97 907 -132 q 888 -3 888 -61 q 896 128 888 56 q 919 281 904 201 m 235 361 q 251 363 243 363 q 268 363 260 363 q 372 327 331 363 q 428 238 413 292 q 310 274 360 240 q 235 361 261 308 m 1271 800 q 1219 795 1243 797 q 1186 793 1194 793 q 1222 811 1200 801 q 1266 828 1243 821 q 1311 841 1289 836 q 1350 846 1333 846 q 1367 836 1367 846 q 1356 823 1367 829 q 1328 813 1344 817 q 1297 805 1313 808 q 1271 800 1281 801 m 1033 978 q 1100 1008 1074 1006 q 1144 997 1126 1010 q 1159 985 1151 992 q 1175 974 1167 978 q 1194 970 1183 969 q 1221 981 1206 971 l 1225 972 q 1160 946 1186 949 q 1118 954 1135 943 q 1103 967 1110 960 q 1087 980 1096 975 q 1066 983 1078 985 q 1038 971 1054 982 l 1033 978 z "},"":{"ha":1110,"x_min":-1,"x_max":1378,"o":"m 1338 857 q 1363 854 1347 857 q 1378 838 1378 851 q 1365 819 1378 826 q 1333 806 1351 811 q 1299 797 1315 800 q 1274 792 1282 793 q 1211 786 1240 788 q 1171 785 1182 785 q 1072 712 1119 754 q 981 619 1025 669 q 894 511 936 568 q 813 396 853 454 q 882 346 853 376 q 917 464 897 407 q 962 567 938 521 q 1014 648 986 614 q 1074 696 1042 682 l 1078 689 q 1031 631 1054 671 q 988 539 1008 592 q 951 422 968 486 q 921 293 933 358 q 971 161 957 233 q 983 22 985 89 q 981 -17 983 10 q 973 -72 979 -44 q 955 -119 967 -99 q 925 -140 943 -140 q 882 -113 897 -140 q 858 -51 867 -86 q 848 20 850 -15 q 846 72 846 56 q 856 199 847 132 q 879 335 864 267 q 847 365 864 351 q 808 389 829 379 q 674 194 740 290 q 538 23 608 99 q 390 -98 467 -53 q 225 -139 314 -143 q 130 -121 172 -139 q 58 -72 88 -103 q 14 3 29 -40 q 0 96 -1 46 q 18 192 1 147 q 64 274 35 238 q 133 335 93 310 q 222 368 174 360 q 199 481 199 419 q 237 647 199 576 q 338 764 275 718 q 481 832 400 810 q 650 854 563 854 q 770 847 711 854 q 888 828 829 839 q 1004 808 946 818 q 1122 794 1063 797 q 1170 817 1143 806 q 1226 837 1197 828 q 1284 851 1256 846 q 1338 857 1313 857 m 753 414 q 917 626 831 526 q 1108 786 1003 725 q 994 800 1050 790 q 881 820 938 810 q 767 838 825 831 q 650 846 710 846 q 486 824 565 846 q 345 756 407 801 q 245 643 283 711 q 207 482 207 575 q 231 369 207 421 q 251 372 242 371 q 272 372 261 372 q 399 337 343 371 q 475 240 454 303 q 561 278 524 249 q 624 350 599 308 q 663 440 650 392 q 676 535 676 489 q 665 612 676 579 q 637 665 654 644 q 597 697 619 686 q 549 707 574 707 q 497 697 522 707 q 450 667 471 686 q 417 619 429 647 q 404 557 404 592 q 424 492 404 521 q 483 458 443 463 l 483 450 q 417 484 439 454 q 396 554 396 514 q 410 623 396 593 q 446 674 424 653 q 497 706 468 694 q 557 718 526 718 q 618 707 588 718 q 673 672 649 696 q 712 613 697 649 q 726 529 726 576 q 708 424 726 475 q 656 333 689 374 q 577 267 622 293 q 478 232 532 240 q 486 176 486 207 q 431 34 486 89 q 289 -21 376 -21 l 289 -11 q 352 5 325 -11 q 398 47 379 21 q 426 107 417 74 q 436 176 436 140 q 429 229 436 201 q 306 267 358 232 q 226 360 254 301 q 138 328 178 351 q 70 269 99 304 q 26 190 42 235 q 8 96 10 146 q 23 6 8 47 q 65 -66 38 -36 q 133 -113 93 -96 q 225 -131 174 -131 q 366 -79 300 -128 q 494 45 432 -31 q 619 216 557 121 q 747 407 681 311 l 718 410 l 718 418 q 753 414 736 418 m 919 281 q 896 128 904 201 q 888 -3 888 56 q 897 -97 888 -61 q 928 -131 907 -132 q 951 -112 942 -131 q 965 -68 960 -93 q 972 -18 969 -43 q 975 19 975 7 q 965 153 978 83 q 919 281 951 222 m 235 361 q 310 274 261 308 q 428 238 360 240 q 372 327 413 292 q 268 363 331 363 q 251 363 260 363 q 235 361 243 363 m 1271 800 q 1297 805 1281 801 q 1328 813 1313 808 q 1356 823 1344 817 q 1367 836 1367 829 q 1350 846 1367 846 q 1311 841 1333 846 q 1266 828 1289 836 q 1222 811 1243 821 q 1186 793 1200 801 q 1219 795 1194 793 q 1271 800 1243 797 m 1107 940 q 1085 949 1094 940 q 1076 971 1076 958 q 1085 992 1076 983 q 1107 1000 1094 1000 q 1128 992 1119 1000 q 1136 971 1136 983 q 1128 949 1136 958 q 1107 940 1119 940 m 1201 940 q 1180 949 1189 940 q 1171 971 1171 958 q 1180 992 1171 983 q 1201 1000 1189 1000 q 1222 992 1214 1000 q 1231 971 1231 983 q 1222 949 1231 958 q 1201 940 1214 940 z "},"":{"ha":339,"x_min":74,"x_max":261,"o":"m 74 222 q 100 290 74 263 q 167 317 126 317 q 234 290 207 317 q 261 222 261 263 q 234 156 261 182 q 167 129 207 129 q 100 156 126 129 q 74 222 74 182 z "},"":{"ha":1597,"x_min":-1,"x_max":1624,"o":"m 1475 685 q 1533 674 1506 683 q 1581 648 1560 665 q 1613 606 1601 631 q 1624 549 1624 581 q 1611 489 1624 518 q 1577 438 1599 460 q 1527 401 1556 415 q 1465 388 1499 388 q 1410 405 1433 389 q 1382 453 1386 421 q 1315 483 1346 460 q 1256 529 1283 506 q 1218 457 1231 493 q 1206 389 1206 421 q 1215 336 1204 361 q 1255 344 1235 342 q 1294 346 1275 347 q 1333 335 1318 343 q 1347 311 1347 326 q 1333 291 1346 300 q 1297 282 1321 282 q 1250 290 1274 282 q 1207 311 1226 297 q 1144 259 1172 292 q 1094 187 1115 226 q 1062 105 1074 147 q 1050 22 1050 63 q 1059 -45 1049 -17 q 1088 -92 1069 -74 q 1131 -121 1107 -111 q 1183 -132 1156 -131 q 1265 -118 1222 -133 q 1249 -6 1246 -68 q 1260 74 1250 28 q 1289 160 1269 119 q 1338 230 1308 201 q 1410 258 1368 258 q 1465 229 1447 257 q 1482 161 1483 201 q 1463 75 1479 118 q 1419 -7 1446 32 q 1355 -76 1392 -46 q 1276 -125 1318 -107 q 1328 -189 1294 -164 q 1415 -217 1361 -214 l 1415 -225 q 1322 -196 1357 -222 q 1269 -128 1288 -169 q 1225 -140 1247 -136 q 1179 -143 1203 -143 q 1066 -107 1117 -140 q 999 -10 1015 -74 q 883 -104 944 -68 q 758 -140 822 -140 q 642 -102 685 -137 q 585 -10 600 -67 q 578 117 569 46 q 615 264 588 189 q 686 413 642 339 q 785 544 731 486 l 782 546 q 717 599 751 572 q 641 649 682 626 q 551 685 600 671 q 442 699 501 699 q 256 660 336 699 q 120 562 175 622 q 37 428 65 501 q 8 283 8 354 q 24 184 8 231 q 68 102 39 138 q 140 46 97 67 q 239 25 183 25 q 348 56 300 25 q 429 135 396 88 q 480 242 463 183 q 497 356 497 301 q 487 418 497 392 q 460 462 476 444 q 422 488 443 479 q 378 496 400 496 q 317 483 343 496 q 275 450 292 469 q 250 406 258 431 q 242 357 242 381 q 265 290 242 318 q 335 263 288 261 l 336 254 q 259 284 285 253 q 232 357 233 315 q 241 410 232 383 q 269 458 250 436 q 317 493 288 479 q 385 507 346 507 q 442 496 414 507 q 493 463 471 485 q 529 406 515 440 q 543 325 543 372 q 522 209 543 265 q 461 110 500 153 q 370 40 422 67 q 256 13 318 14 q 146 33 194 13 q 65 92 97 54 q 15 181 32 129 q 0 292 -1 232 q 31 438 1 364 q 117 572 61 513 q 253 669 172 632 q 442 707 335 707 q 553 692 503 707 q 644 656 603 678 q 721 606 686 633 q 788 553 756 579 l 790 550 q 921 653 851 614 q 1065 692 990 692 q 1169 660 1132 692 q 1219 575 1207 629 q 1335 658 1268 629 q 1475 685 1401 688 m 992 49 q 1007 133 993 90 q 1047 213 1021 175 q 1108 281 1072 250 q 1189 328 1144 311 q 1164 369 1174 346 q 1154 421 1154 392 q 1168 494 1153 457 q 1211 565 1183 531 q 1177 641 1203 610 q 1107 681 1151 672 q 1174 581 1171 658 q 1163 517 1174 550 q 1131 456 1151 483 q 1081 410 1110 428 q 1019 390 1053 392 q 964 406 988 390 q 935 454 940 422 q 878 474 906 458 q 824 511 851 489 q 735 378 775 450 q 667 233 694 306 q 627 94 639 161 q 624 -25 615 26 q 665 -106 633 -76 q 758 -132 697 -135 q 882 -95 821 -131 q 996 -1 943 -60 q 992 22 993 10 q 992 49 990 35 m 1260 536 q 1316 491 1286 513 q 1381 463 1346 469 l 1381 465 q 1402 530 1382 501 q 1454 558 1422 558 q 1483 547 1471 558 q 1494 518 1494 536 q 1485 489 1494 501 q 1463 468 1476 476 q 1432 456 1449 460 q 1400 451 1415 451 l 1390 451 q 1416 411 1396 425 q 1464 397 1436 397 q 1523 408 1496 396 q 1571 442 1550 421 q 1603 492 1592 464 q 1615 549 1615 519 q 1578 638 1615 606 q 1488 671 1540 669 q 1420 661 1453 672 q 1358 631 1388 650 q 1304 588 1329 613 q 1260 536 1279 563 m 829 518 q 882 483 857 497 q 933 463 907 468 l 933 467 q 953 532 933 503 q 1004 561 972 561 q 1033 550 1021 561 q 1046 522 1044 539 q 1037 492 1046 506 q 1015 470 1028 479 q 985 457 1001 461 q 953 453 968 453 l 943 453 q 970 413 950 426 q 1018 400 990 400 q 1077 417 1050 400 q 1124 461 1104 435 q 1154 519 1143 488 q 1165 581 1165 551 q 1139 651 1164 624 q 1071 678 1114 678 q 1003 663 1038 678 q 938 623 969 647 q 878 571 906 599 q 829 518 850 543 m 1274 -115 q 1349 -69 1314 -99 q 1412 -3 1385 -40 q 1455 77 1439 35 q 1474 163 1471 119 q 1459 222 1475 196 q 1411 249 1443 249 q 1342 222 1371 250 q 1295 154 1314 194 q 1267 70 1276 114 q 1257 -6 1258 26 q 1274 -115 1254 -65 m 1390 461 q 1401 460 1393 460 q 1457 474 1429 458 q 1486 518 1485 489 q 1477 541 1486 532 q 1454 550 1468 550 q 1408 522 1425 550 q 1390 469 1390 494 l 1390 461 m 942 461 l 953 461 q 982 465 967 461 q 1009 477 997 469 q 1028 496 1021 485 q 1036 522 1036 507 q 1027 544 1036 535 q 1004 553 1018 553 q 978 544 990 553 q 958 524 967 536 q 946 497 950 511 q 942 471 942 483 l 942 461 m 1225 321 q 1296 289 1249 292 q 1326 296 1315 289 q 1336 311 1336 303 q 1327 328 1338 319 q 1294 336 1317 336 q 1225 321 1258 336 z "},"":{"ha":486,"x_min":299,"x_max":546,"o":"m 318 621 q 349 547 318 578 q 422 517 379 517 q 496 547 465 517 q 526 621 526 578 q 496 694 526 664 q 422 725 465 725 q 349 694 379 725 q 318 621 318 664 m 299 621 q 335 708 299 672 q 422 744 371 744 q 510 708 474 744 q 546 621 546 672 q 510 533 546 569 q 422 497 474 497 q 335 533 371 497 q 299 621 299 569 z "},"":{"ha":543,"x_min":333,"x_max":546,"o":"m 350 640 q 377 578 350 604 q 440 551 404 551 q 503 578 476 551 q 529 640 529 604 q 503 704 529 678 q 440 731 476 731 q 377 704 404 731 q 350 640 350 678 m 333 640 q 365 716 333 685 q 440 747 396 747 q 515 716 485 747 q 546 640 546 685 q 515 565 546 596 q 440 535 485 535 q 365 565 396 535 q 333 640 333 596 z "},"":{"ha":1100,"x_min":-1,"x_max":1378,"o":"m 1338 857 q 1284 851 1313 857 q 1226 837 1256 846 q 1170 817 1197 828 q 1122 794 1143 806 q 1004 808 1063 797 q 888 828 946 818 q 770 847 829 839 q 650 854 711 854 q 481 832 563 854 q 338 764 400 810 q 237 647 275 718 q 199 481 199 576 q 222 368 199 419 q 133 335 174 360 q 64 274 93 310 q 18 192 35 238 q 0 96 1 147 q 14 3 -1 46 q 58 -72 29 -40 q 130 -121 88 -103 q 225 -139 172 -139 q 390 -98 314 -143 q 538 23 467 -53 q 674 194 608 99 q 808 389 740 290 q 847 365 829 379 q 879 335 864 351 q 856 199 864 267 q 846 72 847 132 q 848 20 846 56 q 858 -51 850 -15 q 882 -113 867 -86 q 925 -140 897 -140 q 955 -119 943 -140 q 973 -72 967 -99 q 981 -17 979 -44 q 983 22 983 10 q 971 161 985 89 q 921 293 957 233 q 951 422 933 358 q 988 539 968 486 q 1031 631 1008 592 q 1078 689 1054 671 l 1074 696 q 1014 648 1042 682 q 962 567 986 614 q 917 464 938 521 q 882 346 897 407 q 813 396 853 376 q 894 511 853 454 q 981 619 936 568 q 1072 712 1025 669 q 1171 785 1119 754 q 1211 786 1182 785 q 1274 792 1240 788 q 1299 797 1282 793 q 1333 806 1315 800 q 1365 819 1351 811 q 1378 838 1378 826 q 1363 854 1378 851 q 1338 857 1347 857 m 753 414 q 718 418 736 418 l 718 410 l 747 407 q 619 216 681 311 q 494 45 557 121 q 366 -79 432 -31 q 225 -131 300 -128 q 133 -113 174 -131 q 65 -66 93 -96 q 23 6 38 -36 q 8 96 8 47 q 26 190 10 146 q 70 269 42 235 q 138 328 99 304 q 226 360 178 351 q 306 267 254 301 q 429 229 358 232 q 436 176 436 201 q 426 107 436 140 q 398 47 417 74 q 352 5 379 21 q 289 -11 325 -11 l 289 -21 q 431 34 376 -21 q 486 176 486 89 q 478 232 486 207 q 577 267 532 240 q 656 333 622 293 q 708 424 689 374 q 726 529 726 475 q 712 613 726 576 q 673 672 697 649 q 618 707 649 696 q 557 718 588 718 q 497 706 526 718 q 446 674 468 694 q 410 623 424 653 q 396 554 396 593 q 417 484 396 514 q 483 450 439 454 l 483 458 q 424 492 443 463 q 404 557 404 521 q 417 619 404 592 q 450 667 429 647 q 497 697 471 686 q 549 707 522 707 q 597 697 574 707 q 637 665 619 686 q 665 612 654 644 q 676 535 676 579 q 663 440 676 489 q 624 350 650 392 q 561 278 599 308 q 475 240 524 249 q 399 337 454 303 q 272 372 343 371 q 251 372 261 372 q 231 369 242 371 q 207 482 207 421 q 245 643 207 575 q 345 756 283 711 q 486 824 407 801 q 650 846 565 846 q 767 838 710 846 q 881 820 825 831 q 994 800 938 810 q 1108 786 1050 790 q 917 626 1003 725 q 753 414 831 526 m 919 281 q 965 153 951 222 q 975 19 978 83 q 972 -18 975 7 q 965 -68 969 -43 q 951 -112 960 -93 q 928 -131 942 -131 q 897 -97 907 -132 q 888 -3 888 -61 q 896 128 888 56 q 919 281 904 201 m 235 361 q 251 363 243 363 q 268 363 260 363 q 372 327 331 363 q 428 238 413 292 q 310 274 360 240 q 235 361 261 308 m 1271 800 q 1219 795 1243 797 q 1186 793 1194 793 q 1222 811 1200 801 q 1266 828 1243 821 q 1311 841 1289 836 q 1350 846 1333 846 q 1367 836 1367 846 q 1356 823 1367 829 q 1328 813 1344 817 q 1297 805 1313 808 q 1271 800 1281 801 m 1110 981 q 1137 918 1110 944 q 1200 892 1164 892 q 1263 918 1236 892 q 1289 981 1289 944 q 1263 1044 1289 1018 q 1200 1071 1236 1071 q 1137 1044 1164 1071 q 1110 981 1110 1018 m 1093 981 q 1124 1056 1093 1025 q 1200 1088 1156 1088 q 1275 1056 1244 1088 q 1306 981 1306 1025 q 1275 906 1306 936 q 1200 875 1244 875 q 1124 906 1156 875 q 1093 981 1093 936 z "},"":{"ha":1390,"x_min":-1,"x_max":1418,"o":"m 1269 685 q 1327 674 1300 683 q 1375 648 1354 665 q 1407 606 1396 631 q 1418 549 1418 581 q 1406 489 1418 518 q 1372 438 1393 460 q 1322 401 1350 415 q 1260 388 1293 388 q 1204 405 1228 389 q 1176 453 1181 421 q 1109 483 1140 460 q 1050 529 1078 506 q 1013 457 1025 493 q 1000 389 1000 421 q 1010 336 999 361 q 1049 344 1029 342 q 1089 346 1069 347 q 1127 335 1113 343 q 1142 311 1142 326 q 1128 291 1140 300 q 1092 282 1115 282 q 1044 290 1068 282 q 1001 311 1021 297 q 938 259 967 292 q 889 187 910 226 q 856 105 868 147 q 844 22 844 63 q 853 -45 843 -17 q 883 -92 864 -74 q 926 -121 901 -111 q 978 -132 950 -131 q 1060 -118 1017 -133 q 1043 -6 1040 -68 q 1054 74 1044 28 q 1083 160 1064 119 q 1133 230 1103 201 q 1204 258 1163 258 q 1260 229 1242 257 q 1276 161 1278 201 q 1257 75 1274 118 q 1213 -7 1240 32 q 1149 -76 1186 -46 q 1071 -125 1113 -107 q 1122 -189 1089 -164 q 1210 -217 1156 -214 l 1210 -225 q 1117 -196 1151 -222 q 1064 -128 1082 -169 q 1019 -140 1042 -136 q 974 -143 997 -143 q 902 -129 936 -142 q 842 -92 868 -117 q 800 -33 815 -68 q 786 49 785 3 q 806 147 788 97 q 860 238 825 196 q 868 286 864 261 q 879 335 872 311 q 847 365 864 351 q 808 389 829 379 q 674 194 740 290 q 538 23 608 99 q 390 -98 467 -53 q 225 -139 314 -143 q 130 -121 172 -139 q 58 -72 88 -103 q 14 3 29 -40 q 0 96 -1 46 q 18 192 1 147 q 64 274 35 238 q 133 335 93 310 q 222 368 174 360 q 199 481 199 419 q 237 647 199 576 q 338 764 275 718 q 481 832 400 810 q 650 854 563 854 q 770 847 711 854 q 888 828 829 839 q 1004 808 946 818 q 1122 794 1063 797 q 1170 817 1143 806 q 1226 837 1197 828 q 1284 851 1256 846 q 1338 857 1313 857 q 1363 854 1347 857 q 1378 838 1378 851 q 1365 819 1378 826 q 1333 806 1351 811 q 1299 797 1315 800 q 1274 792 1282 793 q 1211 786 1240 788 q 1171 785 1182 785 q 1072 712 1119 754 q 981 619 1025 669 q 894 511 936 568 q 813 396 853 454 q 882 346 853 376 q 917 464 897 407 q 962 567 938 521 q 1014 648 986 614 q 1074 696 1042 682 l 1078 689 q 1033 635 1054 672 q 993 550 1013 599 q 1051 608 1017 582 q 1122 651 1085 633 q 1198 677 1160 668 q 1269 685 1236 686 m 753 414 q 917 626 831 526 q 1108 786 1003 725 q 994 800 1050 790 q 881 820 938 810 q 767 838 825 831 q 650 846 710 846 q 486 824 565 846 q 345 756 407 801 q 245 643 283 711 q 207 482 207 575 q 231 369 207 421 q 251 372 242 371 q 272 372 261 372 q 399 337 343 371 q 475 240 454 303 q 561 278 524 249 q 624 350 599 308 q 663 440 650 392 q 676 535 676 489 q 665 612 676 579 q 637 665 654 644 q 597 697 619 686 q 549 707 574 707 q 497 697 522 707 q 450 667 471 686 q 417 619 429 647 q 404 557 404 592 q 424 492 404 521 q 483 458 443 463 l 483 450 q 417 484 439 454 q 396 554 396 514 q 410 623 396 593 q 446 674 424 653 q 497 706 468 694 q 557 718 526 718 q 618 707 588 718 q 673 672 649 696 q 712 613 697 649 q 726 529 726 576 q 708 424 726 475 q 656 333 689 374 q 577 267 622 293 q 478 232 532 240 q 486 176 486 207 q 431 34 486 89 q 289 -21 376 -21 l 289 -11 q 352 5 325 -11 q 398 47 379 21 q 426 107 417 74 q 436 176 436 140 q 429 229 436 201 q 306 267 358 232 q 226 360 254 301 q 138 328 178 351 q 70 269 99 304 q 26 190 42 235 q 8 96 10 146 q 23 6 8 47 q 65 -66 38 -36 q 133 -113 93 -96 q 225 -131 174 -131 q 366 -79 300 -128 q 494 45 432 -31 q 619 216 557 121 q 747 407 681 311 l 718 410 l 718 418 q 753 414 736 418 m 1054 536 q 1110 491 1081 513 q 1175 463 1140 469 l 1175 465 q 1197 530 1176 501 q 1249 558 1217 558 q 1277 547 1265 558 q 1289 518 1289 536 q 1280 489 1289 501 q 1257 468 1271 476 q 1226 456 1243 460 q 1194 451 1210 451 l 1185 451 q 1210 411 1190 425 q 1258 397 1231 397 q 1317 408 1290 396 q 1365 442 1344 421 q 1398 492 1386 464 q 1410 549 1410 519 q 1372 638 1410 606 q 1282 671 1335 669 q 1215 661 1247 672 q 1153 631 1182 650 q 1099 588 1124 613 q 1054 536 1074 563 m 1068 -115 q 1144 -69 1108 -99 q 1206 -3 1179 -40 q 1249 77 1233 35 q 1268 163 1265 119 q 1253 222 1269 196 q 1206 249 1238 249 q 1137 222 1165 250 q 1090 154 1108 194 q 1062 70 1071 114 q 1051 -6 1053 26 q 1068 -115 1049 -65 m 235 361 q 310 274 261 308 q 428 238 360 240 q 372 327 413 292 q 268 363 331 363 q 251 363 260 363 q 235 361 243 363 m 1185 461 q 1196 460 1188 460 q 1251 474 1224 458 q 1281 518 1279 489 q 1272 541 1281 532 q 1249 550 1263 550 q 1202 522 1219 550 q 1185 469 1185 494 l 1185 461 m 1271 800 q 1297 805 1281 801 q 1328 813 1313 808 q 1356 823 1344 817 q 1367 836 1367 829 q 1350 846 1367 846 q 1311 841 1333 846 q 1266 828 1289 836 q 1222 811 1243 821 q 1186 793 1200 801 q 1219 795 1194 793 q 1271 800 1243 797 m 1019 321 q 1090 289 1043 292 q 1120 296 1110 289 q 1131 311 1131 303 q 1122 328 1132 319 q 1089 336 1111 336 q 1019 321 1053 336 m 983 328 q 959 365 968 344 q 949 414 950 386 q 934 355 940 385 q 921 294 928 325 q 983 328 950 315 z "},"":{"ha":192,"x_min":-32,"x_max":138,"o":"m 49 15 l 28 -29 q 44 -26 36 -28 q 60 -26 53 -25 q 119 -48 100 -26 q 138 -99 138 -69 q 106 -172 138 -142 q 31 -203 74 -203 q -12 -190 7 -203 q -32 -150 -32 -176 q -18 -115 -32 -129 l -15 -117 q -29 -150 -29 -133 q -12 -186 -29 -174 q 26 -199 4 -199 q 63 -189 47 -199 q 91 -163 79 -179 q 109 -128 103 -147 q 115 -90 115 -110 q 102 -47 115 -65 q 60 -29 89 -29 q 25 -33 44 -26 l 22 -31 l 44 15 l 49 15 z "},"":{"ha":1157,"x_min":-1,"x_max":1174,"o":"m 565 58 q 581 178 565 114 q 626 308 597 243 q 697 435 656 374 q 786 547 738 497 l 782 550 q 717 603 751 576 q 641 653 682 631 q 551 689 600 675 q 442 703 501 703 q 256 665 336 703 q 120 567 175 626 q 37 433 65 507 q 8 288 8 358 q 24 188 8 235 q 68 106 39 142 q 140 50 97 71 q 238 29 183 29 q 347 60 299 29 q 429 140 396 92 q 480 247 463 188 q 497 360 497 306 q 487 422 497 396 q 460 466 476 449 q 422 492 443 483 q 378 500 400 500 q 317 488 343 500 q 275 455 292 475 q 250 410 258 435 q 242 361 242 385 q 265 294 242 322 q 335 267 288 265 l 336 258 q 259 288 285 257 q 232 361 233 319 q 241 414 232 388 q 269 462 250 440 q 317 497 288 483 q 385 511 346 511 q 442 500 414 511 q 493 467 471 489 q 529 410 515 444 q 543 329 543 376 q 522 213 543 269 q 461 114 500 157 q 370 44 422 71 q 256 18 318 18 q 146 38 194 17 q 65 96 97 58 q 15 185 32 133 q 0 297 -1 236 q 31 443 1 369 q 117 576 61 517 q 253 674 172 636 q 442 711 335 711 q 553 697 503 711 q 644 661 603 683 q 721 611 686 639 q 788 557 756 583 l 792 554 q 922 654 854 617 q 1061 692 990 692 q 1141 664 1110 692 q 1174 585 1172 636 q 1163 521 1174 554 q 1131 460 1151 488 q 1081 414 1110 432 q 1019 396 1053 396 q 964 410 988 394 q 935 458 940 426 q 878 478 906 463 q 822 518 850 494 q 740 398 778 464 q 674 265 701 332 q 630 133 646 197 q 615 15 614 68 q 648 -90 618 -50 q 749 -132 678 -131 q 833 -117 790 -132 q 813 -4 813 -65 q 822 76 813 29 q 849 164 831 122 q 897 235 868 206 q 968 264 926 264 q 1024 236 1004 264 q 1042 169 1043 208 q 1025 83 1040 126 q 983 -1 1010 39 q 922 -72 957 -40 q 844 -122 886 -104 q 898 -185 864 -161 q 985 -210 932 -208 l 985 -218 q 892 -192 928 -218 q 836 -125 856 -165 q 794 -138 815 -133 q 749 -143 772 -143 q 735 -142 742 -143 q 721 -140 728 -142 l 711 -161 q 728 -158 719 -160 q 743 -158 736 -157 q 802 -180 783 -158 q 821 -231 821 -201 q 789 -304 821 -274 q 714 -335 757 -335 q 671 -322 690 -335 q 651 -282 651 -308 q 665 -247 651 -261 l 668 -249 q 654 -282 654 -265 q 671 -318 654 -306 q 710 -331 688 -331 q 747 -321 731 -331 q 774 -295 763 -311 q 792 -260 786 -279 q 799 -222 799 -242 q 785 -179 799 -197 q 743 -161 772 -161 q 708 -165 728 -158 l 706 -162 l 717 -140 q 604 -74 642 -129 q 565 58 567 -19 m 933 467 l 933 471 q 952 536 932 507 q 1004 565 972 565 q 1033 555 1021 565 q 1046 526 1044 544 q 1037 497 1046 510 q 1015 475 1028 483 q 985 462 1001 467 q 953 457 968 457 l 943 457 q 970 417 950 431 q 1018 404 990 404 q 1077 422 1050 404 q 1124 465 1104 439 q 1154 524 1143 492 q 1165 585 1165 556 q 1139 655 1164 628 q 1071 682 1114 682 q 949 638 1011 682 q 828 524 886 594 q 881 488 856 503 q 933 467 906 472 m 840 -112 q 915 -65 881 -96 q 976 3 950 -35 q 1017 85 1001 42 q 1033 169 1032 128 q 1017 230 1033 204 q 969 256 1001 256 q 901 227 929 256 q 856 158 874 199 q 830 72 839 117 q 821 -4 821 28 q 840 -112 821 -62 m 942 467 q 953 465 946 465 q 982 469 967 465 q 1009 481 997 474 q 1028 500 1021 489 q 1036 526 1036 511 q 1027 548 1036 539 q 1004 557 1018 557 q 978 549 990 557 q 958 528 967 540 q 946 502 950 517 q 942 475 942 488 l 942 467 z "},"":{"ha":1157,"x_min":-3,"x_max":1181,"o":"m 769 567 q 708 617 740 592 q 637 662 675 642 q 553 695 599 682 q 453 710 507 708 q 264 676 346 713 q 126 582 182 640 q 40 451 69 524 q 8 307 10 378 q 21 207 7 254 q 63 124 35 160 q 134 65 92 88 q 232 42 176 43 q 342 70 293 40 q 425 148 390 100 q 478 253 460 196 q 499 365 497 311 q 490 429 500 403 q 465 474 481 456 q 427 501 449 492 q 383 510 406 510 q 322 498 349 510 q 278 466 296 486 q 252 422 261 446 q 243 374 243 397 q 265 306 243 335 q 335 278 288 278 l 335 269 q 258 301 283 269 q 235 375 233 332 q 244 427 235 401 q 274 474 254 453 q 322 508 293 494 q 390 519 351 521 q 447 508 419 519 q 497 473 475 496 q 532 416 519 450 q 543 335 544 382 q 519 219 542 275 q 456 122 496 164 q 364 54 417 79 q 249 31 311 29 q 140 54 188 32 q 60 115 92 76 q 13 204 28 153 q 0 315 -3 256 q 35 460 4 388 q 124 592 67 533 q 264 685 182 650 q 453 718 346 721 q 555 703 508 717 q 640 670 601 690 q 713 624 679 650 q 775 574 746 599 q 891 658 824 629 q 1032 685 958 688 q 1090 674 1063 683 q 1138 648 1117 665 q 1169 606 1158 631 q 1181 549 1181 581 q 1168 489 1181 518 q 1134 438 1156 460 q 1084 401 1113 415 q 1022 388 1056 388 q 967 405 990 389 q 939 453 943 421 q 872 483 903 460 q 813 529 840 506 q 775 457 788 493 q 763 389 763 421 q 772 336 761 361 q 812 344 792 342 q 851 346 832 347 q 890 335 875 343 q 904 311 904 326 q 890 291 903 300 q 854 282 878 282 q 807 290 831 282 q 764 311 783 297 q 701 259 729 292 q 651 187 672 226 q 619 105 631 147 q 607 22 607 63 q 616 -45 606 -17 q 645 -92 626 -74 q 688 -121 664 -111 q 740 -132 713 -131 q 822 -118 779 -133 q 806 -6 803 -68 q 817 74 807 28 q 846 160 826 119 q 895 230 865 201 q 967 258 925 258 q 1022 229 1004 257 q 1039 161 1040 201 q 1019 75 1036 118 q 976 -7 1003 32 q 912 -76 949 -46 q 833 -125 875 -107 q 885 -189 851 -164 q 972 -217 918 -214 l 972 -225 q 879 -196 914 -222 q 826 -128 844 -169 q 782 -140 804 -136 q 736 -143 760 -143 q 665 -129 699 -142 q 604 -92 631 -117 q 563 -33 578 -68 q 549 49 547 3 q 564 133 550 90 q 603 213 578 175 q 665 281 629 250 q 746 328 701 311 q 721 369 731 346 q 711 421 711 392 q 769 567 708 496 m 817 536 q 873 491 843 513 q 938 463 903 469 l 938 465 q 959 530 939 501 q 1011 558 979 558 q 1040 547 1028 558 q 1051 518 1051 536 q 1042 489 1051 501 q 1019 468 1033 476 q 989 456 1006 460 q 957 451 972 451 l 947 451 q 973 411 953 425 q 1021 397 993 397 q 1080 408 1053 396 q 1128 442 1107 421 q 1160 492 1149 464 q 1172 549 1172 519 q 1135 638 1172 606 q 1044 671 1097 669 q 977 661 1010 672 q 915 631 944 650 q 861 588 886 613 q 817 536 836 563 m 831 -115 q 906 -69 871 -99 q 969 -3 942 -40 q 1012 77 996 35 q 1031 163 1028 119 q 1016 222 1032 196 q 968 249 1000 249 q 899 222 928 250 q 852 154 871 194 q 824 70 833 114 q 814 -6 815 26 q 831 -115 811 -65 m 947 461 q 958 460 950 460 q 1014 474 986 458 q 1043 518 1042 489 q 1034 541 1043 532 q 1011 550 1025 550 q 965 522 982 550 q 947 469 947 494 l 947 461 m 782 321 q 853 289 806 292 q 883 296 872 289 q 893 311 893 303 q 884 328 894 319 q 851 336 874 336 q 782 321 815 336 m 1119 750 l 1053 838 l 1108 838 l 1150 753 l 1119 750 z "},"":{"ha":1157,"x_min":-3,"x_max":1181,"o":"m 769 567 q 708 617 740 592 q 637 662 675 642 q 553 695 599 682 q 453 710 507 708 q 264 676 346 713 q 126 582 182 640 q 40 451 69 524 q 8 307 10 378 q 21 207 7 254 q 63 124 35 160 q 134 65 92 88 q 232 42 176 43 q 342 70 293 40 q 425 148 390 100 q 478 253 460 196 q 499 365 497 311 q 490 429 500 403 q 465 474 481 456 q 427 501 449 492 q 383 510 406 510 q 322 498 349 510 q 278 466 296 486 q 252 422 261 446 q 243 374 243 397 q 265 306 243 335 q 335 278 288 278 l 335 269 q 258 301 283 269 q 235 375 233 332 q 244 427 235 401 q 274 474 254 453 q 322 508 293 494 q 390 519 351 521 q 447 508 419 519 q 497 473 475 496 q 532 416 519 450 q 543 335 544 382 q 519 219 542 275 q 456 122 496 164 q 364 54 417 79 q 249 31 311 29 q 140 54 188 32 q 60 115 92 76 q 13 204 28 153 q 0 315 -3 256 q 35 460 4 388 q 124 592 67 533 q 264 685 182 650 q 453 718 346 721 q 555 703 508 717 q 640 670 601 690 q 713 624 679 650 q 775 574 746 599 q 891 658 824 629 q 1032 685 958 688 q 1090 674 1063 683 q 1138 648 1117 665 q 1169 606 1158 631 q 1181 549 1181 581 q 1168 489 1181 518 q 1134 438 1156 460 q 1084 401 1113 415 q 1022 388 1056 388 q 967 405 990 389 q 939 453 943 421 q 872 483 903 460 q 813 529 840 506 q 775 457 788 493 q 763 389 763 421 q 772 336 761 361 q 812 344 792 342 q 851 346 832 347 q 890 335 875 343 q 904 311 904 326 q 890 291 903 300 q 854 282 878 282 q 807 290 831 282 q 764 311 783 297 q 701 259 729 292 q 651 187 672 226 q 619 105 631 147 q 607 22 607 63 q 616 -45 606 -17 q 645 -92 626 -74 q 688 -121 664 -111 q 740 -132 713 -131 q 822 -118 779 -133 q 806 -6 803 -68 q 817 74 807 28 q 846 160 826 119 q 895 230 865 201 q 967 258 925 258 q 1022 229 1004 257 q 1039 161 1040 201 q 1019 75 1036 118 q 976 -7 1003 32 q 912 -76 949 -46 q 833 -125 875 -107 q 885 -189 851 -164 q 972 -217 918 -214 l 972 -225 q 879 -196 914 -222 q 826 -128 844 -169 q 782 -140 804 -136 q 736 -143 760 -143 q 665 -129 699 -142 q 604 -92 631 -117 q 563 -33 578 -68 q 549 49 547 3 q 564 133 550 90 q 603 213 578 175 q 665 281 629 250 q 746 328 701 311 q 721 369 731 346 q 711 421 711 392 q 769 567 708 496 m 817 536 q 873 491 843 513 q 938 463 903 469 l 938 465 q 959 530 939 501 q 1011 558 979 558 q 1040 547 1028 558 q 1051 518 1051 536 q 1042 489 1051 501 q 1019 468 1033 476 q 989 456 1006 460 q 957 451 972 451 l 947 451 q 973 411 953 425 q 1021 397 993 397 q 1080 408 1053 396 q 1128 442 1107 421 q 1160 492 1149 464 q 1172 549 1172 519 q 1135 638 1172 606 q 1044 671 1097 669 q 977 661 1010 672 q 915 631 944 650 q 861 588 886 613 q 817 536 836 563 m 831 -115 q 906 -69 871 -99 q 969 -3 942 -40 q 1012 77 996 35 q 1031 163 1028 119 q 1016 222 1032 196 q 968 249 1000 249 q 899 222 928 250 q 852 154 871 194 q 824 70 833 114 q 814 -6 815 26 q 831 -115 811 -65 m 947 461 q 958 460 950 460 q 1014 474 986 458 q 1043 518 1042 489 q 1034 541 1043 532 q 1011 550 1025 550 q 965 522 982 550 q 947 469 947 494 l 947 461 m 782 321 q 853 289 806 292 q 883 296 872 289 q 893 311 893 303 q 884 328 894 319 q 851 336 874 336 q 782 321 815 336 m 1106 864 l 1161 864 l 1094 776 l 1064 779 l 1106 864 z "},"":{"ha":1157,"x_min":-3,"x_max":1186,"o":"m 769 567 q 708 617 740 592 q 637 662 675 642 q 553 695 599 682 q 453 710 507 708 q 264 676 346 713 q 126 582 182 640 q 40 451 69 524 q 8 307 10 378 q 21 207 7 254 q 63 124 35 160 q 134 65 92 88 q 232 42 176 43 q 342 70 293 40 q 425 148 390 100 q 478 253 460 196 q 499 365 497 311 q 490 429 500 403 q 465 474 481 456 q 427 501 449 492 q 383 510 406 510 q 322 498 349 510 q 278 466 296 486 q 252 422 261 446 q 243 374 243 397 q 265 306 243 335 q 335 278 288 278 l 335 269 q 258 301 283 269 q 235 375 233 332 q 244 427 235 401 q 274 474 254 453 q 322 508 293 494 q 390 519 351 521 q 447 508 419 519 q 497 473 475 496 q 532 416 519 450 q 543 335 544 382 q 519 219 542 275 q 456 122 496 164 q 364 54 417 79 q 249 31 311 29 q 140 54 188 32 q 60 115 92 76 q 13 204 28 153 q 0 315 -3 256 q 35 460 4 388 q 124 592 67 533 q 264 685 182 650 q 453 718 346 721 q 555 703 508 717 q 640 670 601 690 q 713 624 679 650 q 775 574 746 599 q 891 658 824 629 q 1032 685 958 688 q 1090 674 1063 683 q 1138 648 1117 665 q 1169 606 1158 631 q 1181 549 1181 581 q 1168 489 1181 518 q 1134 438 1156 460 q 1084 401 1113 415 q 1022 388 1056 388 q 967 405 990 389 q 939 453 943 421 q 872 483 903 460 q 813 529 840 506 q 775 457 788 493 q 763 389 763 421 q 772 336 761 361 q 812 344 792 342 q 851 346 832 347 q 890 335 875 343 q 904 311 904 326 q 890 291 903 300 q 854 282 878 282 q 807 290 831 282 q 764 311 783 297 q 701 259 729 292 q 651 187 672 226 q 619 105 631 147 q 607 22 607 63 q 616 -45 606 -17 q 645 -92 626 -74 q 688 -121 664 -111 q 740 -132 713 -131 q 822 -118 779 -133 q 806 -6 803 -68 q 817 74 807 28 q 846 160 826 119 q 895 230 865 201 q 967 258 925 258 q 1022 229 1004 257 q 1039 161 1040 201 q 1019 75 1036 118 q 976 -7 1003 32 q 912 -76 949 -46 q 833 -125 875 -107 q 885 -189 851 -164 q 972 -217 918 -214 l 972 -225 q 879 -196 914 -222 q 826 -128 844 -169 q 782 -140 804 -136 q 736 -143 760 -143 q 665 -129 699 -142 q 604 -92 631 -117 q 563 -33 578 -68 q 549 49 547 3 q 564 133 550 90 q 603 213 578 175 q 665 281 629 250 q 746 328 701 311 q 721 369 731 346 q 711 421 711 392 q 769 567 708 496 m 817 536 q 873 491 843 513 q 938 463 903 469 l 938 465 q 959 530 939 501 q 1011 558 979 558 q 1040 547 1028 558 q 1051 518 1051 536 q 1042 489 1051 501 q 1019 468 1033 476 q 989 456 1006 460 q 957 451 972 451 l 947 451 q 973 411 953 425 q 1021 397 993 397 q 1080 408 1053 396 q 1128 442 1107 421 q 1160 492 1149 464 q 1172 549 1172 519 q 1135 638 1172 606 q 1044 671 1097 669 q 977 661 1010 672 q 915 631 944 650 q 861 588 886 613 q 817 536 836 563 m 831 -115 q 906 -69 871 -99 q 969 -3 942 -40 q 1012 77 996 35 q 1031 163 1028 119 q 1016 222 1032 196 q 968 249 1000 249 q 899 222 928 250 q 852 154 871 194 q 824 70 833 114 q 814 -6 815 26 q 831 -115 811 -65 m 947 461 q 958 460 950 460 q 1014 474 986 458 q 1043 518 1042 489 q 1034 541 1043 532 q 1011 550 1025 550 q 965 522 982 550 q 947 469 947 494 l 947 461 m 782 321 q 853 289 806 292 q 883 296 872 289 q 893 311 893 303 q 884 328 894 319 q 851 336 874 336 q 782 321 815 336 m 1126 828 l 1085 786 l 1032 804 l 1135 861 l 1140 860 l 1186 751 l 1133 769 l 1126 828 z "},"":{"ha":1157,"x_min":-3,"x_max":1181,"o":"m 769 567 q 708 617 740 592 q 637 662 675 642 q 553 695 599 682 q 453 710 507 708 q 264 676 346 713 q 126 582 182 640 q 40 451 69 524 q 8 307 10 378 q 21 207 7 254 q 63 124 35 160 q 134 65 92 88 q 232 42 176 43 q 342 70 293 40 q 425 148 390 100 q 478 253 460 196 q 499 365 497 311 q 490 429 500 403 q 465 474 481 456 q 427 501 449 492 q 383 510 406 510 q 322 498 349 510 q 278 466 296 486 q 252 422 261 446 q 243 374 243 397 q 265 306 243 335 q 335 278 288 278 l 335 269 q 258 301 283 269 q 235 375 233 332 q 244 427 235 401 q 274 474 254 453 q 322 508 293 494 q 390 519 351 521 q 447 508 419 519 q 497 473 475 496 q 532 416 519 450 q 543 335 544 382 q 519 219 542 275 q 456 122 496 164 q 364 54 417 79 q 249 31 311 29 q 140 54 188 32 q 60 115 92 76 q 13 204 28 153 q 0 315 -3 256 q 35 460 4 388 q 124 592 67 533 q 264 685 182 650 q 453 718 346 721 q 555 703 508 717 q 640 670 601 690 q 713 624 679 650 q 775 574 746 599 q 891 658 824 629 q 1032 685 958 688 q 1090 674 1063 683 q 1138 648 1117 665 q 1169 606 1158 631 q 1181 549 1181 581 q 1168 489 1181 518 q 1134 438 1156 460 q 1084 401 1113 415 q 1022 388 1056 388 q 967 405 990 389 q 939 453 943 421 q 872 483 903 460 q 813 529 840 506 q 775 457 788 493 q 763 389 763 421 q 772 336 761 361 q 812 344 792 342 q 851 346 832 347 q 890 335 875 343 q 904 311 904 326 q 890 291 903 300 q 854 282 878 282 q 807 290 831 282 q 764 311 783 297 q 701 259 729 292 q 651 187 672 226 q 619 105 631 147 q 607 22 607 63 q 616 -45 606 -17 q 645 -92 626 -74 q 688 -121 664 -111 q 740 -132 713 -131 q 822 -118 779 -133 q 806 -6 803 -68 q 817 74 807 28 q 846 160 826 119 q 895 230 865 201 q 967 258 925 258 q 1022 229 1004 257 q 1039 161 1040 201 q 1019 75 1036 118 q 976 -7 1003 32 q 912 -76 949 -46 q 833 -125 875 -107 q 885 -189 851 -164 q 972 -217 918 -214 l 972 -225 q 879 -196 914 -222 q 826 -128 844 -169 q 782 -140 804 -136 q 736 -143 760 -143 q 665 -129 699 -142 q 604 -92 631 -117 q 563 -33 578 -68 q 549 49 547 3 q 564 133 550 90 q 603 213 578 175 q 665 281 629 250 q 746 328 701 311 q 721 369 731 346 q 711 421 711 392 q 769 567 708 496 m 817 536 q 873 491 843 513 q 938 463 903 469 l 938 465 q 959 530 939 501 q 1011 558 979 558 q 1040 547 1028 558 q 1051 518 1051 536 q 1042 489 1051 501 q 1019 468 1033 476 q 989 456 1006 460 q 957 451 972 451 l 947 451 q 973 411 953 425 q 1021 397 993 397 q 1080 408 1053 396 q 1128 442 1107 421 q 1160 492 1149 464 q 1172 549 1172 519 q 1135 638 1172 606 q 1044 671 1097 669 q 977 661 1010 672 q 915 631 944 650 q 861 588 886 613 q 817 536 836 563 m 831 -115 q 906 -69 871 -99 q 969 -3 942 -40 q 1012 77 996 35 q 1031 163 1028 119 q 1016 222 1032 196 q 968 249 1000 249 q 899 222 928 250 q 852 154 871 194 q 824 70 833 114 q 814 -6 815 26 q 831 -115 811 -65 m 947 461 q 958 460 950 460 q 1014 474 986 458 q 1043 518 1042 489 q 1034 541 1043 532 q 1011 550 1025 550 q 965 522 982 550 q 947 469 947 494 l 947 461 m 782 321 q 853 289 806 292 q 883 296 872 289 q 893 311 893 303 q 884 328 894 319 q 851 336 874 336 q 782 321 815 336 m 1046 774 q 1024 783 1033 774 q 1015 804 1015 792 q 1024 825 1015 817 q 1046 833 1033 833 q 1067 825 1058 833 q 1075 804 1075 817 q 1067 783 1075 792 q 1046 774 1058 774 m 1140 774 q 1119 783 1128 774 q 1110 804 1110 792 q 1119 825 1110 817 q 1140 833 1128 833 q 1161 825 1153 833 q 1169 804 1169 817 q 1161 783 1169 792 q 1140 774 1153 774 z "},"":{"ha":817,"x_min":0,"x_max":1196,"o":"m 196 360 q 142 449 160 397 q 129 560 125 500 q 174 710 136 646 q 268 815 211 774 q 397 876 325 857 q 547 889 469 894 q 653 874 601 885 q 758 849 706 863 q 863 824 810 836 q 969 807 915 813 q 1058 847 1010 833 q 1154 857 1106 860 q 1196 835 1196 853 q 1184 817 1196 824 q 1156 807 1172 811 q 1122 801 1140 803 q 1089 797 1103 799 q 1048 794 1068 794 q 1007 796 1028 794 q 935 722 968 767 q 872 625 901 678 q 815 513 842 572 q 763 390 789 453 q 714 272 739 333 q 660 150 689 210 q 594 37 631 90 q 513 -58 558 -17 q 409 -123 467 -99 q 279 -147 351 -147 q 154 -126 207 -147 q 67 -71 101 -106 q 17 8 33 -36 q 0 97 0 51 q 13 181 0 139 q 50 258 25 222 q 112 319 75 293 q 196 360 149 346 m 490 161 q 471 83 488 118 q 426 23 454 47 q 362 -14 399 -1 q 282 -24 325 -26 l 282 -15 q 347 -3 318 -18 q 395 37 375 11 q 426 95 415 63 q 440 164 438 128 q 408 292 444 236 q 381 288 394 289 q 353 289 368 288 q 269 308 307 292 q 203 353 232 325 q 119 315 156 340 q 58 254 83 289 q 22 179 33 219 q 10 97 10 139 q 25 13 10 54 q 72 -62 40 -29 q 150 -115 103 -94 q 263 -135 197 -135 q 380 -108 328 -135 q 474 -37 432 -82 q 551 64 517 7 q 612 182 585 121 q 663 303 639 243 q 707 413 686 363 q 759 528 732 471 q 817 635 786 585 q 882 728 847 686 q 958 800 917 771 q 855 817 906 806 q 754 842 804 829 q 653 865 704 854 q 551 881 603 876 q 402 867 474 886 q 274 808 331 849 q 182 704 218 767 q 139 560 146 642 q 151 450 133 501 q 206 363 169 399 q 276 369 242 371 q 362 353 321 368 q 435 308 403 339 q 505 351 474 322 q 558 416 536 379 q 594 494 581 453 q 611 576 608 536 q 606 653 614 619 q 581 709 597 686 q 543 744 565 732 q 496 757 521 756 q 443 750 469 758 q 394 724 417 742 q 358 681 372 707 q 340 619 343 654 q 355 552 338 582 q 413 515 372 522 l 411 507 q 349 545 368 514 q 332 617 329 576 q 351 685 335 656 q 391 733 367 714 q 445 760 415 751 q 506 768 475 769 q 566 752 536 765 q 618 713 596 739 q 652 651 640 688 q 660 567 664 614 q 638 476 656 519 q 592 398 621 433 q 526 337 564 363 q 444 299 488 311 q 490 161 494 244 m 403 300 q 343 345 379 331 q 267 360 307 360 q 240 359 253 361 q 213 354 226 357 q 351 297 268 306 q 403 300 375 296 m 1019 804 q 1049 804 1032 804 q 1086 806 1067 804 q 1113 808 1096 806 q 1145 813 1129 810 q 1173 821 1161 815 q 1185 833 1185 826 q 1176 842 1185 840 q 1157 846 1167 844 q 1085 836 1122 849 q 1019 804 1047 824 m 924 933 l 857 1021 l 913 1021 l 954 936 l 924 933 z "},"":{"ha":817,"x_min":0,"x_max":1196,"o":"m 196 360 q 142 449 160 397 q 129 560 125 500 q 174 710 136 646 q 268 815 211 774 q 397 876 325 857 q 547 889 469 894 q 653 874 601 885 q 758 849 706 863 q 863 824 810 836 q 969 807 915 813 q 1058 847 1010 833 q 1154 857 1106 860 q 1196 835 1196 853 q 1184 817 1196 824 q 1156 807 1172 811 q 1122 801 1140 803 q 1089 797 1103 799 q 1048 794 1068 794 q 1007 796 1028 794 q 935 722 968 767 q 872 625 901 678 q 815 513 842 572 q 763 390 789 453 q 714 272 739 333 q 660 150 689 210 q 594 37 631 90 q 513 -58 558 -17 q 409 -123 467 -99 q 279 -147 351 -147 q 154 -126 207 -147 q 67 -71 101 -106 q 17 8 33 -36 q 0 97 0 51 q 13 181 0 139 q 50 258 25 222 q 112 319 75 293 q 196 360 149 346 m 490 161 q 471 83 488 118 q 426 23 454 47 q 362 -14 399 -1 q 282 -24 325 -26 l 282 -15 q 347 -3 318 -18 q 395 37 375 11 q 426 95 415 63 q 440 164 438 128 q 408 292 444 236 q 381 288 394 289 q 353 289 368 288 q 269 308 307 292 q 203 353 232 325 q 119 315 156 340 q 58 254 83 289 q 22 179 33 219 q 10 97 10 139 q 25 13 10 54 q 72 -62 40 -29 q 150 -115 103 -94 q 263 -135 197 -135 q 380 -108 328 -135 q 474 -37 432 -82 q 551 64 517 7 q 612 182 585 121 q 663 303 639 243 q 707 413 686 363 q 759 528 732 471 q 817 635 786 585 q 882 728 847 686 q 958 800 917 771 q 855 817 906 806 q 754 842 804 829 q 653 865 704 854 q 551 881 603 876 q 402 867 474 886 q 274 808 331 849 q 182 704 218 767 q 139 560 146 642 q 151 450 133 501 q 206 363 169 399 q 276 369 242 371 q 362 353 321 368 q 435 308 403 339 q 505 351 474 322 q 558 416 536 379 q 594 494 581 453 q 611 576 608 536 q 606 653 614 619 q 581 709 597 686 q 543 744 565 732 q 496 757 521 756 q 443 750 469 758 q 394 724 417 742 q 358 681 372 707 q 340 619 343 654 q 355 552 338 582 q 413 515 372 522 l 411 507 q 349 545 368 514 q 332 617 329 576 q 351 685 335 656 q 391 733 367 714 q 445 760 415 751 q 506 768 475 769 q 566 752 536 765 q 618 713 596 739 q 652 651 640 688 q 660 567 664 614 q 638 476 656 519 q 592 398 621 433 q 526 337 564 363 q 444 299 488 311 q 490 161 494 244 m 403 300 q 343 345 379 331 q 267 360 307 360 q 240 359 253 361 q 213 354 226 357 q 351 297 268 306 q 403 300 375 296 m 1019 804 q 1049 804 1032 804 q 1086 806 1067 804 q 1113 808 1096 806 q 1145 813 1129 810 q 1173 821 1161 815 q 1185 833 1185 826 q 1176 842 1185 840 q 1157 846 1167 844 q 1085 836 1122 849 q 1019 804 1047 824 m 971 1021 l 1026 1021 l 960 933 l 929 936 l 971 1021 z "},"":{"ha":817,"x_min":0,"x_max":1196,"o":"m 196 360 q 142 449 160 397 q 129 560 125 500 q 174 710 136 646 q 268 815 211 774 q 397 876 325 857 q 547 889 469 894 q 653 874 601 885 q 758 849 706 863 q 863 824 810 836 q 969 807 915 813 q 1058 847 1010 833 q 1154 857 1106 860 q 1196 835 1196 853 q 1184 817 1196 824 q 1156 807 1172 811 q 1122 801 1140 803 q 1089 797 1103 799 q 1048 794 1068 794 q 1007 796 1028 794 q 935 722 968 767 q 872 625 901 678 q 815 513 842 572 q 763 390 789 453 q 714 272 739 333 q 660 150 689 210 q 594 37 631 90 q 513 -58 558 -17 q 409 -123 467 -99 q 279 -147 351 -147 q 154 -126 207 -147 q 67 -71 101 -106 q 17 8 33 -36 q 0 97 0 51 q 13 181 0 139 q 50 258 25 222 q 112 319 75 293 q 196 360 149 346 m 490 161 q 471 83 488 118 q 426 23 454 47 q 362 -14 399 -1 q 282 -24 325 -26 l 282 -15 q 347 -3 318 -18 q 395 37 375 11 q 426 95 415 63 q 440 164 438 128 q 408 292 444 236 q 381 288 394 289 q 353 289 368 288 q 269 308 307 292 q 203 353 232 325 q 119 315 156 340 q 58 254 83 289 q 22 179 33 219 q 10 97 10 139 q 25 13 10 54 q 72 -62 40 -29 q 150 -115 103 -94 q 263 -135 197 -135 q 380 -108 328 -135 q 474 -37 432 -82 q 551 64 517 7 q 612 182 585 121 q 663 303 639 243 q 707 413 686 363 q 759 528 732 471 q 817 635 786 585 q 882 728 847 686 q 958 800 917 771 q 855 817 906 806 q 754 842 804 829 q 653 865 704 854 q 551 881 603 876 q 402 867 474 886 q 274 808 331 849 q 182 704 218 767 q 139 560 146 642 q 151 450 133 501 q 206 363 169 399 q 276 369 242 371 q 362 353 321 368 q 435 308 403 339 q 505 351 474 322 q 558 416 536 379 q 594 494 581 453 q 611 576 608 536 q 606 653 614 619 q 581 709 597 686 q 543 744 565 732 q 496 757 521 756 q 443 750 469 758 q 394 724 417 742 q 358 681 372 707 q 340 619 343 654 q 355 552 338 582 q 413 515 372 522 l 411 507 q 349 545 368 514 q 332 617 329 576 q 351 685 335 656 q 391 733 367 714 q 445 760 415 751 q 506 768 475 769 q 566 752 536 765 q 618 713 596 739 q 652 651 640 688 q 660 567 664 614 q 638 476 656 519 q 592 398 621 433 q 526 337 564 363 q 444 299 488 311 q 490 161 494 244 m 403 300 q 343 345 379 331 q 267 360 307 360 q 240 359 253 361 q 213 354 226 357 q 351 297 268 306 q 403 300 375 296 m 1019 804 q 1049 804 1032 804 q 1086 806 1067 804 q 1113 808 1096 806 q 1145 813 1129 810 q 1173 821 1161 815 q 1185 833 1185 826 q 1176 842 1185 840 q 1157 846 1167 844 q 1085 836 1122 849 q 1019 804 1047 824 m 992 1000 l 950 958 l 897 976 l 1000 1033 l 1006 1032 l 1051 924 l 999 942 l 992 1000 z "},"":{"ha":817,"x_min":0,"x_max":1196,"o":"m 196 360 q 142 449 160 397 q 129 560 125 500 q 174 710 136 646 q 268 815 211 774 q 397 876 325 857 q 547 889 469 894 q 653 874 601 885 q 758 849 706 863 q 863 824 810 836 q 969 807 915 813 q 1058 847 1010 833 q 1154 857 1106 860 q 1196 835 1196 853 q 1184 817 1196 824 q 1156 807 1172 811 q 1122 801 1140 803 q 1089 797 1103 799 q 1048 794 1068 794 q 1007 796 1028 794 q 935 722 968 767 q 872 625 901 678 q 815 513 842 572 q 763 390 789 453 q 714 272 739 333 q 660 150 689 210 q 594 37 631 90 q 513 -58 558 -17 q 409 -123 467 -99 q 279 -147 351 -147 q 154 -126 207 -147 q 67 -71 101 -106 q 17 8 33 -36 q 0 97 0 51 q 13 181 0 139 q 50 258 25 222 q 112 319 75 293 q 196 360 149 346 m 490 161 q 471 83 488 118 q 426 23 454 47 q 362 -14 399 -1 q 282 -24 325 -26 l 282 -15 q 347 -3 318 -18 q 395 37 375 11 q 426 95 415 63 q 440 164 438 128 q 408 292 444 236 q 381 288 394 289 q 353 289 368 288 q 269 308 307 292 q 203 353 232 325 q 119 315 156 340 q 58 254 83 289 q 22 179 33 219 q 10 97 10 139 q 25 13 10 54 q 72 -62 40 -29 q 150 -115 103 -94 q 263 -135 197 -135 q 380 -108 328 -135 q 474 -37 432 -82 q 551 64 517 7 q 612 182 585 121 q 663 303 639 243 q 707 413 686 363 q 759 528 732 471 q 817 635 786 585 q 882 728 847 686 q 958 800 917 771 q 855 817 906 806 q 754 842 804 829 q 653 865 704 854 q 551 881 603 876 q 402 867 474 886 q 274 808 331 849 q 182 704 218 767 q 139 560 146 642 q 151 450 133 501 q 206 363 169 399 q 276 369 242 371 q 362 353 321 368 q 435 308 403 339 q 505 351 474 322 q 558 416 536 379 q 594 494 581 453 q 611 576 608 536 q 606 653 614 619 q 581 709 597 686 q 543 744 565 732 q 496 757 521 756 q 443 750 469 758 q 394 724 417 742 q 358 681 372 707 q 340 619 343 654 q 355 552 338 582 q 413 515 372 522 l 411 507 q 349 545 368 514 q 332 617 329 576 q 351 685 335 656 q 391 733 367 714 q 445 760 415 751 q 506 768 475 769 q 566 752 536 765 q 618 713 596 739 q 652 651 640 688 q 660 567 664 614 q 638 476 656 519 q 592 398 621 433 q 526 337 564 363 q 444 299 488 311 q 490 161 494 244 m 403 300 q 343 345 379 331 q 267 360 307 360 q 240 359 253 361 q 213 354 226 357 q 351 297 268 306 q 403 300 375 296 m 1019 804 q 1049 804 1032 804 q 1086 806 1067 804 q 1113 808 1096 806 q 1145 813 1129 810 q 1173 821 1161 815 q 1185 833 1185 826 q 1176 842 1185 840 q 1157 846 1167 844 q 1085 836 1122 849 q 1019 804 1047 824 m 888 943 q 866 952 875 943 q 857 974 857 961 q 866 994 857 986 q 888 1003 875 1003 q 908 994 900 1003 q 917 974 917 986 q 908 952 917 961 q 888 943 900 943 m 982 943 q 960 952 969 943 q 951 974 951 961 q 960 994 951 986 q 982 1003 969 1003 q 1003 994 994 1003 q 1011 974 1011 986 q 1003 952 1011 961 q 982 943 994 943 z "},"":{"ha":1246,"x_min":0,"x_max":1196,"o":"m 1007 790 q 897 662 944 743 q 806 483 849 581 q 851 560 826 522 q 904 629 876 599 q 964 678 932 660 q 1031 697 996 697 q 1104 678 1074 697 q 1154 626 1135 658 q 1182 549 1174 593 q 1189 453 1190 504 q 1172 322 1188 390 q 1131 188 1157 254 q 1067 62 1104 122 q 985 -44 1031 1 q 885 -116 939 -89 q 771 -143 831 -143 q 659 -112 701 -144 q 615 -19 617 -81 q 626 37 614 8 q 667 88 639 65 l 672 81 q 635 35 647 61 q 624 -17 624 10 q 656 -98 624 -65 q 751 -132 689 -131 q 853 -103 804 -133 q 945 -24 903 -74 q 1022 90 988 25 q 1082 226 1057 156 q 1120 367 1107 297 q 1135 499 1133 438 q 1131 575 1136 540 q 1112 635 1125 610 q 1078 674 1099 660 q 1031 688 1058 688 q 940 651 982 688 q 863 563 899 614 q 801 458 828 513 q 756 365 774 403 l 751 354 l 865 356 l 867 294 l 726 294 q 655 135 693 215 q 565 -8 617 56 q 443 -112 513 -72 q 279 -153 374 -153 q 154 -132 207 -153 q 67 -76 101 -111 q 17 3 33 -42 q 0 93 0 47 q 13 176 0 135 q 50 252 25 217 q 112 314 75 288 q 196 354 149 340 q 142 444 160 392 q 129 554 125 496 q 174 705 136 640 q 268 811 211 769 q 397 872 325 853 q 547 885 469 890 q 653 869 601 881 q 758 845 706 858 q 863 819 810 832 q 969 801 915 807 q 1058 841 1010 828 q 1154 851 1106 854 q 1196 829 1196 847 q 1184 812 1196 818 q 1156 801 1172 806 q 1122 795 1140 797 q 1089 792 1103 793 q 1048 790 1068 790 q 1007 790 1028 790 m 578 294 l 576 354 l 685 354 l 707 407 q 759 524 732 467 q 817 631 786 581 q 882 723 847 681 q 958 794 917 765 q 855 812 906 800 q 754 837 804 824 q 653 860 704 850 q 551 875 603 871 q 402 863 474 881 q 274 803 331 844 q 182 700 218 763 q 139 554 146 638 q 151 444 133 496 q 206 357 169 393 q 276 365 239 365 q 362 349 321 364 q 435 304 403 335 q 505 347 474 318 q 558 411 536 375 q 594 489 581 447 q 611 571 608 531 q 606 649 614 615 q 581 704 597 682 q 543 738 565 726 q 496 753 521 750 q 443 746 469 754 q 394 719 417 738 q 358 675 372 701 q 340 614 343 649 q 355 547 338 578 q 413 510 372 517 l 411 501 q 349 540 368 508 q 332 611 329 572 q 351 679 335 650 q 391 728 367 708 q 445 756 415 747 q 506 763 475 764 q 566 747 536 760 q 618 708 596 733 q 652 645 640 682 q 660 561 664 608 q 638 471 656 514 q 592 392 621 428 q 526 331 564 357 q 444 293 488 306 q 490 156 494 239 q 471 77 488 113 q 426 17 454 42 q 362 -19 399 -7 q 282 -29 325 -32 l 282 -19 q 347 -8 318 -22 q 395 32 375 7 q 426 90 415 57 q 440 158 438 122 q 435 227 443 194 q 408 286 426 260 q 381 283 394 283 q 353 283 367 283 q 269 303 307 286 q 203 347 231 319 q 119 309 156 335 q 58 249 83 283 q 22 174 33 214 q 10 93 10 135 q 25 7 10 49 q 72 -67 40 -35 q 150 -119 103 -99 q 263 -139 197 -139 q 405 -99 343 -139 q 514 4 467 -58 q 597 144 561 67 q 661 294 632 221 l 578 294 m 213 350 q 275 311 240 326 q 351 293 310 296 q 378 292 365 292 q 403 296 390 293 q 342 340 379 326 q 265 356 306 354 q 240 354 253 356 q 213 350 226 353 m 1157 840 q 1085 831 1122 843 q 1019 799 1047 818 q 1049 799 1032 799 q 1086 800 1067 799 q 1113 802 1096 800 q 1145 807 1129 804 q 1173 815 1161 810 q 1185 828 1185 821 q 1176 838 1185 835 q 1157 840 1167 840 z "},"":{"ha":1217,"x_min":0,"x_max":1657,"o":"m 964 -3 q 939 158 949 69 q 914 342 929 247 q 890 472 906 404 q 851 603 875 539 q 915 719 881 663 q 992 820 950 776 q 1082 891 1033 864 q 1189 919 1131 918 l 1189 928 q 1072 910 1125 929 q 974 854 1018 890 q 892 769 929 818 q 822 665 854 721 q 772 743 800 707 q 708 805 744 779 q 626 845 671 831 q 526 858 582 860 q 390 830 457 857 q 271 753 324 803 q 184 635 218 704 q 147 483 150 567 q 169 347 144 406 q 47 253 94 319 q 0 99 0 188 q 16 8 0 53 q 65 -73 32 -37 q 151 -131 99 -108 q 275 -153 203 -153 q 449 -107 376 -153 q 575 9 522 -61 q 666 165 628 79 q 736 329 704 250 q 786 451 760 383 q 844 588 813 518 q 881 460 868 525 q 904 338 894 396 q 928 159 918 246 q 950 4 938 72 q 983 -105 963 -64 q 1040 -146 1004 -146 l 1042 -137 q 1007 -110 1014 -135 q 1000 -64 1000 -86 q 1022 88 999 -6 q 1089 289 1046 182 q 1192 504 1132 396 q 1326 701 1253 613 q 1483 847 1399 790 q 1657 908 1567 904 l 1657 917 q 1469 874 1558 921 q 1303 750 1381 828 q 1164 573 1226 672 q 1057 370 1101 474 q 988 169 1013 267 q 964 -3 964 71 m 681 353 q 640 251 661 306 q 591 141 618 196 q 532 35 564 86 q 460 -54 500 -15 q 370 -116 419 -93 q 260 -139 321 -139 q 148 -118 194 -139 q 71 -64 101 -97 q 25 12 40 -31 q 10 99 10 54 q 22 178 10 140 q 55 248 33 217 q 107 303 76 279 q 174 340 138 326 q 252 248 200 282 q 383 214 304 214 q 433 218 408 214 q 438 158 440 190 q 423 90 435 122 q 392 32 411 57 q 344 -8 372 7 q 279 -19 315 -22 l 278 -29 q 358 -19 321 -32 q 422 17 394 -7 q 467 77 450 42 q 488 156 485 113 q 486 195 489 176 q 478 231 483 214 q 560 279 524 247 q 622 351 597 311 q 661 438 647 392 q 675 528 675 483 q 651 632 675 590 q 591 695 626 674 q 513 718 556 717 q 435 703 471 719 q 376 651 400 686 q 351 567 351 617 q 374 496 353 526 q 436 458 396 465 l 436 467 q 381 502 400 474 q 361 567 361 531 q 370 617 361 592 q 397 663 379 643 q 440 696 414 683 q 499 707 465 708 q 590 659 561 704 q 619 549 619 614 q 609 467 619 510 q 579 384 599 425 q 532 309 560 343 q 468 253 504 275 q 390 334 443 306 q 274 365 338 363 q 178 350 226 365 q 156 482 154 410 q 192 628 158 561 q 276 743 225 694 q 393 819 328 792 q 525 849 458 847 q 704 794 635 850 q 815 654 774 739 q 742 500 775 579 q 681 353 708 421 m 182 343 q 263 356 219 356 q 372 321 329 354 q 429 235 414 288 q 367 224 399 224 q 256 256 303 225 q 182 343 208 288 m 1194 978 q 1261 1008 1235 1006 q 1306 997 1288 1010 q 1320 985 1313 992 q 1336 974 1328 978 q 1356 970 1344 969 q 1382 981 1367 971 l 1386 972 q 1322 946 1347 949 q 1279 954 1296 943 q 1264 967 1271 960 q 1248 980 1257 975 q 1227 983 1239 985 q 1199 971 1215 982 l 1194 978 z "},"":{"ha":1260,"x_min":-1,"x_max":1226,"o":"m 758 -140 q 642 -102 685 -137 q 585 -10 600 -67 q 578 117 569 46 q 615 264 588 189 q 686 413 642 339 q 785 544 731 486 l 782 546 q 717 599 751 572 q 641 649 682 626 q 551 685 600 671 q 442 699 501 699 q 256 660 336 699 q 120 562 175 622 q 37 428 65 501 q 8 283 8 354 q 24 184 8 231 q 68 102 39 138 q 140 46 97 67 q 239 25 183 25 q 348 56 300 25 q 429 135 396 88 q 480 242 463 183 q 497 356 497 301 q 487 418 497 392 q 460 462 476 444 q 422 488 443 479 q 378 496 400 496 q 317 483 343 496 q 275 450 292 469 q 250 406 258 431 q 242 357 242 381 q 265 290 242 318 q 335 263 288 261 l 336 254 q 259 284 285 253 q 232 357 233 315 q 241 410 232 383 q 269 458 250 436 q 317 493 288 479 q 385 507 346 507 q 442 496 414 507 q 493 463 471 485 q 529 406 515 440 q 543 325 543 372 q 522 209 543 265 q 461 110 500 153 q 370 40 422 67 q 256 13 318 14 q 146 33 194 13 q 65 92 97 54 q 15 181 32 129 q 0 292 -1 232 q 31 438 1 364 q 117 572 61 513 q 253 669 172 632 q 442 707 335 707 q 553 692 503 707 q 644 656 603 678 q 721 606 686 633 q 788 553 756 579 l 790 550 q 921 653 851 614 q 1065 692 990 692 q 1189 642 1151 692 q 1226 507 1226 593 q 1207 378 1225 449 q 1157 235 1189 307 q 1081 96 1125 164 q 986 -24 1038 28 q 876 -108 935 -76 q 758 -140 818 -140 m 1107 681 q 1174 581 1171 658 q 1163 517 1174 550 q 1131 456 1151 483 q 1081 410 1110 428 q 1019 390 1053 392 q 964 406 988 390 q 935 454 940 422 q 878 474 906 458 q 824 511 851 489 q 735 378 775 450 q 667 233 694 306 q 627 94 639 161 q 624 -25 615 26 q 665 -106 633 -76 q 758 -132 697 -135 q 874 -100 817 -132 q 982 -16 931 -68 q 1076 103 1033 36 q 1151 240 1119 169 q 1199 381 1182 311 q 1217 508 1217 451 q 1192 620 1217 571 q 1107 681 1167 669 m 829 518 q 882 483 857 497 q 933 463 907 468 l 933 467 q 953 532 933 503 q 1004 561 972 561 q 1033 550 1021 561 q 1046 522 1044 539 q 1037 492 1046 506 q 1015 470 1028 479 q 985 457 1001 461 q 953 453 968 453 l 943 453 q 970 413 950 426 q 1018 400 990 400 q 1077 417 1050 400 q 1124 461 1104 435 q 1154 519 1143 488 q 1165 581 1165 551 q 1139 651 1164 624 q 1071 678 1114 678 q 1003 663 1038 678 q 938 623 969 647 q 878 571 906 599 q 829 518 850 543 m 942 461 l 953 461 q 982 465 967 461 q 1009 477 997 469 q 1028 496 1021 485 q 1036 522 1036 507 q 1027 544 1036 535 q 1004 553 1018 553 q 978 544 990 553 q 958 524 967 536 q 946 497 950 511 q 942 471 942 483 l 942 461 m 1146 779 l 1079 867 l 1135 867 l 1176 782 l 1146 779 z "},"":{"ha":1260,"x_min":-1,"x_max":1226,"o":"m 758 -140 q 642 -102 685 -137 q 585 -10 600 -67 q 578 117 569 46 q 615 264 588 189 q 686 413 642 339 q 785 544 731 486 l 782 546 q 717 599 751 572 q 641 649 682 626 q 551 685 600 671 q 442 699 501 699 q 256 660 336 699 q 120 562 175 622 q 37 428 65 501 q 8 283 8 354 q 24 184 8 231 q 68 102 39 138 q 140 46 97 67 q 239 25 183 25 q 348 56 300 25 q 429 135 396 88 q 480 242 463 183 q 497 356 497 301 q 487 418 497 392 q 460 462 476 444 q 422 488 443 479 q 378 496 400 496 q 317 483 343 496 q 275 450 292 469 q 250 406 258 431 q 242 357 242 381 q 265 290 242 318 q 335 263 288 261 l 336 254 q 259 284 285 253 q 232 357 233 315 q 241 410 232 383 q 269 458 250 436 q 317 493 288 479 q 385 507 346 507 q 442 496 414 507 q 493 463 471 485 q 529 406 515 440 q 543 325 543 372 q 522 209 543 265 q 461 110 500 153 q 370 40 422 67 q 256 13 318 14 q 146 33 194 13 q 65 92 97 54 q 15 181 32 129 q 0 292 -1 232 q 31 438 1 364 q 117 572 61 513 q 253 669 172 632 q 442 707 335 707 q 553 692 503 707 q 644 656 603 678 q 721 606 686 633 q 788 553 756 579 l 790 550 q 921 653 851 614 q 1065 692 990 692 q 1189 642 1151 692 q 1226 507 1226 593 q 1207 378 1225 449 q 1157 235 1189 307 q 1081 96 1125 164 q 986 -24 1038 28 q 876 -108 935 -76 q 758 -140 818 -140 m 1107 681 q 1174 581 1171 658 q 1163 517 1174 550 q 1131 456 1151 483 q 1081 410 1110 428 q 1019 390 1053 392 q 964 406 988 390 q 935 454 940 422 q 878 474 906 458 q 824 511 851 489 q 735 378 775 450 q 667 233 694 306 q 627 94 639 161 q 624 -25 615 26 q 665 -106 633 -76 q 758 -132 697 -135 q 874 -100 817 -132 q 982 -16 931 -68 q 1076 103 1033 36 q 1151 240 1119 169 q 1199 381 1182 311 q 1217 508 1217 451 q 1192 620 1217 571 q 1107 681 1167 669 m 829 518 q 882 483 857 497 q 933 463 907 468 l 933 467 q 953 532 933 503 q 1004 561 972 561 q 1033 550 1021 561 q 1046 522 1044 539 q 1037 492 1046 506 q 1015 470 1028 479 q 985 457 1001 461 q 953 453 968 453 l 943 453 q 970 413 950 426 q 1018 400 990 400 q 1077 417 1050 400 q 1124 461 1104 435 q 1154 519 1143 488 q 1165 581 1165 551 q 1139 651 1164 624 q 1071 678 1114 678 q 1003 663 1038 678 q 938 623 969 647 q 878 571 906 599 q 829 518 850 543 m 942 461 l 953 461 q 982 465 967 461 q 1009 477 997 469 q 1028 496 1021 485 q 1036 522 1036 507 q 1027 544 1036 535 q 1004 553 1018 553 q 978 544 990 553 q 958 524 967 536 q 946 497 950 511 q 942 471 942 483 l 942 461 m 1146 860 l 1201 860 l 1135 772 l 1104 775 l 1146 860 z "},"":{"ha":1260,"x_min":-1,"x_max":1231,"o":"m 758 -140 q 642 -102 685 -137 q 585 -10 600 -67 q 578 117 569 46 q 615 264 588 189 q 686 413 642 339 q 785 544 731 486 l 782 546 q 717 599 751 572 q 641 649 682 626 q 551 685 600 671 q 442 699 501 699 q 256 660 336 699 q 120 562 175 622 q 37 428 65 501 q 8 283 8 354 q 24 184 8 231 q 68 102 39 138 q 140 46 97 67 q 239 25 183 25 q 348 56 300 25 q 429 135 396 88 q 480 242 463 183 q 497 356 497 301 q 487 418 497 392 q 460 462 476 444 q 422 488 443 479 q 378 496 400 496 q 317 483 343 496 q 275 450 292 469 q 250 406 258 431 q 242 357 242 381 q 265 290 242 318 q 335 263 288 261 l 336 254 q 259 284 285 253 q 232 357 233 315 q 241 410 232 383 q 269 458 250 436 q 317 493 288 479 q 385 507 346 507 q 442 496 414 507 q 493 463 471 485 q 529 406 515 440 q 543 325 543 372 q 522 209 543 265 q 461 110 500 153 q 370 40 422 67 q 256 13 318 14 q 146 33 194 13 q 65 92 97 54 q 15 181 32 129 q 0 292 -1 232 q 31 438 1 364 q 117 572 61 513 q 253 669 172 632 q 442 707 335 707 q 553 692 503 707 q 644 656 603 678 q 721 606 686 633 q 788 553 756 579 l 790 550 q 921 653 851 614 q 1065 692 990 692 q 1189 642 1151 692 q 1226 507 1226 593 q 1207 378 1225 449 q 1157 235 1189 307 q 1081 96 1125 164 q 986 -24 1038 28 q 876 -108 935 -76 q 758 -140 818 -140 m 1107 681 q 1174 581 1171 658 q 1163 517 1174 550 q 1131 456 1151 483 q 1081 410 1110 428 q 1019 390 1053 392 q 964 406 988 390 q 935 454 940 422 q 878 474 906 458 q 824 511 851 489 q 735 378 775 450 q 667 233 694 306 q 627 94 639 161 q 624 -25 615 26 q 665 -106 633 -76 q 758 -132 697 -135 q 874 -100 817 -132 q 982 -16 931 -68 q 1076 103 1033 36 q 1151 240 1119 169 q 1199 381 1182 311 q 1217 508 1217 451 q 1192 620 1217 571 q 1107 681 1167 669 m 829 518 q 882 483 857 497 q 933 463 907 468 l 933 467 q 953 532 933 503 q 1004 561 972 561 q 1033 550 1021 561 q 1046 522 1044 539 q 1037 492 1046 506 q 1015 470 1028 479 q 985 457 1001 461 q 953 453 968 453 l 943 453 q 970 413 950 426 q 1018 400 990 400 q 1077 417 1050 400 q 1124 461 1104 435 q 1154 519 1143 488 q 1165 581 1165 551 q 1139 651 1164 624 q 1071 678 1114 678 q 1003 663 1038 678 q 938 623 969 647 q 878 571 906 599 q 829 518 850 543 m 942 461 l 953 461 q 982 465 967 461 q 1009 477 997 469 q 1028 496 1021 485 q 1036 522 1036 507 q 1027 544 1036 535 q 1004 553 1018 553 q 978 544 990 553 q 958 524 967 536 q 946 497 950 511 q 942 471 942 483 l 942 461 m 1171 821 l 1129 779 l 1076 797 l 1179 854 l 1185 853 l 1231 744 l 1178 763 l 1171 821 z "},"":{"ha":1260,"x_min":-1,"x_max":1226,"o":"m 758 -140 q 642 -102 685 -137 q 585 -10 600 -67 q 578 117 569 46 q 615 264 588 189 q 686 413 642 339 q 785 544 731 486 l 782 546 q 717 599 751 572 q 641 649 682 626 q 551 685 600 671 q 442 699 501 699 q 256 660 336 699 q 120 562 175 622 q 37 428 65 501 q 8 283 8 354 q 24 184 8 231 q 68 102 39 138 q 140 46 97 67 q 239 25 183 25 q 348 56 300 25 q 429 135 396 88 q 480 242 463 183 q 497 356 497 301 q 487 418 497 392 q 460 462 476 444 q 422 488 443 479 q 378 496 400 496 q 317 483 343 496 q 275 450 292 469 q 250 406 258 431 q 242 357 242 381 q 265 290 242 318 q 335 263 288 261 l 336 254 q 259 284 285 253 q 232 357 233 315 q 241 410 232 383 q 269 458 250 436 q 317 493 288 479 q 385 507 346 507 q 442 496 414 507 q 493 463 471 485 q 529 406 515 440 q 543 325 543 372 q 522 209 543 265 q 461 110 500 153 q 370 40 422 67 q 256 13 318 14 q 146 33 194 13 q 65 92 97 54 q 15 181 32 129 q 0 292 -1 232 q 31 438 1 364 q 117 572 61 513 q 253 669 172 632 q 442 707 335 707 q 553 692 503 707 q 644 656 603 678 q 721 606 686 633 q 788 553 756 579 l 790 550 q 921 653 851 614 q 1065 692 990 692 q 1189 642 1151 692 q 1226 507 1226 593 q 1207 378 1225 449 q 1157 235 1189 307 q 1081 96 1125 164 q 986 -24 1038 28 q 876 -108 935 -76 q 758 -140 818 -140 m 1107 681 q 1174 581 1171 658 q 1163 517 1174 550 q 1131 456 1151 483 q 1081 410 1110 428 q 1019 390 1053 392 q 964 406 988 390 q 935 454 940 422 q 878 474 906 458 q 824 511 851 489 q 735 378 775 450 q 667 233 694 306 q 627 94 639 161 q 624 -25 615 26 q 665 -106 633 -76 q 758 -132 697 -135 q 874 -100 817 -132 q 982 -16 931 -68 q 1076 103 1033 36 q 1151 240 1119 169 q 1199 381 1182 311 q 1217 508 1217 451 q 1192 620 1217 571 q 1107 681 1167 669 m 829 518 q 882 483 857 497 q 933 463 907 468 l 933 467 q 953 532 933 503 q 1004 561 972 561 q 1033 550 1021 561 q 1046 522 1044 539 q 1037 492 1046 506 q 1015 470 1028 479 q 985 457 1001 461 q 953 453 968 453 l 943 453 q 970 413 950 426 q 1018 400 990 400 q 1077 417 1050 400 q 1124 461 1104 435 q 1154 519 1143 488 q 1165 581 1165 551 q 1139 651 1164 624 q 1071 678 1114 678 q 1003 663 1038 678 q 938 623 969 647 q 878 571 906 599 q 829 518 850 543 m 942 461 l 953 461 q 982 465 967 461 q 1009 477 997 469 q 1028 496 1021 485 q 1036 522 1036 507 q 1027 544 1036 535 q 1004 553 1018 553 q 978 544 990 553 q 958 524 967 536 q 946 497 950 511 q 942 471 942 483 l 942 461 m 1035 825 q 1101 855 1075 853 q 1146 844 1128 857 q 1160 832 1153 839 q 1176 821 1168 825 q 1196 817 1185 817 q 1222 828 1207 818 l 1226 819 q 1162 793 1188 796 q 1119 801 1136 790 q 1104 815 1111 807 q 1088 827 1097 822 q 1067 831 1079 832 q 1039 818 1056 829 l 1035 825 z "},"":{"ha":1260,"x_min":-1,"x_max":1226,"o":"m 758 -140 q 642 -102 685 -137 q 585 -10 600 -67 q 578 117 569 46 q 615 264 588 189 q 686 413 642 339 q 785 544 731 486 l 782 546 q 717 599 751 572 q 641 649 682 626 q 551 685 600 671 q 442 699 501 699 q 256 660 336 699 q 120 562 175 622 q 37 428 65 501 q 8 283 8 354 q 24 184 8 231 q 68 102 39 138 q 140 46 97 67 q 239 25 183 25 q 348 56 300 25 q 429 135 396 88 q 480 242 463 183 q 497 356 497 301 q 487 418 497 392 q 460 462 476 444 q 422 488 443 479 q 378 496 400 496 q 317 483 343 496 q 275 450 292 469 q 250 406 258 431 q 242 357 242 381 q 265 290 242 318 q 335 263 288 261 l 336 254 q 259 284 285 253 q 232 357 233 315 q 241 410 232 383 q 269 458 250 436 q 317 493 288 479 q 385 507 346 507 q 442 496 414 507 q 493 463 471 485 q 529 406 515 440 q 543 325 543 372 q 522 209 543 265 q 461 110 500 153 q 370 40 422 67 q 256 13 318 14 q 146 33 194 13 q 65 92 97 54 q 15 181 32 129 q 0 292 -1 232 q 31 438 1 364 q 117 572 61 513 q 253 669 172 632 q 442 707 335 707 q 553 692 503 707 q 644 656 603 678 q 721 606 686 633 q 788 553 756 579 l 790 550 q 921 653 851 614 q 1065 692 990 692 q 1189 642 1151 692 q 1226 507 1226 593 q 1207 378 1225 449 q 1157 235 1189 307 q 1081 96 1125 164 q 986 -24 1038 28 q 876 -108 935 -76 q 758 -140 818 -140 m 1107 681 q 1174 581 1171 658 q 1163 517 1174 550 q 1131 456 1151 483 q 1081 410 1110 428 q 1019 390 1053 392 q 964 406 988 390 q 935 454 940 422 q 878 474 906 458 q 824 511 851 489 q 735 378 775 450 q 667 233 694 306 q 627 94 639 161 q 624 -25 615 26 q 665 -106 633 -76 q 758 -132 697 -135 q 874 -100 817 -132 q 982 -16 931 -68 q 1076 103 1033 36 q 1151 240 1119 169 q 1199 381 1182 311 q 1217 508 1217 451 q 1192 620 1217 571 q 1107 681 1167 669 m 829 518 q 882 483 857 497 q 933 463 907 468 l 933 467 q 953 532 933 503 q 1004 561 972 561 q 1033 550 1021 561 q 1046 522 1044 539 q 1037 492 1046 506 q 1015 470 1028 479 q 985 457 1001 461 q 953 453 968 453 l 943 453 q 970 413 950 426 q 1018 400 990 400 q 1077 417 1050 400 q 1124 461 1104 435 q 1154 519 1143 488 q 1165 581 1165 551 q 1139 651 1164 624 q 1071 678 1114 678 q 1003 663 1038 678 q 938 623 969 647 q 878 571 906 599 q 829 518 850 543 m 942 461 l 953 461 q 982 465 967 461 q 1009 477 997 469 q 1028 496 1021 485 q 1036 522 1036 507 q 1027 544 1036 535 q 1004 553 1018 553 q 978 544 990 553 q 958 524 967 536 q 946 497 950 511 q 942 471 942 483 l 942 461 m 1076 792 q 1055 801 1064 792 q 1046 822 1046 810 q 1055 843 1046 835 q 1076 851 1064 851 q 1097 843 1089 851 q 1106 822 1106 835 q 1097 801 1106 810 q 1076 792 1089 792 m 1171 792 q 1149 801 1158 792 q 1140 822 1140 810 q 1149 843 1140 835 q 1171 851 1158 851 q 1192 843 1183 851 q 1200 822 1200 835 q 1192 801 1200 810 q 1171 792 1183 792 z "}}}
